<?xml version="1.0" encoding="UTF-8"?>
<svg width="34px" height="57px" viewBox="0 0 34 57" version="1.1" xmlns="http://www.w3.org/2000/svg" xmlns:xlink="http://www.w3.org/1999/xlink">
    <!-- Generator: Sketch 46.2 (44496) - http://www.bohemiancoding.com/sketch -->
    <title>Combined Shape</title>
    <desc>Created with Sketch.</desc>
    <defs></defs>
    <g id="└-App---Story-4" stroke="none" stroke-width="1" fill="none" fill-rule="evenodd">
        <g id="Story-4---02-C" transform="translate(-371.000000, -502.000000)" fill="#FFFFFF">
            <g id="Page-1" transform="translate(370.000000, 501.000000)">
                <path d="M16,58 L16,44 L20,44 L20,58 L16,58 Z M17.5603529,0.997795455 C17.5603529,0.997795455 34.1215294,12.3787045 34.1215294,27.5416591 C34.1215294,35.9914318 27.7041765,42.9459773 19.4503529,43.8787045 L19.4503529,28.6380227 L25.2809412,22.8452955 L22.6106471,20.1943864 L19.4503529,23.3341591 L19.4503529,12.3766591 L15.6744706,12.3766591 L15.6744706,29.25575 L11.3900588,24.9991591 L8.71976471,27.6500682 L15.6744706,34.5596136 L15.6744706,43.8787045 C7.41858824,42.9480227 0.999176471,35.9934773 0.999176471,27.5416591 C0.999176471,12.3787045 17.5603529,0.997795455 17.5603529,0.997795455 Z" id="Combined-Shape"></path>
            </g>
        </g>
    </g>
</svg>