<?xml version="1.0" encoding="UTF-8"?>
<svg width="43px" height="37px" viewBox="0 0 43 37" version="1.1" xmlns="http://www.w3.org/2000/svg" xmlns:xlink="http://www.w3.org/1999/xlink">
    <!-- Generator: Sketch 46.2 (44496) - http://www.bohemiancoding.com/sketch -->
    <title>Combined Shape</title>
    <desc>Created with Sketch.</desc>
    <defs></defs>
    <g id="└-App---Story-4" stroke="none" stroke-width="1" fill="none" fill-rule="evenodd">
        <g id="Story-4---02-A" transform="translate(-509.000000, -264.000000)" fill="#FFFFFF">
            <g id="Cockpit" transform="translate(276.000000, 241.000000)">
                <g id="Warning">
                    <g id="Group" transform="translate(233.000000, 23.000000)">
                        <path d="M24.9649612,2.28779163 L41.5222259,31.0018851 C42.6257542,32.9156564 41.9689226,35.361661 40.0551514,36.4651893 C39.447523,36.8155631 38.7584452,37 38.0570366,37 L4.94250718,37 C2.73336818,37 0.942507183,35.209139 0.942507183,33 C0.942507183,32.2985914 1.12694412,31.6095136 1.47731786,31.0018851 L18.0345825,2.28779163 L18.0345825,2.28779163 C19.1381109,0.374020408 21.5841155,-0.282811204 23.4978867,0.820717159 C24.1074333,1.17219696 24.6134814,1.67824506 24.9649612,2.28779163 L24.9649612,2.28779163 Z M20,13 L20.8507937,25.621372 L23.1365079,25.621372 L24,13 L20,13 Z M20.2031746,31 L23.7968254,31 L23.7968254,27.9604222 L20.2031746,27.9604222 L20.2031746,31 Z" id="Combined-Shape"></path>
                    </g>
                </g>
            </g>
        </g>
    </g>
</svg>