<svg xmlns="http://www.w3.org/2000/svg" xmlns:xlink="http://www.w3.org/1999/xlink" viewBox="0 0 970.1 553.29"><defs><style>.cls-1,.cls-10,.cls-11,.cls-12,.cls-14,.cls-2{fill:none;}.cls-10,.cls-11,.cls-12,.cls-13,.cls-14,.cls-2,.cls-3{stroke:#fff;}.cls-10,.cls-11,.cls-14,.cls-2,.cls-3{stroke-miterlimit:10;}.cls-10,.cls-12,.cls-13,.cls-2,.cls-3{stroke-width:0.72px;}.cls-13,.cls-4{fill:#fff;}.cls-5{clip-path:url(#clip-path);}.cls-6{fill:#e35500;}.cls-7,.cls-8,.cls-9{fill:#f0ab00;}.cls-7{opacity:0.4;}.cls-8{opacity:0.7;}.cls-10{stroke-linecap:round;}.cls-11{stroke-width:0.85px;}.cls-14{stroke-width:1.08px;}</style><clipPath id="clip-path"><path class="cls-1" d="M394.88,33.76a52.7,52.7,0,0,0-52.26,44.58,1,1,0,0,0,1.79.6,57.21,57.21,0,0,1,100.94,0,1,1,0,0,0,1.79-.6A52.7,52.7,0,0,0,394.88,33.76Z"/></clipPath></defs><title>Businessgroup_Laptop</title><g id="Ebene_2" data-name="Ebene 2"><g id="Illu"><path class="cls-2" d="M738.79,234.83l.19-4.21a31.25,31.25,0,0,0-23.2-26.29l-61.42-23.06"/><path class="cls-2" d="M587.61,181.27,522,204.33a31.26,31.26,0,0,0-23.2,26.29"/><line class="cls-2" x1="583.77" y1="247.64" x2="588.32" y2="167.89"/><line class="cls-2" x1="653.54" y1="164.02" x2="658.94" y2="247.64"/><path class="cls-2" d="M586.32,203.39a43.74,43.74,0,0,0,69.83,0"/><path class="cls-2" d="M569.1,175.73"/><path class="cls-2" d="M566.11,71.22v53.7a53,53,0,0,0,52.8,52.8h0a53,53,0,0,0,52.8-52.8V71.22"/><path class="cls-2" d="M681.37,93.52s3.8-5.75,3.8-37.12a55.85,55.85,0,0,0-56-56H608.68c-30.82,0-56,26-56,61.84s3.8,31.31,3.8,31.31"/><path class="cls-2" d="M552.64,103.41a13.46,13.46,0,0,0,13.46,13.46V89.95A13.46,13.46,0,0,0,552.64,103.41Z"/><path class="cls-2" d="M685.17,103.41a13.46,13.46,0,0,1-13.46,13.46V89.95A13.46,13.46,0,0,1,685.17,103.41Z"/><path class="cls-2" d="M566.09,103.62v-33c0-19.41,5.42-25.28,9.48-25.28s11.28,10.45,38.37,13.8,35.21,0,35.21,0a14.12,14.12,0,0,1,0-13.8,8,8,0,0,1,7.22-3.81c13.09,0,15.35,19.61,15.35,29.08v33"/><path class="cls-2" d="M593.67,128.22s7.22,20.38,25.24,20.38,25.24-20.38,25.24-20.38Z"/><path class="cls-2" d="M602.84,97.7a9,9,0,1,0-18,0"/><path class="cls-2" d="M652.94,97.7a9,9,0,1,0-18,0"/><path class="cls-2" d="M419.29,179.13h40S468,109.91,467,90.58c-3-59-43.68-79-74.95-79s-72,19.95-74.95,79c-1,19.34,7.72,88.55,7.72,88.55h41.43"/><path class="cls-3" d="M464.35,211.07"/><path class="cls-3" d="M321.64,211.07"/><path class="cls-2" d="M500.45,247.64l-.35-9c-1.39-14-9.65-25.66-20.87-29.34L453.8,201"/><path class="cls-2" d="M332.08,200.4l-27.16,8.91C293.69,213,285.43,224.6,284,238.64l-1.68,43.73"/><path class="cls-2" d="M444.57,118.31v15.34c0,29-23.41,52.74-52,52.74h0c-28.62,0-52-23.74-52-52.74V91"/><polyline class="cls-2" points="369.77 247.64 364.66 186.39 331.59 197.74 337.56 230.12 351.96 230.12 343.16 243.49 344.65 247.64"/><polyline class="cls-2" points="416.21 247.64 421.32 186.39 454.39 197.74 448.43 230.12 434.02 230.12 442.82 243.49 441.33 247.64"/><path class="cls-2" d="M366.68,213.1a33,33,0,0,0,52.62,0"/><circle class="cls-4" cx="366.75" cy="108.42" r="4.64"/><circle class="cls-4" cx="418.09" cy="108.42" r="4.64"/><path class="cls-2" d="M384.56,126.41c1,2.33,4.06,4,7.65,4,3.32,0,6.17-1.44,7.38-3.5"/><path class="cls-2" d="M370.69,147.86c3.6,6,10.71,14.46,22.3,14.46s18.71-8.45,22.3-14.46Z"/><path class="cls-2" d="M353.47,67.36s37,46.09,91.39,34.89"/><path class="cls-2" d="M444.86,102.25a9.92,9.92,0,1,1,0,19.85"/><path class="cls-2" d="M339.69,102.25a9.92,9.92,0,0,0,0,19.85"/><g class="cls-5"><rect class="cls-6" x="369.3" y="5.22" width="51.72" height="106.31" transform="translate(453.54 -336.79) rotate(90)"/><rect class="cls-7" x="382.84" y="45.17" width="51.72" height="26.41" transform="translate(467.08 -350.33) rotate(90)"/><rect class="cls-8" x="356.43" y="45.17" width="51.72" height="26.41" transform="translate(440.67 -323.92) rotate(90)"/><rect class="cls-9" x="329.69" y="44.84" width="51.72" height="27.08" transform="translate(413.93 -297.17) rotate(90)"/></g><path class="cls-2" d="M874.86,136v-17.1c0-35.06-15-67.05-62.81-67.05"/><line class="cls-2" x1="835.3" y1="216.11" x2="832.9" y2="205.01"/><path class="cls-2" d="M922.25,315.59l-2.16-47.23c-1.39-14-9.65-25.66-20.87-29.34l-31.26-9.29"/><path class="cls-2" d="M757.89,229.2l-33,9.83c-11.23,3.68-19.49,15.29-20.87,29.34l-.69,15.16"/><line class="cls-2" x1="793.08" y1="205.5" x2="790.63" y2="216.11"/><polyline class="cls-2" points="797.79 294.01 790.63 216.11 757.57 227.46 763.53 259.84 777.94 259.84 769.14 273.21 777.02 291.32"/><path class="cls-2" d="M812.05,51.87c-47.77,0-62.82,32-62.82,67.05v18.24"/><path class="cls-2" d="M870.13,155.75a10.47,10.47,0,1,0,0-20.94h-2l0,20.94Z"/><path class="cls-10" d="M868.13,125v28.55A55.1,55.1,0,0,1,813,208.62h0a55.11,55.11,0,0,1-55.11-55.1V125"/><path class="cls-2" d="M755.94,155.75a10.47,10.47,0,1,1,0-20.94h2l.06,20.94Z"/><path class="cls-2" d="M787.3,173.07c0,8.2,13.87,12.45,25.58,12.45,11.35,0,25.59-3.74,25.59-12.45Z"/><path class="cls-4" d="M795.17,137.66a4,4,0,1,0-4,4A4,4,0,0,0,795.17,137.66Z"/><path class="cls-4" d="M838.7,137.66a4,4,0,1,0-4,4A4,4,0,0,0,838.7,137.66Z"/><polyline class="cls-10" points="757.92 124.77 765.79 124.83 827.07 124.83 831.63 99.78 835.83 124.83 858.3 124.83 868.08 124.77"/><path class="cls-2" d="M814.49,52a31.13,31.13,0,0,1,3.81-13.21c9-16.38,30.86-21.64,48.84-11.76s25.24,31.16,16.25,47.53a31.52,31.52,0,0,1-13.63,13"/><polyline class="cls-2" points="827.7 298.79 835.3 216.11 868.37 227.46 862.4 259.84 847.99 259.84 856.8 273.21 844.72 300.96"/><line class="cls-11" x1="753.59" y1="152.25" x2="753.59" y2="166.79"/><circle class="cls-11" cx="753.59" cy="170.89" r="4.41"/><line class="cls-11" x1="872.49" y1="152.25" x2="872.49" y2="166.79"/><circle class="cls-11" cx="872.49" cy="170.89" r="4.41"/><path class="cls-2" d="M795.17,263.34S800.75,267,813,267s17.58-3.67,17.58-3.67"/><polyline class="cls-12" points="193.96 171.69 193.96 177.91 173.97 189.75 154.86 177.91 154.86 171.69"/><path class="cls-13" d="M174.73,291.79"/><path class="cls-12" d="M228.17,123.62l2-.11h0a10.2,10.2,0,1,0,0-20.39h-2"/><path class="cls-12" d="M228.22,103v18.26a53.86,53.86,0,0,1-53.87,53.87h0a53.86,53.86,0,0,1-53.87-53.87V103"/><path class="cls-12" d="M120.51,123.62l-1.91-.11h0a10.2,10.2,0,1,1,0-20.39h1.88"/><path class="cls-12" d="M149.31,130.6a24.94,24.94,0,0,0,49.88,0Z"/><path class="cls-12" d="M215.26,58.45c15.91,10.79,13,32.67,13,32.67v12a12.83,12.83,0,0,1,7.88,1.77c0-2.88,0-6.1,0-11.53.33-6.1,4.54-12.3,3.44-27.71C238.09,46.25,228,41.49,228,41.49c9.31-17.29-6.65-36-6.65-36-7.32,11-27,6.1-62.29,8.76-30.26,2.33-34.8,27.16-34.8,27.16s-13.19,4.77-14.74,24.16c-1.22,15.3,3.1,21.61,3.1,27.93v11.19s2.66-2.47,7.87-1.63"/><path class="cls-12" d="M120.49,102.78h0v-17c0-8.76,2.66-20.06,13-27.38,0,0,21.06,6.76,42.34,6.76a126.61,126.61,0,0,0,39.46-6.76c10.31,7.2,13,18.62,13,27.38v17"/><path class="cls-4" d="M157,105.78a4,4,0,1,0-4,4A4,4,0,0,0,157,105.78Z"/><path class="cls-4" d="M199.52,105.78a4,4,0,1,0-4,4A4,4,0,0,0,199.52,105.78Z"/><path class="cls-12" d="M69.81,310.72s-.9-61,0-80.54,3.6-23.56,15.09-30.2c4.45-2.57,53.6-15.26,53.6-15.26.24.49,15.53,27.61,15.53,27.61l6.9-6a41.91,41.91,0,0,0,12.42,1.77,41.13,41.13,0,0,0,12.27-1.77l7,6.79,15.69-28.55s51.16,12.85,55.6,15.42c11.49,6.65,14.19,10.62,15.09,30.2s0,52.22,0,52.22"/><line class="cls-2" x1="116.55" y1="245.53" x2="116.55" y2="302.97"/><line class="cls-2" x1="233.11" y1="245.53" x2="233.11" y2="287.19"/><polygon class="cls-12" points="137.91 185.11 151.59 176.34 173.96 189.66 173.96 194.99 154.03 212.33 137.91 185.11"/><polygon class="cls-12" points="209.25 184.66 196.33 176.34 173.96 189.66 173.96 194.99 192.63 213.11 209.25 184.66"/><path class="cls-14" d="M703.32,283.52c172.4,15.23,266.62,43.91,266.62,43.91"/><path class="cls-14" d="M.15,327.43s106-31.79,296.86-46.21"/><line class="cls-2" x1="364.66" y1="186.39" x2="366.28" y2="179.13"/><line class="cls-2" x1="419.29" y1="179.13" x2="421.33" y2="186.39"/><path class="cls-11" d="M686.7,247.64H313.35c-8.88,0-16.15,6.87-16.15,15.27l-2.39,243.2H700.47l2.39-243.2C702.86,254.51,695.59,247.64,686.7,247.64Z"/><path class="cls-11" d="M222.86,533.15h551.8a0,0,0,0,1,0,0v10.37a9.34,9.34,0,0,1-9.34,9.34H232.2a9.34,9.34,0,0,1-9.34-9.34V533.15a0,0,0,0,1,0,0Z"/><path class="cls-11" d="M774.8,533.15l-73.68-25.86H296.54l-73.68,25.86H435.13c1.23,4.78,8.57,8.45,17.48,8.45h92.3c8.91,0,16.25-3.68,17.48-8.45Z"/><rect class="cls-11" x="314.55" y="264.08" width="368.57" height="225.58"/></g></g></svg>