<svg xmlns="http://www.w3.org/2000/svg" xmlns:xlink="http://www.w3.org/1999/xlink" viewBox="0 0 766.25 588.38"><defs><style>.cls-1,.cls-3{fill:none;}.cls-2{isolation:isolate;}.cls-3,.cls-5{stroke:#fff;}.cls-3,.cls-5,.cls-6{stroke-miterlimit:10;stroke-width:0.85px;}.cls-4{mix-blend-mode:lighten;}.cls-6{fill:#fff;stroke:#000;}.cls-7{clip-path:url(#clip-path);}.cls-8{fill:#e35500;}.cls-10,.cls-11,.cls-9{fill:#f0ab00;}.cls-9{opacity:0.4;}.cls-10{opacity:0.7;}</style><clipPath id="clip-path"><path class="cls-1" d="M169.53,78.15a65.76,65.76,0,0,0-65.22,55.63,1.2,1.2,0,0,0,2.23.75,71.4,71.4,0,0,1,126,0,1.2,1.2,0,0,0,2.23-.75A65.76,65.76,0,0,0,169.53,78.15Z"/></clipPath></defs><title>16_People_laptop</title><g class="cls-2"><g id="Ebene_2" data-name="Ebene 2"><g id="Illu"><circle class="cls-3" cx="354.65" cy="36.53" r="5.47"/><path class="cls-3" d="M407.38.43H303.89a36.86,36.86,0,0,0-36.75,36.75h0a36.86,36.86,0,0,0,36.75,36.75h9.35l19.14,19.14,19.14-19.14h55.85a36.86,36.86,0,0,0,36.75-36.75h0A36.86,36.86,0,0,0,407.38.43Z"/><circle class="cls-3" cx="324.65" cy="36.53" r="5.47"/><circle class="cls-3" cx="384.65" cy="36.53" r="5.47"/><g class="cls-4"><path class="cls-5" d="M732.12,307.12a36.8,36.8,0,0,0-27.32-31L632.48,249h-78.6l-77.22,27.16a36.8,36.8,0,0,0-27.32,31l.22,76.25,95.24.14,91.84,16.75,95.24-.14Z"/><polygon class="cls-5" points="640.34 383.51 546.16 383.51 554.98 228.7 631.52 228.7 640.34 383.51"/><path class="cls-5" d="M552.37,275.06a51.51,51.51,0,0,0,82.22,0"/><path class="cls-5" d="M532.09,242.49"/><line class="cls-5" x1="640.34" y1="383.51" x2="546.16" y2="383.51"/><path class="cls-5" d="M590.74,64.08h0c-34.19,0-62.17,21.16-62.17,55.35v63.23a62.35,62.35,0,0,0,62.17,62.17h0a62.35,62.35,0,0,0,62.17-62.17V119.43C652.91,85.24,624.93,64.08,590.74,64.08Z"/><path class="cls-5" d="M662.65,137.53h-.6a74.36,74.36,0,0,0,1.24-13.34V118c0-32.54-20.71-58.92-46.26-58.92H564.44c-14.74,0-24.7,8.77-35.39,20.8-6.8,7.64-10.86,24.36-10.86,38.12v6.15a74.79,74.79,0,0,0,1,12.07h-.34"/><path class="cls-5" d="M664.29,145.69s4.47-6.77,4.47-43.71a65.77,65.77,0,0,0-66-66H578.7c-36.29,0-66,30.59-66,72.82s4.47,36.87,4.47,36.87Z"/><path class="cls-5" d="M512.71,157.33a15.85,15.85,0,0,0,15.85,15.85v-31.7A15.85,15.85,0,0,0,512.71,157.33Z"/><path class="cls-5" d="M668.76,157.33a15.85,15.85,0,0,1-15.85,15.85v-31.7A15.85,15.85,0,0,1,668.76,157.33Z"/><path class="cls-5" d="M528.55,157.58V118.69c0-22.85,6.38-29.76,11.16-29.76s13.29,12.31,45.18,16.25,41.46,0,41.46,0a16.62,16.62,0,0,1,0-16.25c2.83-5,8.5-4.48,8.5-4.48,15.41,0,18.07,23.08,18.07,34.25v38.89"/><path class="cls-5" d="M561,186.55s8.5,24,29.72,24,29.72-24,29.72-24Z"/><path class="cls-5" d="M571.83,150.62a10.58,10.58,0,1,0-21.16,0"/><path class="cls-5" d="M630.81,150.62a10.58,10.58,0,1,0-21.16,0"/><path class="cls-5" d="M247.39,246.49s10.24-81.5,9.09-104.27c-3.52-69.53-51.43-93-88.25-93S83.5,72.7,80,142.22C78.83,165,89.07,246.49,89.07,246.49Z"/><path class="cls-5" d="M253.33,284.1"/><path class="cls-5" d="M85.29,284.1"/><path class="cls-5" d="M295.43,316.57C293.8,300,284.07,286.36,270.85,282l-68.56-22.48-3.61-47.81H137.77l-2,47.28L65.6,282C52.38,286.36,42.65,300,41,316.57l-3,79.34h260.5Z"/><path class="cls-5" d="M230,174.88v18.06C230,227.1,202.47,255,168.77,255h0c-33.7,0-61.27-27.95-61.27-62.11v-50.2"/><polygon class="cls-5" points="135.94 255.05 97.01 268.41 104.03 306.54 121 306.54 110.63 322.28 137.04 395.91 147.7 395.91 135.94 255.05"/><polygon class="cls-5" points="202.67 255.05 241.61 268.41 234.58 306.54 217.62 306.54 227.98 322.28 201.58 395.91 190.91 395.91 202.67 255.05"/><path class="cls-5" d="M138.33,286.49a38.81,38.81,0,0,0,62,0"/><circle class="cls-6" cx="138.41" cy="163.24" r="5.47"/><circle class="cls-6" cx="198.86" cy="163.24" r="5.47"/><path class="cls-5" d="M159.37,184.42c1.19,2.74,4.78,4.74,9,4.74,3.91,0,7.26-1.7,8.7-4.12"/><path class="cls-5" d="M143,209.68c4.24,7.08,12.61,17,26.26,17s22-9.94,26.26-17Z"/><path class="cls-5" d="M122.78,114.89S166.31,169.16,230.38,156"/><path class="cls-5" d="M230.38,156a11.68,11.68,0,0,1,0,23.37"/><path class="cls-5" d="M106.54,156a11.68,11.68,0,0,0,0,23.37"/><path class="cls-5" d="M.12,406.56s140-42,384-42,382,42,382,42"/><path class="cls-5" d="M352.06,436.51H142.34L155,306.78a10.08,10.08,0,0,1,10-9.1H356.48a8.31,8.31,0,0,1,8.27,9.12Z"/><path class="cls-5" d="M142.34,436.51H352.06a0,0,0,0,1,0,0v9a6.39,6.39,0,0,1-6.39,6.39H142.34a0,0,0,0,1,0,0V436.51A0,0,0,0,1,142.34,436.51Z"/><path class="cls-5" d="M81.49,404l60.85,32.49v15.41l-52.52-28A15.75,15.75,0,0,1,81.49,410Z"/><polygon class="cls-5" points="81.49 404.02 145.88 395.16 142.34 436.51 81.49 404.02"/><path class="cls-5" d="M430,436.51H639.74L627,306.78a10.08,10.08,0,0,0-10-9.1H425.6a8.31,8.31,0,0,0-8.27,9.12Z"/><path class="cls-5" d="M430,436.51H633.35a6.39,6.39,0,0,1,6.39,6.39v9a0,0,0,0,1,0,0H430a0,0,0,0,1,0,0V436.51a0,0,0,0,1,0,0Z" transform="translate(1069.77 888.42) rotate(180)"/><path class="cls-5" d="M700.59,404l-60.85,32.49v15.41l52.52-28a15.75,15.75,0,0,0,8.33-13.9Z"/><polygon class="cls-5" points="700.59 404.02 636.2 395.16 639.74 436.51 700.59 404.02"/></g><g class="cls-7"><rect class="cls-8" x="137.61" y="42.53" width="64.54" height="132.67" transform="translate(278.75 -61.01) rotate(90)"/><rect class="cls-9" x="154.51" y="92.39" width="64.54" height="32.96" transform="translate(295.65 -77.91) rotate(90)"/><rect class="cls-10" x="121.55" y="92.39" width="64.54" height="32.96" transform="translate(262.69 -44.95) rotate(90)"/><rect class="cls-11" x="88.17" y="91.97" width="64.54" height="33.79" transform="translate(229.31 -11.57) rotate(90)"/></g><path class="cls-5" d="M563.86,282.73H190.51c-8.88,0-16.15,6.87-16.15,15.27L172,541.2H577.62L580,298C580,289.6,572.75,282.73,563.86,282.73Z"/><path class="cls-5" d="M100,568.24h551.8a0,0,0,0,1,0,0v10.37a9.34,9.34,0,0,1-9.34,9.34H109.36a9.34,9.34,0,0,1-9.34-9.34V568.24a0,0,0,0,1,0,0Z"/><path class="cls-5" d="M652,568.24l-73.68-25.86H173.7L100,568.24H312.29c1.23,4.78,8.57,8.45,17.48,8.45h92.3c8.91,0,16.25-3.68,17.48-8.45Z"/><rect class="cls-3" x="191.7" y="299.17" width="368.57" height="225.58"/></g></g></g></svg>