<svg xmlns="http://www.w3.org/2000/svg" viewBox="0 0 483.26 265.33"><defs><style>.cls-1{isolation:isolate;}.cls-2{mix-blend-mode:lighten;}.cls-3,.cls-4{stroke:#fff;stroke-miterlimit:10;stroke-width:0.85px;}.cls-4{fill:none;}</style></defs><title>19_Laptop</title><g class="cls-1"><g id="Ebene_2" data-name="Ebene 2"><g id="Illu"><g class="cls-2"><path class="cls-3" d="M404.43.43H80.91c-7.7,0-14,6-14,13.23L64.83,224.4H416.35l2.07-210.74C418.43,6.38,412.13.43,404.43.43Z"/><path class="cls-3" d="M2.49,247.82H480.64a0,0,0,0,1,0,0v7.74a9.34,9.34,0,0,1-9.34,9.34H11.83a9.34,9.34,0,0,1-9.34-9.34v-7.74a0,0,0,0,1,0,0Z"/><path class="cls-3" d="M480.77,247.82l-63.85-22.41H66.34L2.49,247.82H186.43c1.06,4.14,7.43,7.33,15.14,7.33h80c7.72,0,14.08-3.19,15.14-7.33Z"/><rect class="cls-4" x="81.94" y="14.67" width="319.37" height="195.47"/></g></g></g></g></svg>