<?xml version="1.0" encoding="utf-8"?>
<!-- Generator: Adobe Illustrator 16.0.0, SVG Export Plug-In . SVG Version: 6.00 Build 0)  -->
<!DOCTYPE svg PUBLIC "-//W3C//DTD SVG 1.1//EN" "http://www.w3.org/Graphics/SVG/1.1/DTD/svg11.dtd">
<svg version="1.1" id="Ebene_1" xmlns="http://www.w3.org/2000/svg" xmlns:xlink="http://www.w3.org/1999/xlink" x="0px" y="0px"
	 width="362.815px" height="265.742px" viewBox="0 0 362.815 265.742" enable-background="new 0 0 362.815 265.742"
	 xml:space="preserve">
<g>
	<g>
		<path fill="none" stroke="#FFFFFF" stroke-width="0.85" stroke-miterlimit="10" d="M167.909,89.233
			c0-8.569,5.047-28.473,19.686-31.848c8.35-1.925,11.346,6.946,11.346,15.515v53.117c0,0,7.482,14.026,11.307,19.262
			c3.599,4.926,5.887,6.792,11.32,6.792s5.434,0,5.434,0"/>
		<path fill="none" stroke="#FFFFFF" stroke-width="0.85" stroke-miterlimit="10" d="M167.905,247.6
			c11.744-2.733,25.361-14.702,25.361-14.702h33.734"/>
		
			<rect x="227.228" y="144.65" fill="none" stroke="#FFFFFF" stroke-width="0.85" stroke-miterlimit="10" width="135.163" height="105.731"/>
		<path fill="none" stroke="#FFFFFF" stroke-width="0.85" stroke-miterlimit="10" d="M38.86,96.563L8.978,78.602
			C0.647,73.594-2.071,62.681,2.937,54.35l0,0c5.007-8.331,15.92-11.049,24.251-6.042l11.667,7.013"/>
		<g>
			<path fill="none" stroke="#FFFFFF" stroke-width="0.85" stroke-miterlimit="10" d="M148.892,0.425H57.878
				c-10.461,0-19.018,8.559-19.018,19.018v226.856c0,10.461,8.557,19.019,19.018,19.019h91.014c10.46,0,19.018-8.558,19.018-19.019
				V19.443C167.909,8.983,159.352,0.425,148.892,0.425z"/>
			
				<rect x="47.463" y="28.952" fill="none" stroke="#FFFFFF" stroke-width="0.85" stroke-miterlimit="10" width="113.202" height="202.631"/>
			<circle fill="none" stroke="#FFFFFF" stroke-width="0.85" stroke-miterlimit="10" cx="104.064" cy="246.526" r="9.961"/>
			<path fill="none" stroke="#FFFFFF" stroke-width="0.85" stroke-miterlimit="10" d="M114.253,14.009H93.876
				c-0.872,0-1.586,0.713-1.586,1.585c0,0.872,0.714,1.585,1.586,1.585h20.377c0.871,0,1.584-0.713,1.584-1.585
				C115.837,14.722,115.124,14.009,114.253,14.009z"/>
		</g>
		<g>
			<path fill="#010202" stroke="#FFFFFF" stroke-width="0.85" stroke-miterlimit="10" d="M23.709,131.819l13.413,8.062
				c7.727,4.645,17.848,2.123,22.492-5.604l0,0c4.645-7.727,2.123-17.848-5.604-22.493l-13.413-8.062
				c-7.727-4.644-17.849-2.123-22.493,5.604C13.46,117.053,15.982,127.175,23.709,131.819z"/>
			<path fill="#010202" stroke="#FFFFFF" stroke-width="0.85" stroke-miterlimit="10" d="M54.011,149.732l-13.413-8.062
				c-7.727-4.645-17.849-2.123-22.493,5.604l0,0c-4.645,7.727-2.122,17.849,5.604,22.492l13.413,8.063
				c7.727,4.644,17.848,2.122,22.492-5.604C64.259,164.499,61.737,154.377,54.011,149.732z"/>
			<path fill="#010202" stroke="#FFFFFF" stroke-width="0.85" stroke-miterlimit="10" d="M54.011,188.211l-13.413-8.062
				c-7.727-4.645-17.849-2.123-22.493,5.604l0,0c-4.645,7.727-2.122,17.848,5.604,22.492l13.413,8.063
				c7.727,4.644,17.848,2.122,22.492-5.604C64.259,202.978,61.737,192.855,54.011,188.211z"/>
		</g>
	</g>
	<path opacity="0.1" fill="#FFFFFF" d="M93.438,99.447H67.11c-4.4,0-8-3.6-8-8V65.12c0-4.4,3.6-8,8-8h26.328c4.4,0,8,3.6,8,8v26.327
		C101.438,95.847,97.839,99.447,93.438,99.447z"/>
	<path opacity="0.1" fill="#FFFFFF" d="M144.108,99.447H117.78c-4.399,0-8-3.6-8-8V65.12c0-4.4,3.601-8,8-8h26.328
		c4.399,0,8,3.6,8,8v26.327C152.108,95.847,148.508,99.447,144.108,99.447z"/>
	<path opacity="0.1" fill="#FFFFFF" d="M93.438,150.576H67.11c-4.4,0-8-3.6-8-8v-26.328c0-4.4,3.6-8,8-8h26.328c4.4,0,8,3.6,8,8
		v26.328C101.438,146.977,97.839,150.576,93.438,150.576z"/>
	<path opacity="0.1" fill="#FFFFFF" d="M144.108,150.576H117.78c-4.399,0-8-3.6-8-8v-26.328c0-4.4,3.601-8,8-8h26.328
		c4.399,0,8,3.6,8,8v26.328C152.108,146.977,148.508,150.576,144.108,150.576z"/>
	<path opacity="0.1" fill="#FFFFFF" d="M93.438,201.705H67.11c-4.4,0-8-3.601-8-8v-26.328c0-4.399,3.6-8,8-8h26.328
		c4.4,0,8,3.601,8,8v26.328C101.438,198.104,97.839,201.705,93.438,201.705z"/>
</g>
</svg>
