<?xml version="1.0" encoding="utf-8"?>
<!-- Generator: Adobe Illustrator 16.0.0, SVG Export Plug-In . SVG Version: 6.00 Build 0)  -->
<!DOCTYPE svg PUBLIC "-//W3C//DTD SVG 1.1//EN" "http://www.w3.org/Graphics/SVG/1.1/DTD/svg11.dtd">
<svg version="1.1" id="Ebene_1" xmlns="http://www.w3.org/2000/svg" xmlns:xlink="http://www.w3.org/1999/xlink" x="0px" y="0px"
	 width="80px" height="80px" viewBox="0 0 80 80" enable-background="new 0 0 80 80" xml:space="preserve">
<g>
	<g>
		<circle fill="none" stroke="#FFFFFF" stroke-width="0.85" stroke-miterlimit="10" cx="40" cy="40" r="35.263"/>
		<g>
			<path fill="none" stroke="#FFFFFF" stroke-width="0.85" stroke-linecap="round" stroke-miterlimit="10" d="M55.819,23.202
				c0.914,1.819,1.431,3.869,1.431,6.67l-0.009,20.145c0,5.935-3.331,9.191-6.885,11.653c-3.556,2.462-7.334,4.129-10.088,4.129
				s-6.533-1.667-10.088-4.129s-6.885-5.719-6.885-11.653l-0.01-20.145c0-5.085,2.18-9.051,5.523-11.517"/>
			<g>
				<path fill="none" stroke="#FFFFFF" stroke-width="0.85" stroke-linecap="round" stroke-miterlimit="10" d="M23.286,36.428
					c-2.801,0-4.035,1.235-4.035,3.378c0,2.142,0,2.471,0,3.46c0,0.988,0.429,4.617,4.045,5.191"/>
				<path fill="none" stroke="#FFFFFF" stroke-width="0.85" stroke-linecap="round" stroke-miterlimit="10" d="M21.272,41.282
					c-0.271-2.283,1.008-2.712,2.014-2.712"/>
			</g>
			<path fill="none" stroke="#FFFFFF" stroke-width="0.85" stroke-linecap="round" stroke-miterlimit="10" d="M38.521,46.738
				c0.421,0.499,1.044,0.823,1.748,0.823s1.326-0.324,1.748-0.823"/>
			<g>
				<path fill="none" stroke="#FFFFFF" stroke-width="0.85" stroke-linecap="round" stroke-miterlimit="10" d="M26.926,33.916
					c2.166-1.733,5.632-2.34,8.577-0.607"/>
				<circle fill="#FFFFFF" cx="31.882" cy="38.785" r="1.231"/>
				<path fill="none" stroke="#FFFFFF" stroke-width="0.85" stroke-linecap="round" stroke-miterlimit="10" d="M40.269,37.555
					c-1.191,0-1.748,0.39-1.748,0.39"/>
				<path fill="none" stroke="#FFFFFF" stroke-width="0.85" stroke-linecap="round" stroke-miterlimit="10" d="M28.94,35.604
					c-3.314,0-4.549,1.675-4.549,3.242c0,1.566,1.43,5.141,7.213,5.141s6.916-3.169,6.916-4.679c0-1.509-1.068-3.704-4.316-3.704
					C31.669,35.604,28.94,35.604,28.94,35.604z"/>
				<path fill="none" stroke="#FFFFFF" stroke-width="0.85" stroke-linecap="round" stroke-miterlimit="10" d="M53.611,33.916
					c-2.166-1.733-5.632-2.34-8.577-0.607"/>
				<circle fill="#FFFFFF" cx="48.654" cy="38.785" r="1.231"/>
				<path fill="none" stroke="#FFFFFF" stroke-width="0.85" stroke-linecap="round" stroke-miterlimit="10" d="M40.269,37.555
					c1.191,0,1.748,0.39,1.748,0.39"/>
				<path fill="none" stroke="#FFFFFF" stroke-width="0.85" stroke-linecap="round" stroke-miterlimit="10" d="M51.597,35.604
					c3.314,0,4.549,1.675,4.549,3.242c0,1.566-1.43,5.141-7.213,5.141s-6.916-3.169-6.916-4.679c0-1.509,1.068-3.704,4.316-3.704
					C48.868,35.604,51.597,35.604,51.597,35.604z"/>
			</g>
			<path fill="none" stroke="#FFFFFF" stroke-width="0.85" stroke-linecap="round" stroke-miterlimit="10" d="M57.25,38.536
				l-1.104-0.779v-7.004l-2.534-2.274v-3.443c0,0-5.264-2.535-13.343-2.535"/>
			<path fill="none" stroke="#FFFFFF" stroke-width="0.85" stroke-linecap="round" stroke-miterlimit="10" d="M23.286,38.536
				l1.105-0.779v-7.004l2.534-2.274v-3.443c0,0,5.263-2.535,13.343-2.535"/>
			<path fill="none" stroke="#FFFFFF" stroke-width="0.85" stroke-linecap="round" stroke-miterlimit="10" d="M39.395,16.847
				c0,0,4.772,1.482,6.712,6.103"/>
			<path fill="none" stroke="#FFFFFF" stroke-width="0.85" stroke-linecap="round" stroke-miterlimit="10" d="M35.165,18.938
				c0,0,2.936,0.912,5.137,3.533"/>
			<path fill="none" stroke="#FFFFFF" stroke-width="0.85" stroke-linecap="round" stroke-miterlimit="10" d="M29.757,21.316
				c0,0,1.623,0.504,3.36,1.839"/>
			<path fill="none" stroke="#FFFFFF" stroke-width="0.85" stroke-linecap="round" stroke-miterlimit="10" d="M57.25,29.236
				c0-8.75-9.139-15.184-9.139-15.184l-1.431,1.668c0,0-4.029-3.942-9.812-3.747v2.079c0,0-5.135-1.17-8.059,1.04
				c0,0,0.846,1.653,0,3.264"/>
			<path fill="none" stroke="#FFFFFF" stroke-width="0.85" stroke-linecap="round" stroke-miterlimit="10" d="M35.835,45.438
				c0,0-0.396,1.321,0.318,2.123"/>
			<path fill="none" stroke="#FFFFFF" stroke-width="0.85" stroke-linecap="round" stroke-miterlimit="10" d="M44.701,45.438
				c0,0,0.397,1.321-0.317,2.123"/>
			<path fill="none" stroke="#FFFFFF" stroke-width="0.85" stroke-linecap="round" stroke-miterlimit="10" d="M57.25,48.298v-9.762
				l-1.104-0.779c0,10.267-2.772,15.831-5.214,15.831v-1.586c0-1.43-1.169-2.6-2.599-2.6h-16.6c-1.43,0-2.599,1.17-2.599,2.6v1.484
				c-2.293-0.826-4.677-6.209-4.677-15.729l-1.172,0.779l0,0v9.762 M43.069,59.617v-1.582c0-0.852-0.646-1.55-1.436-1.55h-2.814
				c-0.79,0-1.436,0.698-1.436,1.55v1.562c-4.312-0.674-5.242-3.152-5.73-4.709v-2.604c0-0.599,0.453-1.088,1.008-1.088h14.744
				c0.555,0,1.008,0.489,1.008,1.088v3.764C47.616,57.487,46.486,59.115,43.069,59.617z"/>
			<path fill="none" stroke="#FFFFFF" stroke-width="0.85" stroke-linecap="round" stroke-miterlimit="10" d="M34.618,53.223
				c1.702,0.851,3.617,1.338,5.65,1.338c2.032,0,3.947-0.487,5.649-1.338"/>
			<g>
				<path fill="none" stroke="#FFFFFF" stroke-width="0.85" stroke-linecap="round" stroke-miterlimit="10" d="M57.25,36.428
					c2.801,0,4.036,1.235,4.036,3.378c0,2.142,0,2.471,0,3.46c0,0.988-0.43,4.617-4.045,5.191"/>
				<path fill="none" stroke="#FFFFFF" stroke-width="0.85" stroke-linecap="round" stroke-miterlimit="10" d="M59.264,41.282
					c0.272-2.283-1.007-2.712-2.014-2.712"/>
			</g>
		</g>
		<path fill="none" stroke="#FFFFFF" stroke-width="0.85" stroke-miterlimit="10" d="M61.73,67.771
			c-3.113-2.108-5.986-3.073-10.009-3.073h-4.851c-0.464,3.416-3.385,6.051-6.928,6.051c-3.544,0-6.464-2.635-6.929-6.051h-4.134
			c-4.335,0-7.261,0.677-10.508,3.095"/>
		
			<line fill="none" stroke="#FFFFFF" stroke-width="0.85" stroke-miterlimit="10" x1="33.015" y1="64.697" x2="33.015" y2="63.489"/>
		
			<line fill="none" stroke="#FFFFFF" stroke-width="0.85" stroke-miterlimit="10" x1="46.871" y1="64.697" x2="46.871" y2="63.782"/>
	</g>
</g>
</svg>
