<?xml version="1.0" encoding="utf-8"?>
<!-- Generator: Adobe Illustrator 16.0.0, SVG Export Plug-In . SVG Version: 6.00 Build 0)  -->
<!DOCTYPE svg PUBLIC "-//W3C//DTD SVG 1.1//EN" "http://www.w3.org/Graphics/SVG/1.1/DTD/svg11.dtd">
<svg version="1.1" id="Ebene_1" xmlns="http://www.w3.org/2000/svg" xmlns:xlink="http://www.w3.org/1999/xlink" x="0px" y="0px"
	 width="80px" height="80px" viewBox="0 0 80 80" enable-background="new 0 0 80 80" xml:space="preserve">
<g>
	<circle fill="none" stroke="#FFFFFF" stroke-width="0.85" stroke-miterlimit="10" cx="40" cy="40" r="35.262"/>
	<g>
		<defs>
			<circle id="SVGID_1_" cx="40" cy="40" r="35.262"/>
		</defs>
		<clipPath id="SVGID_2_">
			<use xlink:href="#SVGID_1_"  overflow="visible"/>
		</clipPath>
		<g clip-path="url(#SVGID_2_)">
			<g>
				<g>
					<path fill="#010202" stroke="#FFFFFF" stroke-width="0.85" stroke-linecap="round" stroke-miterlimit="10" d="M58.268,59.926"
						/>
					<path fill="#010202" stroke="#FFFFFF" stroke-width="0.85" stroke-linecap="round" stroke-miterlimit="10" d="M20.402,59.926"
						/>
					<path fill="#010202" stroke="#FFFFFF" stroke-width="0.85" stroke-linecap="round" stroke-miterlimit="10" d="M45.955,43.619
						H32.229L31.78,54.273l-15.814,5.186c-2.979,0.977-5.17,4.057-5.539,7.783L9.741,85.12h58.7l-0.686-17.878
						c-0.367-3.727-2.561-6.807-5.539-7.783l-15.449-5.065"/>
					<path fill="#010202" stroke="#FFFFFF" stroke-width="0.85" stroke-linecap="round" stroke-miterlimit="10" d="M53.02,35.313
						v4.069c0,7.698-6.211,13.996-13.804,13.996l0,0c-7.594,0-13.807-6.298-13.807-13.996V28.072"/>
					<polygon fill="#010202" stroke="#FFFFFF" stroke-width="0.85" stroke-linecap="round" stroke-miterlimit="10" points="
						31.817,53.379 23.044,56.391 24.626,64.98 28.45,64.98 26.114,68.528 32.063,85.12 34.467,85.12 					"/>
					<path fill="#010202" stroke="#FFFFFF" stroke-width="0.85" stroke-linecap="round" stroke-miterlimit="10" d="M33.677,62.248
						c0,3.203-2.598,5.799-5.799,5.799c-2.74,0-5.036-1.9-5.643-4.454l-0.279-0.001c0,0-5.114-0.301-6.167-4.964
						c-1.053-4.662,2.105-5.715,1.504-7.37c-0.602-1.654-4.513-1.504-3.159-7.52c1.354-6.017,8.123-9.627,8.725-14.29
						s1.504-10.679,3.76-11.582c0,0,1.654-7.37,13.688-7.671c12.032-0.301,23.614,15.789,22.11,26.921"/>
					<polyline fill="#010202" stroke="#FFFFFF" stroke-width="0.85" stroke-linecap="round" stroke-miterlimit="10" points="
						55.627,56.391 54.045,64.98 50.221,64.98 52.807,67.834 46.607,85.12 44.203,85.12 46.854,53.379 					"/>
					<path fill="#010202" stroke="#FFFFFF" stroke-width="0.85" stroke-linecap="round" stroke-miterlimit="10" d="M55.947,31.855
						c-5.865,1.354-13.688,0.752-18.8-3.31c-5.115-4.061-4.363-13.988-7.821-13.386c-3.46,0.602-1.505,5.114-1.505,5.114
						s-2.406,0.602-2.707,8.573c-0.301,7.973-0.021,15.839,2.986,21.103"/>
					<path fill="#010202" stroke="#FFFFFF" stroke-width="0.85" stroke-linecap="round" stroke-miterlimit="10" d="M46.986,50.849
						l-0.219,3.545l-0.715,8.538c-0.154,0.517-0.24,1.062-0.24,1.629c0,0.231,0.018,0.459,0.045,0.684l-0.084,0.996
						c0.16,0.235,0.34,0.445,0.533,0.637c0.889,2.006,2.893,3.406,5.229,3.406c3.16,0,5.723-2.562,5.723-5.723
						c0-0.258-0.021-0.51-0.055-0.76c0.49,0.138,1.006,0.216,1.539,0.216c3.162,0,5.723-2.562,5.723-5.723
						c0-0.825-0.178-1.607-0.492-2.316c-0.064-0.36-0.143-0.728-0.244-1.109c-1.244-4.663,2.748-2.406,3.65-8.122
						S60.01,34.864,60.01,34.864"/>
					<path fill="#010202" stroke="#FFFFFF" stroke-width="0.85" stroke-linecap="round" stroke-miterlimit="10" d="M52.896,39.383
						c0,7.698-6.213,13.996-13.804,13.996l0,0c-7.594,0-13.807-6.298-13.807-13.996"/>
					<path fill="#010202" stroke="#FFFFFF" stroke-width="0.85" stroke-linecap="round" stroke-miterlimit="10" d="M49.914,52.571
						c2.709-3.633,3.484-13.963,2.609-20.176"/>
					<path fill="#010202" stroke="#FFFFFF" stroke-width="0.85" stroke-linecap="round" stroke-miterlimit="10" d="M31.896,51.539
						L31.78,58.07l0.575,0.7c1.631,2.118,4.151,3.478,6.98,3.478c2.828,0,5.348-1.358,6.979-3.476"/>
				</g>
				<path fill="#010202" stroke="#FFFFFF" stroke-width="0.85" stroke-linecap="round" stroke-miterlimit="10" d="M55.947,31.855
					c-5.865,1.354-13.688,0.752-18.8-3.31"/>
				<g>
					<g>
						<path fill="#010202" stroke="#FFFFFF" stroke-width="0.85" stroke-linecap="round" stroke-miterlimit="10" d="M48.205,34.776
							c-0.254-1.042-1.188-1.818-2.307-1.818c-1.121,0-2.053,0.776-2.307,1.818"/>
						<path fill="#010202" stroke="#FFFFFF" stroke-width="0.85" stroke-linecap="round" stroke-miterlimit="10" d="M47.152,33.278
							c0,0,1.229,0.307,1.459-0.883"/>
						<path fill="#010202" stroke="#FFFFFF" stroke-width="0.85" stroke-linecap="round" stroke-miterlimit="10" d="M47.947,33.986
							c0,0,1.102,0.629,1.645-0.455"/>
					</g>
					<g>
						<path fill="#010202" stroke="#FFFFFF" stroke-width="0.85" stroke-linecap="round" stroke-miterlimit="10" d="M35.231,34.774
							c-0.254-1.041-1.186-1.816-2.305-1.816s-2.051,0.775-2.305,1.816"/>
						<path fill="#010202" stroke="#FFFFFF" stroke-width="0.85" stroke-linecap="round" stroke-miterlimit="10" d="M31.668,33.278
							c0,0-1.228,0.307-1.458-0.883"/>
						<path fill="#010202" stroke="#FFFFFF" stroke-width="0.85" stroke-linecap="round" stroke-miterlimit="10" d="M30.872,33.986
							c0,0-1.098,0.628-1.643-0.455"/>
					</g>
				</g>
				<path fill="#010202" stroke="#FFFFFF" stroke-width="0.85" stroke-linecap="round" stroke-miterlimit="10" d="M39.486,39.783
					c0,0,0.988-0.244,0.988-0.651s-0.988-3.913-0.988-3.913"/>
				<path fill="#010202" stroke="#FFFFFF" stroke-width="0.85" stroke-linecap="round" stroke-miterlimit="10" d="M33.417,43.156
					c0.568,1.574,2.842,3.836,5.918,3.836c3.075,0,5.296-2.143,5.919-3.836H33.417z"/>
			</g>
		</g>
	</g>
</g>
</svg>
