<?xml version="1.0" encoding="utf-8"?>
<!-- Generator: Adobe Illustrator 16.0.0, SVG Export Plug-In . SVG Version: 6.00 Build 0)  -->
<!DOCTYPE svg PUBLIC "-//W3C//DTD SVG 1.1//EN" "http://www.w3.org/Graphics/SVG/1.1/DTD/svg11.dtd">
<svg version="1.1" id="Ebene_1" xmlns="http://www.w3.org/2000/svg" xmlns:xlink="http://www.w3.org/1999/xlink" x="0px" y="0px"
	 width="20.43px" height="12.61px" viewBox="698.589 -55.823 20.43 12.61" enable-background="new 698.589 -55.823 20.43 12.61"
	 xml:space="preserve">
<title>02_Dialog01_button</title>
<g id="Ebene_2">
	<g id="Illu">
		<path d="M55.191,98.253h1799.031c29.729,0,53.828,24.1,53.828,53.828v775.874c0,29.728-24.1,53.827-53.828,53.827H55.191
			c-29.729,0-53.828-24.1-53.828-53.827V152.081C1.364,122.353,25.463,98.253,55.191,98.253z"/>
		<text transform="matrix(1 0 0 1 578.5059 271.291)" font-family="'ArialMT'" font-size="43.0622">SmartCi</text>
		<text transform="matrix(1 0 0 1 777.7754 271.291)" font-family="'ArialMT'" font-size="43.0622">t</text>
		<text transform="matrix(1 0 0 1 797.7637 271.291)" font-family="'ArialMT'" font-size="43.0622">y Car Sharing</text>
		<text transform="matrix(1 0 0 1 578.5059 400.4785)" font-family="'ArialMT'" font-size="43.0622">W</text>
		<text transform="matrix(1 0 0 1 642.918 400.4785)" font-family="'ArialMT'" font-size="43.0622">el</text>
		<text transform="matrix(1 0 0 1 702.166 400.4785)" font-family="'ArialMT'" font-size="43.0622">c</text>
		<text transform="matrix(1 0 0 1 741.4961 400.4785)" font-family="'ArialMT'" font-size="43.0622">ome! </text>
		<text transform="matrix(1 0 0 1 935.5625 400.4785)" font-family="'ArialMT'" font-size="43.0622">P</text>
		<text transform="matrix(1 0 0 1 982.5723 400.4785)" font-family="'ArialMT'" font-size="43.0622">r</text>
		<text transform="matrix(1 0 0 1 1010.168 400.4785)" font-family="'ArialMT'" font-size="43.0622">es</text>
		<text transform="matrix(1 0 0 1 1087.9668 400.4785)" font-family="'ArialMT'" font-size="43.0622">s unlock </text>
		<text transform="matrix(1 0 0 1 1389.2227 400.4785)" font-family="'ArialMT'" font-size="43.0622">t</text>
		<text transform="matrix(1 0 0 1 1416.0996 400.4785)" font-family="'ArialMT'" font-size="43.0622">o submit </text>
		<text transform="matrix(1 0 0 1 578.5059 504.5449)" font-family="'ArialMT'" font-size="43.0622">y</text>
		<text transform="matrix(1 0 0 1 616.041 504.5449)" font-family="'ArialMT'" font-size="43.0622">our ID and en</text>
		<text transform="matrix(1 0 0 1 1073.3613 504.5449)" font-family="'ArialMT'" font-size="43.0622">t</text>
		<text transform="matrix(1 0 0 1 1100.2402 504.5449)" font-family="'ArialMT'" font-size="43.0622">er </text>
		<text transform="matrix(1 0 0 1 1188.1934 504.5449)" font-family="'ArialMT'" font-size="43.0622">y</text>
		<text transform="matrix(1 0 0 1 1225.7305 504.5449)" font-family="'ArialMT'" font-size="43.0622">our </text>
		<text transform="matrix(1 0 0 1 1359.7969 504.5449)" font-family="'ArialMT'" font-size="43.0622">v</text>
		<text transform="matrix(1 0 0 1 1396.2559 504.5449)" font-family="'ArialMT'" font-size="43.0622">ehicl</text>
		<text transform="matrix(1 0 0 1 1557.3809 504.5449)" font-family="'ArialMT'" font-size="43.0622">e</text>
		<text transform="matrix(1 0 0 1 1597.0703 504.5449)" font-family="'ArialMT'" font-size="43.0622">.</text>
		<text transform="matrix(1 0 0 1 750.8613 758.2539)" font-family="'ArialMT'" font-size="43.0622">Unlock</text>
		<rect x="578.505" y="642.739" width="641.16" height="193.78"/>
		<line fill="none" x1="1053.373" y1="739.629" x2="1119.187" y2="739.629"/>
		<polyline points="1099.127,759.653 1119.187,739.629 1099.127,719.569 		"/>
		<path d="M149.498,217.5h249.115c21.899,0,39.653,17.753,39.653,39.653v249.114c0,21.9-17.754,39.653-39.653,39.653H149.498
			c-21.9,0-39.653-17.753-39.653-39.653V257.153C109.845,235.253,127.598,217.5,149.498,217.5z"/>
		<path d="M394.414,401.196v-0.251h6.388c3.588,0,5.849-2.404,5.849-3.589v-16.399c0-2.835,0-6.711-1.83-8.361
			c-1.22-1.112-3.588-3.051-3.947-3.373c-0.358-0.323-0.646-3.302-0.969-4.988c-0.538-2.548-1.866-4.629-7.177-7.536
			c-8.159-4.068-16.546-7.663-25.12-10.766l0,0h-7.571c-28.708-17.942-43.062-24.294-54.402-28.421h-0.431
			c-5.849-2.117-4.88-4.558-39.904-3.983c-46.65,0.754-67.644,7.178-67.895,7.393l-1.651,0.359
			c-1.363,0.251-2.261,0.431-2.261,1.363s1.615,2.081,2.225,2.512l-19.234,18.194l0,0c0,0-0.502,1.22-1.759,4.7
			c-0.893,3.227-1.351,6.558-1.363,9.904c-3.015,1.113-4.234,2.44-4.234,4.558c0,0.538,0,1.615,0,2.979
			c0,4.199-0.215,10.551,0,12.524c0.358,2.583,2.548,13.564,3.301,16.543c0.574,2.332,6.172,5.634,8.182,6.746 M243.194,401.304
			h86.95"/>
		<circle cx="211.364" cy="393.014" r="23.577"/>
		<path d="M243.373,401.232c4.539-17.681-6.114-35.692-23.794-40.23c-2.684-0.689-5.444-1.038-8.215-1.038"/>
		<path d="M330.144,401.232c-2.24-8.777-0.787-18.088,4.019-25.766"/>
		<circle cx="362.261" cy="393.014" r="23.577"/>
		<path d="M334.271,345.682c0,0-96.89-0.215-99.33-1.292c-2.44-1.076-2.404-18.301,0-20.849s56.017-6.747,69.438,0"/>
		<line fill="none" x1="266.699" y1="320.132" x2="273.337" y2="345.358"/>
		<path d="M195.933,348.553h-6.639c-25.349,0-45.897,20.549-45.897,45.896c0,25.349,20.549,45.897,45.897,45.897l0,0h98.577"/>
		<line fill="none" x1="287.871" y1="429.797" x2="253.277" y2="429.797"/>
		<line fill="none" x1="287.871" y1="450.933" x2="253.277" y2="450.933"/>
		<circle cx="195.933" cy="348.552" r="3.732"/>
		<path d="M273.553,453.624h-28.708c-5.634,0-10.048-6.136-10.048-13.923s4.414-13.888,10.048-13.924h28.708V453.624z"/>
		<path d="M244.593,453.589v-27.775c-5.455,0.287-9.653,6.28-9.653,13.888S239.139,453.302,244.593,453.589z"/>
		<path d="M244.988,453.624h9.258v-27.847h-9.653v27.812L244.988,453.624z"/>
		<rect x="254.247" y="425.777" width="9.653" height="27.847"/>
		<g>
			<rect x="230.813" y="421.794" width="42.667" height="35.777"/>
			<rect x="262.787" y="421.794" width="10.658" height="35.777"/>
			<rect x="252.129" y="421.794" width="10.658" height="35.777"/>
			<rect x="241.471" y="421.794" width="10.658" height="35.777"/>
		</g>
	</g>
</g>
<g>
	<line fill="none" stroke="#1e9b83" stroke-miterlimit="10" x1="698.589" y1="-49.512" x2="718.589" y2="-49.512"/>
	<polyline fill="none" stroke="#1e9b83" stroke-miterlimit="10" points="712.494,-43.427 718.589,-49.512 712.494,-55.608 	"/>
</g>
</svg>
