<?xml version="1.0" encoding="utf-8"?>
<!-- Generator: Adobe Illustrator 20.1.0, SVG Export Plug-In . SVG Version: 6.00 Build 0)  -->
<svg version="1.1" id="Ebene_1" xmlns="http://www.w3.org/2000/svg" xmlns:xlink="http://www.w3.org/1999/xlink" x="0px" y="0px"
	 viewBox="0 0 1022 500" style="enable-background:new 0 0 1022 500;" xml:space="preserve">
<style type="text/css">
	.st0{display:none;fill:#721111;stroke:#000000;stroke-miterlimit:10;}
	.st1{fill:none;stroke:#FFFFFF;stroke-width:0.85;stroke-linecap:round;stroke-miterlimit:10;}
	.st2{stroke:#FFFFFF;stroke-miterlimit:10;}
</style>
<rect x="-165.5" y="-103.5" class="st0" width="1488" height="952"/>
<g>
	<path d="M1055.8,164.2c0,0-43.3-4.5-64.3-8.9C916.4,132.9,818.2,39.7,806,27.5c-6.1-5.7-13.2-9.9-22.9-13.2
		c-0.7-0.2-1.4-0.5-2.1-0.7c-3.6-1.1-7.5-2.1-11.9-3c-0.9-0.2-1.8-0.4-2.7-0.5c-1.8-0.3-3.7-0.7-5.6-1c-8.8-1.4-19-2.5-31.2-3.4
		c-3.8-0.3-7.8-0.6-12.1-0.8c-1.4-0.1-2.9-0.2-4.3-0.2c-4.4-0.2-9.1-0.5-14-0.7c-2.5-0.1-5-0.2-7.6-0.3c-0.9,0-1.7-0.1-2.6-0.1
		c-1.8-0.1-3.6-0.1-5.4-0.2c-1.8-0.1-3.7-0.1-5.6-0.2c-1.9-0.1-3.8-0.1-5.8-0.2c-5.9-0.2-12-0.3-18.5-0.5c-2.2,0-4.4-0.1-6.6-0.1
		c-2.2,0-4.5-0.1-6.8-0.1s-4.6-0.1-7-0.1s-4.8-0.1-7.2-0.1C621.2,2,616.2,2,611,1.9c-1.3,0-2.6,0-3.9,0c-4,0-8-0.1-12.1-0.1
		c-8.3-0.1-16.9-0.1-25.9-0.2c-3,0-6.1,0-9.2,0c-15.5-0.1-32-0.1-49.7-0.1c-113.4,0-179,1.3-219.6,4.3c-12.1,0.9-22.4,2-31.2,3.4
		c-2,0.3-3.8,0.6-5.6,1c-0.9,0.2-1.8,0.3-2.7,0.5c-4.4,0.9-8.3,1.9-11.9,3c-0.7,0.2-1.4,0.4-2.1,0.7c-9.7,3.3-16.8,7.5-22.9,13.2
		C201.8,39.7,103.6,132.9,28.5,155.2l-16,3.1l-15.3,1.3l-29.7,4.9l1.7,373.7l1088.7,4L1055.8,164.2z M878.5,228.8
		c-6,26.7-14.7,56.7-21.3,78.7c-6.7,22-20,43.3-82.7,43.3c-12.2,0-29.5,0-49.3,0l0,0l0,0l-429.3,0.8c-19.9,0-38.1-0.7-50.3-0.7
		c-62.7,0-76-21.3-82.7-43.3s-15.3-52-21.3-78.7s-4-45.3,6-60.7c10-15.3,73.3-106,86.9-118.7s49.8-18,275.6-18s262,5.3,275.6,18
		c13.6,12.7,76.9,103.3,86.9,118.7C882.5,183.4,884.5,202.1,878.5,228.8z"/>
	<path class="st1" d="M1032.9,161.5c0,0-32-3.4-41.3-6.3C916.4,132.9,818.2,39.7,806,27.5l0,0c-6.1-5.7-13.2-9.9-22.9-13.2
		c-0.7-0.2-1.4-0.5-2.1-0.7c-3.6-1.1-7.5-2.1-11.9-3c-0.9-0.2-1.8-0.4-2.7-0.5c-1.8-0.3-3.7-0.7-5.6-1c-8.8-1.4-19-2.5-31.2-3.4
		c-3.8-0.3-7.8-0.6-12.1-0.8c-1.4-0.1-2.9-0.2-4.3-0.2c-4.4-0.2-9.1-0.5-14-0.7c-2.5-0.1-5-0.2-7.6-0.3c-0.9,0-1.7-0.1-2.6-0.1
		c-1.8-0.1-3.6-0.1-5.4-0.2c-1.8-0.1-3.7-0.1-5.6-0.2c-1.9-0.1-3.8-0.1-5.8-0.2c-5.9-0.2-12-0.3-18.5-0.5c-2.2,0-4.4-0.1-6.6-0.1
		c-2.2,0-4.5-0.1-6.8-0.1s-4.6-0.1-7-0.1s-4.8-0.1-7.2-0.1C621.2,2,616.2,2,611,1.9c-1.3,0-2.6,0-3.9,0c-4,0-8-0.1-12.1-0.1
		c-8.3-0.1-16.9-0.1-25.9-0.2c-3,0-6.1,0-9.2,0c-15.5-0.1-32-0.1-49.7-0.1c-113.4,0-179,1.3-219.6,4.3c-12.1,0.9-22.4,2-31.2,3.4
		c-2,0.3-3.8,0.6-5.6,1c-0.9,0.2-1.8,0.3-2.7,0.5c-4.4,0.9-8.3,1.9-11.9,3c-0.7,0.2-1.4,0.4-2.1,0.7c-9.7,3.3-16.8,7.5-22.9,13.2
		l0,0C201.8,39.7,103.6,132.9,28.5,155.2c0,0-16.8,4.4-31.9,4.4"/>
	<path class="st1" d="M725.1,350.8c0,0,37.1,0,49.3,0c62.7,0,76-21.3,82.7-43.3s15.3-52,21.3-78.7s4-45.3-6-60.7
		c-10-15.3-73.3-106-86.9-118.7c-13.6-12.7-49.8-18-275.6-18s-262,5.3-275.6,18s-76.9,103.3-86.9,118.7c-10,15.3-12,34-6,60.7
		s14.7,56.7,21.3,78.7c6.7,22,20,43.3,82.7,43.3c12.2,0,49.3,0,49.3,0H725.1"/>
</g>
<path class="st2" d="M960.3,694.4c-26.5-224.7-217.5-399-449.3-399c-231.5,0-422.4,173.8-449.2,398.1c-2.1,17.8,70.4-20.8,70.4-2.4
	l0.6,0C160.1,506.9,319.1,365.4,511,365.4s350.9,141.4,378.2,325.7l73.6,16.7l-1.1,0.7C961.3,703.8,960.9,699.1,960.3,694.4z"/>
<path class="st1" d="M726.1,349.8L726.1,349.8c19.9,0,37.1,0,49.3,0c62.7,0,76-21.3,82.7-43.3c6.7-22,15.3-52,21.3-78.7
	c6-26.7,4-45.3-6-60.7c-10-15.3-73.3-106-86.9-118.7c-13.6-12.7-49.8-18-275.6-18c-225.8,0-262,5.3-275.6,18
	c-13.6,12.7-76.9,103.3-86.9,118.7c-10,15.3-12,34-6,60.7c6,26.7,14.7,56.7,21.3,78.7c6.7,22,20,43.3,82.7,43.3
	c12.2,0,29.5,0,49.3,0l0,0"/>
</svg>
