<svg xmlns="http://www.w3.org/2000/svg" xmlns:xlink="http://www.w3.org/1999/xlink" viewBox="0 0 85.77 108.47"><defs><style>.cls-1,.cls-2{fill:none;}.cls-2{stroke:#fff;stroke-linecap:round;stroke-miterlimit:10;stroke-width:1.5px;}.cls-3{clip-path:url(#clip-path);}.cls-4{fill:#e35500;}.cls-5,.cls-6,.cls-7{fill:#f0ab00;}.cls-6{opacity:0.7;}.cls-7{opacity:0.4;}</style><clipPath id="clip-path" transform="translate(0 0)"><path class="cls-1" d="M43.25,0A40.82,40.82,0,0,0,2.4,40.8c0,35,40.85,66,40.85,66s40.85-30.06,40.85-66A40.82,40.82,0,0,0,43.25,0m0,54.69A13.89,13.89,0,1,1,57.15,40.8,13.9,13.9,0,0,1,43.25,54.69"/></clipPath></defs><title>Icon_Pin</title><g id="Ebene_2" data-name="Ebene 2"><g id="Illu"><line class="cls-2" x1="9.69" y1="107.72" x2="73.34" y2="107.72"/><g class="cls-3"><rect class="cls-4" x="0.01" width="85.76" height="107.62"/><rect class="cls-5" y="0.01" width="85.75" height="26.9"/><rect class="cls-6" y="26.91" width="85.75" height="26.9"/><rect class="cls-7" y="53.81" width="85.75" height="26.9"/></g></g></g></svg>