<?xml version="1.0" encoding="utf-8"?>
<!-- Generator: Adobe Illustrator 16.0.0, SVG Export Plug-In . SVG Version: 6.00 Build 0)  -->
<!DOCTYPE svg PUBLIC "-//W3C//DTD SVG 1.1//EN" "http://www.w3.org/Graphics/SVG/1.1/DTD/svg11.dtd">
<svg version="1.1" id="Ebene_1" xmlns="http://www.w3.org/2000/svg" xmlns:xlink="http://www.w3.org/1999/xlink" x="0px" y="0px"
	 width="48.394px" height="8.417px" viewBox="0 0 48.394 8.417" enable-background="new 0 0 48.394 8.417" xml:space="preserve">
<g>
	<path fill="#FFFFFF" d="M45.394,1c1.103,0,2,0.897,2,2v2.417c0,1.103-0.897,2-2,2H3c-1.103,0-2-0.897-2-2V3c0-1.103,0.897-2,2-2
		H45.394 M45.394,0H3C1.351,0,0,1.35,0,3v2.417c0,1.65,1.351,3,3,3h42.394c1.65,0,3-1.35,3-3V3C48.394,1.35,47.044,0,45.394,0
		L45.394,0z"/>
</g>
</svg>
