<?xml version="1.0" encoding="utf-8"?>
<!-- Generator: Adobe Illustrator 16.0.0, SVG Export Plug-In . SVG Version: 6.00 Build 0)  -->
<!DOCTYPE svg PUBLIC "-//W3C//DTD SVG 1.1//EN" "http://www.w3.org/Graphics/SVG/1.1/DTD/svg11.dtd">
<svg version="1.1" id="Ebene_1" xmlns="http://www.w3.org/2000/svg" xmlns:xlink="http://www.w3.org/1999/xlink" x="0px" y="0px"
	 width="92.271px" height="92.271px" viewBox="0 0 92.271 92.271" enable-background="new 0 0 92.271 92.271" xml:space="preserve">
<g>
	<path fill="none" stroke="#7C7C7D" stroke-width="0.75" stroke-miterlimit="10" d="M80.844,91.896H11.427
		c-6.079,0-11.052-4.974-11.052-11.052V11.428c0-6.079,4.974-11.053,11.052-11.053h69.417c6.079,0,11.052,4.974,11.052,11.053
		v69.416C91.896,86.922,86.922,91.896,80.844,91.896z"/>
	<g>
		<defs>
			<path id="SVGID_1_" d="M71.811,70.256c0,0.888-0.721,1.608-1.609,1.608h-48.54c-0.889,0-1.609-0.721-1.609-1.608V23.607
				c0-0.888,0.72-1.608,1.609-1.608h48.54c0.889,0,1.609,0.721,1.609,1.608V70.256z"/>
		</defs>
		<clipPath id="SVGID_2_">
			<use xlink:href="#SVGID_1_"  overflow="visible"/>
		</clipPath>
		<rect x="19.878" y="21.854" clip-path="url(#SVGID_2_)" fill="#E25610" width="52.223" height="11.738"/>
		<rect x="59.041" y="21.852" clip-path="url(#SVGID_2_)" fill="#F0AB02" width="13.053" height="11.738"/>
		<rect x="45.988" y="21.852" opacity="0.7" clip-path="url(#SVGID_2_)" fill="#F0AB02" width="13.053" height="11.738"/>
		<rect x="32.935" y="21.852" opacity="0.4" clip-path="url(#SVGID_2_)" fill="#F0AB02" width="13.053" height="11.738"/>
	</g>
	<path fill="none" stroke="#010202" stroke-width="0.85" stroke-linecap="round" stroke-miterlimit="10" d="M71.243,33.715"/>
	<path fill="none" stroke="#010202" stroke-width="0.85" stroke-linecap="round" stroke-miterlimit="10" d="M20.62,33.715"/>
	<circle fill="#FFFFFF" cx="28.687" cy="48.707" r="0.815"/>
	<circle fill="#FFFFFF" cx="35.494" cy="48.707" r="0.814"/>
	<circle fill="#FFFFFF" cx="42.301" cy="48.707" r="0.814"/>
	<circle fill="#FFFFFF" cx="49.109" cy="48.707" r="0.815"/>
	<circle fill="#FFFFFF" cx="28.687" cy="41.898" r="0.815"/>
	<circle fill="#FFFFFF" cx="35.494" cy="41.898" r="0.814"/>
	<circle fill="#FFFFFF" cx="42.301" cy="41.898" r="0.814"/>
	<circle fill="#FFFFFF" cx="49.109" cy="41.898" r="0.815"/>
	<circle fill="#FFFFFF" cx="28.687" cy="55.514" r="0.815"/>
	<circle fill="#FFFFFF" cx="35.494" cy="55.514" r="0.814"/>
	<circle fill="#FFFFFF" cx="42.301" cy="55.514" r="0.814"/>
	<circle fill="#FFFFFF" cx="49.109" cy="55.514" r="0.815"/>
	<circle fill="#FFFFFF" cx="28.687" cy="62.322" r="0.815"/>
	<circle fill="#FFFFFF" cx="35.494" cy="62.322" r="0.814"/>
	<circle fill="#FFFFFF" cx="42.301" cy="62.322" r="0.814"/>
	<circle fill="#FFFFFF" cx="49.109" cy="62.322" r="0.815"/>
	<circle fill="#FFFFFF" cx="55.916" cy="48.707" r="0.815"/>
	<circle fill="#FFFFFF" cx="62.724" cy="48.707" r="0.814"/>
	<circle fill="#FFFFFF" cx="55.916" cy="41.898" r="0.815"/>
	<circle fill="#FFFFFF" cx="62.724" cy="41.898" r="0.814"/>
	<circle fill="#FFFFFF" cx="55.916" cy="55.514" r="0.815"/>
	<circle fill="#FFFFFF" cx="62.724" cy="55.514" r="0.814"/>
	<circle fill="#FFFFFF" cx="55.916" cy="62.322" r="0.815"/>
	<path fill="none" stroke="#FFFFFF" stroke-width="0.85" stroke-linecap="round" stroke-miterlimit="10" d="M30.583,27.867
		c0,1.271,1.03,2.301,2.301,2.301s2.301-1.03,2.301-2.301"/>
	
		<line fill="none" stroke="#FFFFFF" stroke-width="0.85" stroke-linecap="round" stroke-miterlimit="10" x1="32.884" y1="27.867" x2="32.884" y2="17.956"/>
	<path fill="none" stroke="#FFFFFF" stroke-width="0.85" stroke-linecap="round" stroke-miterlimit="10" d="M56.677,27.867
		c0,1.271,1.03,2.301,2.302,2.301c1.27,0,2.3-1.03,2.3-2.301"/>
	
		<line fill="none" stroke="#FFFFFF" stroke-width="0.85" stroke-linecap="round" stroke-miterlimit="10" x1="58.979" y1="27.867" x2="58.979" y2="17.956"/>
	<path fill="none" stroke="#FFFFFF" stroke-width="0.85" stroke-linecap="round" stroke-miterlimit="10" d="M20.62,69.646
		c0,0.869,0.704,1.573,1.573,1.573h47.476c0.869,0,1.574-0.704,1.574-1.573V33.671H20.62V69.646z"/>
</g>
</svg>
