<?xml version="1.0" encoding="utf-8"?>
<!-- Generator: Adobe Illustrator 16.0.0, SVG Export Plug-In . SVG Version: 6.00 Build 0)  -->
<!DOCTYPE svg PUBLIC "-//W3C//DTD SVG 1.1//EN" "http://www.w3.org/Graphics/SVG/1.1/DTD/svg11.dtd">
<svg version="1.1" id="Ebene_1" xmlns="http://www.w3.org/2000/svg" xmlns:xlink="http://www.w3.org/1999/xlink" x="0px" y="0px"
	 width="92.271px" height="92.271px" viewBox="0 0 92.271 92.271" enable-background="new 0 0 92.271 92.271" xml:space="preserve">
<g>
	<path fill="none" stroke="#7C7C7D" stroke-width="0.75" stroke-miterlimit="10" d="M80.844,91.896H11.428
		c-6.079,0-11.053-4.975-11.053-11.053V11.427c0-6.079,4.974-11.052,11.053-11.052h69.416c6.078,0,11.052,4.974,11.052,11.052
		v69.416C91.896,86.921,86.922,91.896,80.844,91.896z"/>
	<path fill="none" stroke="#FFFFFF" stroke-width="0.85" stroke-linecap="round" stroke-miterlimit="10" d="M79.675,51.565v-0.071
		c0.916-0.031,1.627-0.05,1.775-0.05c1.01,0,1.627-0.673,1.627-1.038v-4.487c0-0.789,0-1.869-0.512-2.33
		c-0.345-0.31-0.99-0.853-1.098-0.942c-0.025-0.134-0.175-0.923-0.273-1.388c-0.151-0.714-0.521-1.287-1.963-2.102
		c-2.073-1.172-6.936-2.934-6.984-2.951l-0.018-0.003l-2.113-0.033c-7.978-5.019-12.001-6.773-15.161-7.922l-0.116-0.042
		c-1.627-0.594-1.356-1.267-11.118-1.107c-12.963,0.212-18.845,2.046-18.918,2.065c-0.173,0.043-0.327,0.072-0.464,0.099
		c-0.377,0.071-0.626,0.119-0.626,0.381c0,0.271,0.446,0.585,0.62,0.697l-5.36,5.068l-0.005,0.011
		c-0.001,0.003-0.135,0.339-0.491,1.312c-0.335,0.912-0.375,2.489-0.38,2.763c-0.835,0.311-1.177,0.679-1.177,1.267
		c0,0.152-0.006,0.451-0.015,0.829c-0.024,1.172-0.062,2.944,0.016,3.485c0.104,0.723,0.715,3.781,0.922,4.609
		c0.161,0.648,1.721,1.571,2.284,1.882 M37.569,51.565h24.225"/>
	
		<circle fill="none" stroke="#FFFFFF" stroke-width="0.85" stroke-linecap="round" stroke-miterlimit="10" cx="28.664" cy="49.277" r="6.565"/>
	<path fill="none" stroke="#FFFFFF" stroke-width="0.85" stroke-linecap="round" stroke-miterlimit="10" d="M37.581,51.569
		c0.188-0.733,0.287-1.501,0.287-2.292c0-5.083-4.12-9.205-9.204-9.205"/>
	<path fill="none" stroke="#FFFFFF" stroke-width="0.85" stroke-linecap="round" stroke-miterlimit="10" d="M61.794,51.569
		c-0.188-0.733-0.287-1.501-0.287-2.292c0-1.796,0.514-3.472,1.404-4.889"/>
	
		<circle fill="none" stroke="#FFFFFF" stroke-width="0.85" stroke-linecap="round" stroke-miterlimit="10" cx="70.711" cy="49.277" r="6.565"/>
	<path fill="none" stroke="#FFFFFF" stroke-width="0.85" stroke-linecap="round" stroke-miterlimit="10" d="M62.911,36.09
		c0,0-27.025-0.056-27.682-0.364c-0.656-0.308-0.665-5.104,0-5.814c0.666-0.71,15.605-1.878,19.35,0.016"/>
	
		<line fill="none" stroke="#FFFFFF" stroke-width="0.85" stroke-linecap="round" stroke-miterlimit="10" x1="44.082" y1="28.973" x2="45.931" y2="36.003"/>
	<g>
		<g>
			<path fill="none" stroke="#FFFFFF" stroke-width="0.85" stroke-linecap="round" stroke-miterlimit="10" d="M24.357,36.892h-1.853
				c-7.063,0-12.791,5.727-12.791,12.791c0,7.064,5.728,12.792,12.791,12.792h27.471"/>
			<g>
				
					<line fill="none" stroke="#FFFFFF" stroke-width="0.85" stroke-linecap="round" stroke-miterlimit="10" x1="49.976" y1="59.529" x2="40.337" y2="59.529"/>
				
					<line fill="none" stroke="#FFFFFF" stroke-width="0.85" stroke-linecap="round" stroke-miterlimit="10" x1="49.976" y1="65.421" x2="40.337" y2="65.421"/>
			</g>
			
				<circle fill="none" stroke="#FFFFFF" stroke-width="0.85" stroke-linecap="round" stroke-miterlimit="10" cx="24.357" cy="36.892" r="1.039"/>
		</g>
		<g>
			<path fill="#118ECE" d="M45.993,66.167l-7.966-0.001c-1.572-0.003-2.803-1.706-2.803-3.878c0-2.171,1.23-3.874,2.802-3.877h7.967
				V66.167z"/>
		</g>
		<path fill="#F0AB02" d="M37.916,66.159v-7.739c-1.518,0.081-2.691,1.75-2.691,3.869S36.397,66.077,37.916,66.159z"/>
		<path opacity="0.7" fill="#F0AB02" d="M38.027,66.167h2.582v-7.755h-2.583c-0.037,0-0.072,0.006-0.108,0.008v7.74
			C37.954,66.162,37.99,66.167,38.027,66.167z"/>
		<rect x="40.607" y="58.412" opacity="0.4" fill="#F0AB02" width="2.691" height="7.756"/>
	</g>
	<g>
		<defs>
			<path id="SVGID_1_" d="M39.063,57.301c-2.754,0-4.987,2.233-4.987,4.987c0,2.755,2.233,4.988,4.987,4.988h6.902v-9.976H39.063z"
				/>
		</defs>
		<clipPath id="SVGID_2_">
			<use xlink:href="#SVGID_1_"  overflow="visible"/>
		</clipPath>
		<g clip-path="url(#SVGID_2_)">
			<rect x="34.075" y="57.302" fill="#148ECF" width="11.891" height="9.974"/>
			<g>
				<rect x="42.992" y="57.301" fill="#F0AB02" width="2.972" height="9.973"/>
				<rect x="40.021" y="57.301" opacity="0.7" fill="#F0AB02" width="2.972" height="9.973"/>
				<rect x="37.048" y="57.301" opacity="0.4" fill="#F0AB02" width="2.973" height="9.973"/>
			</g>
		</g>
	</g>
</g>
</svg>
