<svg xmlns="http://www.w3.org/2000/svg" viewBox="0 0 102.6 108.47"><defs><style>.cls-1{fill:none;stroke:#fff;stroke-linecap:round;stroke-miterlimit:10;stroke-width:1.5px;}.cls-2{fill:#4fb81c;}.cls-3,.cls-4,.cls-5{fill:#f0ab00;}.cls-4{opacity:0.7;}.cls-5{opacity:0.4;}</style></defs><title>Icon_Note</title><g id="Ebene_2" data-name="Ebene 2"><g id="Illu"><path class="cls-1" d="M26.61,78.38a16.24,16.24,0,1,0,6.64,13.08V24.63H26.61Z"/><path class="cls-1" d="M95.13,6.78V60.53a16.24,16.24,0,1,0,6.64,13.08V6.78Z"/><polygon class="cls-2" points="25.85 19.89 102.6 0 102.6 29.37 25.85 49.26 25.85 19.89"/><polygon class="cls-3" points="83.41 4.97 102.59 0 102.59 29.37 83.41 34.34 83.41 4.97"/><polygon class="cls-4" points="64.22 9.94 83.41 4.97 83.41 34.34 64.22 39.31 64.22 9.94"/><polygon class="cls-5" points="45.04 14.91 64.22 9.94 64.22 39.31 45.04 44.28 45.04 14.91"/></g></g></svg>