<svg xmlns="http://www.w3.org/2000/svg" xmlns:xlink="http://www.w3.org/1999/xlink" viewBox="0 0 104.35 107.93"><defs><style>.cls-1,.cls-7,.cls-9{fill:none;}.cls-2{clip-path:url(#clip-path);}.cls-3{fill:#008fd3;}.cls-4,.cls-5,.cls-6{fill:#f0ab00;}.cls-5{opacity:0.7;}.cls-6{opacity:0.4;}.cls-7{stroke:#000;}.cls-7,.cls-9{stroke-linecap:round;stroke-miterlimit:10;stroke-width:1.5px;}.cls-8{fill:#fff;}.cls-9{stroke:#fff;}</style><clipPath id="clip-path"><rect class="cls-1" x="0.35" y="8.83" width="103.42" height="99.64" rx="3.21" ry="3.21"/></clipPath></defs><title>Icon_Calendar</title><g id="Ebene_2" data-name="Ebene 2"><g id="Illu"><g class="cls-2"><rect class="cls-3" y="8.54" width="104.35" height="23.46"/><rect class="cls-4" x="78.25" y="8.53" width="26.08" height="23.45"/><rect class="cls-5" x="52.17" y="8.53" width="26.08" height="23.45"/><rect class="cls-6" x="26.09" y="8.53" width="26.08" height="23.45"/></g><path class="cls-7" d="M102.63,32.24"/><path class="cls-7" d="M1.48,32.24"/><circle class="cls-8" cx="17.6" cy="62.19" r="1.63"/><circle class="cls-8" cx="31.2" cy="62.19" r="1.63"/><circle class="cls-8" cx="44.81" cy="62.19" r="1.63"/><circle class="cls-8" cx="58.41" cy="62.19" r="1.63"/><circle class="cls-8" cx="17.6" cy="48.59" r="1.63"/><circle class="cls-8" cx="31.2" cy="48.59" r="1.63"/><circle class="cls-8" cx="44.81" cy="48.59" r="1.63"/><circle class="cls-8" cx="58.41" cy="48.59" r="1.63"/><circle class="cls-8" cx="17.6" cy="75.8" r="1.63"/><circle class="cls-8" cx="31.2" cy="75.8" r="1.63"/><circle class="cls-8" cx="44.81" cy="75.8" r="1.63"/><circle class="cls-8" cx="58.41" cy="75.8" r="1.63"/><circle class="cls-8" cx="17.6" cy="89.4" r="1.63"/><circle class="cls-8" cx="31.2" cy="89.4" r="1.63"/><circle class="cls-8" cx="44.81" cy="89.4" r="1.63"/><circle class="cls-8" cx="58.41" cy="89.4" r="1.63"/><circle class="cls-8" cx="72.01" cy="62.19" r="1.63"/><circle class="cls-8" cx="85.61" cy="62.19" r="1.63"/><circle class="cls-8" cx="72.01" cy="48.59" r="1.63"/><circle class="cls-8" cx="85.61" cy="48.59" r="1.63"/><circle class="cls-8" cx="72.01" cy="75.8" r="1.63"/><circle class="cls-8" cx="85.61" cy="75.8" r="1.63"/><circle class="cls-8" cx="72.01" cy="89.4" r="1.63"/><path class="cls-9" d="M21.39,20.55a4.6,4.6,0,0,0,9.19,0"/><line class="cls-9" x1="25.99" y1="20.55" x2="25.99" y2="0.75"/><path class="cls-9" d="M73.53,20.55a4.6,4.6,0,0,0,9.19,0"/><line class="cls-9" x1="78.13" y1="20.55" x2="78.13" y2="0.75"/><path class="cls-9" d="M1.48,104a3.14,3.14,0,0,0,3.14,3.14H99.49a3.14,3.14,0,0,0,3.14-3.14V32.15H1.48Z"/></g></g></svg>