<svg xmlns="http://www.w3.org/2000/svg" xmlns:xlink="http://www.w3.org/1999/xlink" viewBox="0 0 95.08 90.35"><defs><style>.cls-1,.cls-2{fill:none;}.cls-2{stroke:#fff;stroke-linecap:round;stroke-miterlimit:10;stroke-width:0.85px;}.cls-3{clip-path:url(#clip-path);}.cls-4{fill:#f37021;}.cls-5,.cls-6,.cls-7{fill:#fdb913;}.cls-5{opacity:0.4;}.cls-6{opacity:0.7;}</style><clipPath id="clip-path"><polygon class="cls-1" points="43.16 70.62 17.64 44.84 29.95 32.66 43.3 46.15 82.35 7.28 94.52 19.61 43.16 70.62"/></clipPath></defs><title>Icon_check</title><g id="Ebene_2" data-name="Ebene 2"><g id="Illu"><path class="cls-2" d="M89.8,44.85A44.75,44.75,0,0,1,.43,48.48"/><path class="cls-2" d="M8.16,19.83a44.79,44.79,0,0,1,68.54-6.3A44.54,44.54,0,0,1,88.88,36.08"/><path class="cls-2" d="M.83,38.32A44.65,44.65,0,0,1,4.25,26.78"/><g class="cls-3"><polygon class="cls-4" points="17.67 70.85 17.41 6.65 94.82 6.7 95.08 70.89 17.67 70.85"/><polygon class="cls-5" points="56.38 70.87 56.12 6.67 75.47 6.68 75.73 70.88 56.38 70.87"/><polygon class="cls-6" points="37.02 70.86 36.76 6.66 56.12 6.67 56.38 70.87 37.02 70.86"/><polygon class="cls-7" points="17.67 70.85 17.41 6.65 36.76 6.66 37.02 70.86 17.67 70.85"/></g></g></g></svg>