<?xml version="1.0" encoding="utf-8"?>
<!-- Generator: Adobe Illustrator 16.0.0, SVG Export Plug-In . SVG Version: 6.00 Build 0)  -->
<!DOCTYPE svg PUBLIC "-//W3C//DTD SVG 1.1//EN" "http://www.w3.org/Graphics/SVG/1.1/DTD/svg11.dtd">
<svg version="1.1" id="Ebene_1" xmlns="http://www.w3.org/2000/svg" xmlns:xlink="http://www.w3.org/1999/xlink" x="0px" y="0px"
	 width="127.825px" height="135.824px" viewBox="0 0 127.825 135.824" enable-background="new 0 0 127.825 135.824"
	 xml:space="preserve">
<g>
	<g>
		<g>
			<g>
				<g>
					<path fill="none" stroke="#FFFFFF" stroke-width="0.85" stroke-linecap="round" stroke-miterlimit="10" d="M26.121,34.631
						v17.673c0,13.272,10.859,24.131,24.131,24.131h1.856c13.272,0,24.131-10.859,24.131-24.131V32.35"/>
					
						<line fill="none" stroke="#FFFFFF" stroke-width="0.85" stroke-linecap="round" stroke-miterlimit="10" x1="26.121" y1="34.284" x2="26.121" y2="48.901"/>
					<path fill="none" stroke="#FFFFFF" stroke-width="0.85" stroke-linecap="round" stroke-miterlimit="10" d="M76.239,48.901
						V28.947c0-13.272-10.858-24.131-24.131-24.131h-1.856c-0.927,0-1.842,0.053-2.742,0.156"/>
					<path fill="none" stroke="#FFFFFF" stroke-width="0.85" stroke-linecap="round" stroke-miterlimit="10" d="M26.121,40.006
						c-3.765,0-6.845,3.081-6.845,6.845s3.08,6.844,6.845,6.844"/>
					<path fill="none" stroke="#FFFFFF" stroke-width="0.85" stroke-linecap="round" stroke-miterlimit="10" d="M76.277,53.696
						c3.766,0,6.846-3.08,6.846-6.844s-3.08-6.845-6.846-6.845"/>
					<path fill="none" stroke="#FFFFFF" stroke-width="0.85" stroke-linecap="round" stroke-miterlimit="10" d="M25.967,34.592
						c0,0,4.949-13.303,22.274-13.303s27.998,12.839,27.998,12.839s-2.326-2.687-6.004-6.158
						c-4.031-3.805-9.388-8.801-13.486-13.642C48.628,4.738,38.341-4.852,23.027,3.81C7.713,12.473,13.746,25.621,25.967,34.592z"/>
					<g>
						<g>
							<g>
								<g>
									<g>
										<path fill="none" stroke="#FFFFFF" stroke-width="0.85" stroke-linecap="round" stroke-miterlimit="10" d="M39.158,58.252
											c0,0,1.614,9.345,11.57,9.345s11.57-9.345,11.57-9.345H39.158z"/>
									</g>
								</g>
							</g>
							<circle fill="#FFFFFF" cx="39.589" cy="43.404" r="2.13"/>
							<circle fill="#FFFFFF" cx="61.868" cy="43.404" r="2.13"/>
						</g>
					</g>
					<g>
						
							<line fill="none" stroke="#FFFFFF" stroke-width="0.85" stroke-linecap="round" stroke-miterlimit="10" x1="60.932" y1="74.793" x2="60.932" y2="82.127"/>
						
							<line fill="none" stroke="#FFFFFF" stroke-width="0.85" stroke-linecap="round" stroke-miterlimit="10" x1="41.41" y1="74.793" x2="41.41" y2="82.259"/>
						<path fill="none" stroke="#FFFFFF" stroke-width="0.85" stroke-linecap="round" stroke-miterlimit="10" d="M60.992,77.663
							l10.997-0.06c11.119-0.069,20.272,8.972,20.342,20.09l0.047,37.348"/>
						<path fill="none" stroke="#FFFFFF" stroke-width="0.85" stroke-miterlimit="10" d="M41.425,77.802l-13.236,0.073
							C17.07,77.943,8.029,87.097,8.099,98.215l0.047,37.348"/>
					</g>
					<path fill="none" stroke="#FFFFFF" stroke-width="0.85" stroke-linecap="round" stroke-miterlimit="10" d="M34.597,24.872
						c5.516-2.889,8.667,0.788,7.616,5.516c0,0,12.345,1.051,16.547-7.092"/>
				</g>
				<path fill="none" stroke="#FFFFFF" stroke-width="0.85" stroke-linecap="round" stroke-miterlimit="10" d="M41.39,81.971
					c0,5.393,4.371,9.764,9.764,9.764s9.764-4.372,9.764-9.764"/>
			</g>
			<g>
				
					<rect x="27.89" y="77.875" fill="none" stroke="#FFFFFF" stroke-width="0.85" stroke-linecap="round" stroke-miterlimit="10" width="6.438" height="32.678"/>
				
					<rect x="66.147" y="77.875" fill="none" stroke="#FFFFFF" stroke-width="0.85" stroke-linecap="round" stroke-miterlimit="10" width="6.438" height="32.678"/>
			</g>
			<polyline fill="none" stroke="#FFFFFF" stroke-width="0.85" stroke-miterlimit="10" points="72.488,104.95 82.236,104.95 
				82.236,135.301 			"/>
			
				<line fill="none" stroke="#FFFFFF" stroke-width="0.85" stroke-linecap="round" stroke-miterlimit="10" x1="34.406" y1="104.95" x2="65.922" y2="104.95"/>
			<polyline fill="none" stroke="#FFFFFF" stroke-width="0.85" stroke-miterlimit="10" points="18.239,135.301 18.239,104.95 
				27.708,104.95 			"/>
		</g>
		<g>
			<defs>
				<path id="SVGID_1_" d="M112.885,135.824V98.174c10.973-4.168,14.94-14.397,14.94-25.194c0-9.959-5.766-18.565-14.138-22.681
					v25.127H90.656V50.691c-7.957,4.255-13.373,12.636-13.373,22.29c0,10.749,3.898,20.929,14.794,25.136v37.707"/>
			</defs>
			<clipPath id="SVGID_2_">
				<use xlink:href="#SVGID_1_"  overflow="visible"/>
			</clipPath>
			<g clip-path="url(#SVGID_2_)">
				<rect x="76.462" y="50.447" fill="#57B031" width="51.771" height="85.627"/>
				<g>
					<rect x="76.455" y="50.456" fill="#F0AB02" width="51.769" height="18.614"/>
					<rect x="76.455" y="69.069" opacity="0.7" fill="#F0AB02" width="51.769" height="18.613"/>
					<rect x="76.455" y="87.683" opacity="0.4" fill="#F0AB02" width="51.769" height="18.613"/>
				</g>
			</g>
		</g>
		<path fill="none" stroke="#FFFFFF" stroke-width="0.85" stroke-miterlimit="10" d="M96.85,135.824v-32.106
			c0-3.15,2.553-5.703,5.704-5.703l0,0c3.15,0,5.704,2.553,5.704,5.703v32.106"/>
	</g>
	<line fill="none" stroke="#FFFFFF" stroke-width="0.85" stroke-miterlimit="10" x1="0" y1="135.563" x2="121.391" y2="135.563"/>
</g>
</svg>
