<svg xmlns="http://www.w3.org/2000/svg" xmlns:xlink="http://www.w3.org/1999/xlink" viewBox="0 0 114.8 108.47"><defs><style>.cls-1,.cls-2{fill:none;}.cls-2,.cls-8{stroke:#fff;stroke-linecap:round;stroke-miterlimit:10;stroke-width:1.5px;}.cls-3{clip-path:url(#clip-path);}.cls-4{fill:#970a82;}.cls-5,.cls-6,.cls-7{fill:#f0ab00;}.cls-6{opacity:0.7;}.cls-7{opacity:0.4;}</style><clipPath id="clip-path"><path class="cls-1" d="M63,90.61C51,81.91,59.12,61,66.15,45.13s11.08-26.2,16.74-26.59,4.35,3.72,4.2,8.08-9.3,58.25-9.3,58.25"/></clipPath></defs><title>Icon_Seat</title><g id="Ebene_2" data-name="Ebene 2"><g id="Illu"><path class="cls-2" d="M59.08,107.72H6.25S1.49,98.42.81,90,5.34,80.45,16,81.73,62.46,92.52,62.46,92.52"/><path class="cls-2" d="M63.38,88.05c-8.57-12.15,5.94-29.22,17.76-42s19-21.17,24.47-19.71,2.91,4.93,1.35,9S79.22,87.42,79.22,87.42"/><path class="cls-2" d="M112,9.76c3.36.9,1.78,8,.91,11.82s-1.82,6.24-5.48,5.26-6.52-2.53-5.39-6.76S106.6,8.31,112,9.76Z"/><g class="cls-3"><rect class="cls-4" x="54.86" y="0.76" width="34.6" height="90.56"/><rect class="cls-5" x="54.86" y="0.77" width="34.6" height="22.64"/><rect class="cls-6" x="54.86" y="23.4" width="34.6" height="22.64"/><rect class="cls-7" x="54.86" y="46.04" width="34.6" height="22.64"/><rect class="cls-1" x="54.86" y="68.68" width="34.6" height="22.64"/></g><path class="cls-5" d="M83.54,0c3.47-.24,4.28,7,4.7,10.88s.31,6.49-3.47,6.76-7-.27-7.29-4.64S78,.4,83.54,0Z"/><line class="cls-2" x1="2.22" y1="97.33" x2="60.1" y2="103.13"/><path class="cls-8" d="M63.52,87.78A8.16,8.16,0,0,1,79.29,92l-5,15.71H59.08Z"/><circle class="cls-8" cx="71.32" cy="90.61" r="2.97"/></g></g></svg>