<?xml version="1.0" encoding="utf-8"?>
<!-- Generator: Adobe Illustrator 16.0.4, SVG Export Plug-In . SVG Version: 6.00 Build 0)  -->
<!DOCTYPE svg PUBLIC "-//W3C//DTD SVG 1.1//EN" "http://www.w3.org/Graphics/SVG/1.1/DTD/svg11.dtd">
<svg version="1.1" id="Ebene_1" xmlns="http://www.w3.org/2000/svg" xmlns:xlink="http://www.w3.org/1999/xlink" x="0px" y="0px"
	 width="340.2px" height="127.6px" viewBox="0 0 340.2 127.6" enable-background="new 0 0 340.2 127.6" xml:space="preserve">
<g>
	<defs>
		<rect id="SVGID_1_" width="340.2" height="127.6"/>
	</defs>
	<clipPath id="SVGID_2_">
		<use xlink:href="#SVGID_1_"  overflow="visible"/>
	</clipPath>
	<path clip-path="url(#SVGID_2_)" fill="#FFFFFF" d="M56,77.5l4-2.4c1.3,2.6,3.7,4.1,6.5,4.1c2.4,0,4.2-0.9,4.2-2.7
		c0-1.8-1.7-2.6-4.8-3.5c-4.3-1.2-8.7-2.3-8.7-7.3c0-4.5,3.5-7.1,8.6-7.1c4.9,0,7.8,2.4,9.5,4.9l-3.7,2.8c-1.3-2-3.6-3.4-5.9-3.4
		c-2.2,0-3.5,1-3.5,2.4c0,1.9,1.8,2.6,4.9,3.5c4.2,1.1,8.7,2.5,8.7,7.4c0,3.8-2.9,7.3-9.6,7.3C61,83.4,57.8,80.9,56,77.5 M76.7,82.9
		l8.5-24h5l8.5,24h-5.3l-1.8-5.3h-8.1l-1.8,5.3H76.7z M84.7,73.8h5.6l-2.7-8.1h-0.1L84.7,73.8z M101.3,82.9V59h8.7
		c5.1,0,9.8,1.4,9.8,7.7c0,6.4-5,7.8-9.8,7.8h-3.4v8.5H101.3z M106.5,70.4h3.6c3.3,0,4.5-1.3,4.5-3.6c0-2.2-1.2-3.5-4.5-3.5h-3.6
		V70.4z"/>
	<path clip-path="url(#SVGID_2_)" fill="#FFFFFF" d="M243,74.4c0,2.9,1,4.8,3.4,4.8c1.3,0,2.5-0.8,3.4-1.7v-6.3
		c-1.1-1.1-2.1-1.6-3.4-1.6C244.2,69.6,243,71.3,243,74.4 M175.7,69.2c-2.5,0-3.6,2.1-3.6,5.2c0,2.9,1,5.2,3.6,5.2
		c2.5,0,3.6-2.1,3.6-5.2C179.3,71.5,178.3,69.2,175.7,69.2 M156.8,69.1c-1.6,0-3,1.1-3.4,3.6h6.7C159.8,70.2,158.7,69.1,156.8,69.1
		 M266.4,69.2c-2.5,0-3.6,2.1-3.6,5.2c0,2.9,1,5.2,3.6,5.2c2.5,0,3.6-2.1,3.6-5.2C270,71.5,269,69.2,266.4,69.2 M136.4,78.6h10.5
		v4.2h-15.8V59h5.3V78.6z M164.7,74.9v0.8h-11.4c0.3,2.8,1.8,3.9,4,3.9c2,0,3.9-1,5.1-2.1l2,3.1c-2,1.7-4.5,2.6-7.5,2.6
		c-4.5,0-8.8-2.3-8.8-8.9c0-6.7,5.1-9,8.7-9C160.3,65.4,164.7,67.1,164.7,74.9 M184.5,74.3c0,6.7-4.6,8.9-8.8,8.9s-8.8-2.3-8.8-8.9
		c0-6.7,4.6-9,8.8-9C179.9,65.4,184.5,67.6,184.5,74.3 M203.2,70.3v12.5H198V72c0-1.5-0.6-2.4-2-2.4c-1.4,0-2.6,0.7-3.7,1.7v11.5
		H187V65.7h5.2v2.7c1-1.4,2.9-3.1,5.9-3.1C201.1,65.4,203.2,66.8,203.2,70.3 M221.7,78.7c0,2.1,0.1,3.3,0.5,4.2H217
		c-0.2-0.7-0.4-1.5-0.4-2.5c-1.6,1.8-3.5,2.8-6,2.8c-2.6,0-4.9-1.7-4.9-4.6c0-4,3.4-6.2,10.9-6.8v-0.4c0-1.3-0.6-2.1-2.3-2.1
		c-2.2,0-4.1,0.9-5.7,2.1l-2.2-3c1.7-1.5,4.3-3.1,8.6-3.1c4.7,0,6.7,2.3,6.7,6.7V78.7z M216.6,74.6c-4.1,0.4-5.8,1.4-5.8,3
		c0,1.1,0.8,1.6,1.9,1.6c1.8,0,3.1-0.6,3.9-1.5V74.6z M236.2,65.4h0.2l-0.1,4.6c-0.2,0-1-0.1-1.4-0.1c-2.1,0-3.6,1.1-4.6,2.4v10.7
		h-5.2V65.7h5.2v2.9h0C231.3,67.1,233,65.4,236.2,65.4 M255,78.7c0,2.1,0.1,3.3,0.5,4.2h-5.3c-0.2-0.4-0.4-1.7-0.4-2.6
		c-1.1,1.5-2.7,2.8-5.3,2.8c-3.9,0-6.6-2.8-6.6-8.7c0-5.9,2.7-9.1,6.7-9.1c2.3,0,4,0.8,5.2,2.5V59h5.2V78.7z M275.2,74.3
		c0,6.7-4.6,8.9-8.8,8.9s-8.8-2.3-8.8-8.9c0-6.7,4.6-9,8.8-9C270.6,65.4,275.2,67.6,275.2,74.3"/>
	<path clip-path="url(#SVGID_2_)" fill="#FFFFFF" d="M56,77.5l4-2.4c1.3,2.6,3.7,4.1,6.5,4.1c2.4,0,4.2-0.9,4.2-2.7
		c0-1.8-1.7-2.6-4.8-3.4c-4.3-1.2-8.7-2.3-8.7-7.3c0-4.4,3.5-7.1,8.6-7.1c4.9,0,7.8,2.4,9.5,4.9l-3.7,2.8c-1.3-2-3.6-3.4-5.9-3.4
		c-2.2,0-3.5,1-3.5,2.4c0,1.9,1.8,2.6,4.9,3.4c4.2,1.1,8.7,2.5,8.7,7.4c0,3.8-2.9,7.2-9.6,7.2C61,83.3,57.8,80.9,56,77.5 M76.7,82.9
		l8.5-23.9h5l8.5,23.9h-5.3l-1.8-5.3h-8.1l-1.8,5.3H76.7z M84.7,73.8h5.6l-2.7-8.1h-0.1L84.7,73.8z M101.3,82.9V59h8.7
		c5.1,0,9.8,1.4,9.8,7.6c0,6.4-5,7.7-9.8,7.7h-3.4v8.5H101.3z M106.5,70.3h3.6c3.3,0,4.5-1.3,4.5-3.5c0-2.2-1.2-3.5-4.5-3.5h-3.6
		V70.3z"/>
</g>
</svg>
