<?xml version="1.0" encoding="utf-8"?>
<!-- Generator: Adobe Illustrator 16.0.4, SVG Export Plug-In . SVG Version: 6.00 Build 0)  -->
<!DOCTYPE svg PUBLIC "-//W3C//DTD SVG 1.1//EN" "http://www.w3.org/Graphics/SVG/1.1/DTD/svg11.dtd">
<svg version="1.1" id="Ebene_1" xmlns="http://www.w3.org/2000/svg" xmlns:xlink="http://www.w3.org/1999/xlink" x="0px" y="0px"
	 width="315.1px" height="117.5px" viewBox="0 0 315.1 117.5" enable-background="new 0 0 315.1 117.5" xml:space="preserve">
<g>
	<defs>
		<rect id="SVGID_1_" width="315.1" height="117.5"/>
	</defs>
	<clipPath id="SVGID_2_">
		<use xlink:href="#SVGID_1_"  overflow="visible"/>
	</clipPath>
	<path clip-path="url(#SVGID_2_)" fill="#FFFFFF" d="M37.2,65.3l4-2.4c1.3,2.6,3.7,4.1,6.5,4.1c2.4,0,4.2-0.9,4.2-2.7
		c0-1.8-1.7-2.6-4.8-3.5c-4.3-1.2-8.7-2.3-8.7-7.3c0-4.5,3.5-7.1,8.6-7.1c4.9,0,7.8,2.4,9.5,4.9L52.7,54c-1.3-2-3.6-3.4-5.9-3.4
		c-2.2,0-3.5,1-3.5,2.4c0,1.9,1.8,2.6,4.9,3.5c4.2,1.1,8.7,2.5,8.7,7.4c0,3.8-2.9,7.3-9.6,7.3C42.2,71.1,39,68.7,37.2,65.3
		 M57.9,70.7l8.5-24h5l8.5,24h-5.3l-1.8-5.3h-8.1l-1.8,5.3H57.9z M65.9,61.6h5.6l-2.7-8.1h-0.1L65.9,61.6z M82.5,70.7V46.8h8.7
		c5.1,0,9.8,1.4,9.8,7.7c0,6.4-5,7.8-9.8,7.8h-3.4v8.5H82.5z M87.7,58.1h3.6c3.3,0,4.5-1.3,4.5-3.6c0-2.2-1.2-3.5-4.5-3.5h-3.6V58.1
		z M111.3,58.7c0-8.3,4.8-12.4,10.9-12.4s8.7,3.2,9.7,7.5l-5,1.5c-0.8-2.7-1.9-4.6-4.7-4.6c-3.6,0-5.6,3.1-5.6,8c0,5,2,8.2,5.6,8.2
		c2.8,0,4.2-1.8,5-5l4.9,1.1c-1.2,4.8-4,8.2-10,8.2C115.9,71.1,111.3,67.1,111.3,58.7 M134,62.1c0-6.7,4.6-9,8.8-9
		c4.2,0,8.8,2.2,8.8,9c0,6.7-4.6,8.9-8.8,8.9C138.6,71,134,68.8,134,62.1 M146.4,62.1c0-2.9-1-5.2-3.6-5.2c-2.5,0-3.6,2.1-3.6,5.2
		c0,2.9,1,5.3,3.6,5.3C145.2,67.4,146.4,65.2,146.4,62.1 M154.1,70.7V53.4h5.2v2.7c1-1.4,2.9-3.1,5.9-3.1c2.9,0,5,1.5,5,5v12.6h-5.2
		V59.7c0-1.6-0.6-2.4-2-2.4c-1.4,0-2.6,0.7-3.7,1.7v11.6H154.1z M172.8,62.1c0-6.9,4.9-9,8.7-9c4.7,0,6.5,2.5,7.5,5.3l-4.4,1.5
		c-0.7-2.2-1.7-2.9-3.2-2.9c-2.1,0-3.4,1.8-3.4,5.2c0,3.1,1,5.3,3.4,5.3c1.4,0,2.6-0.7,3.4-3.1l4.3,1.5c-1.1,2.7-3.2,5.2-7.8,5.2
		C177.2,71,172.8,68.8,172.8,62.1 M191.7,66V53.4h5.2v11c0,1.6,0.6,2.4,2,2.4c1.4,0,2.6-0.7,3.7-1.7V53.4h5.2v17.2h-5.2V68
		c-1,1.3-2.9,3-5.9,3C193.8,71,191.7,69.6,191.7,66 M211.6,70.7V53.4h5.2v2.9h0c0.9-1.5,2.6-3.2,5.8-3.2h0.2l-0.1,4.6
		c-0.2,0-1-0.1-1.4-0.1c-2.1,0-3.6,1.1-4.6,2.4v10.7H211.6z"/>
	<path clip-path="url(#SVGID_2_)" fill="#F0AB00" d="M255.3,65.4c-3.6,0-6.6-3-6.6-6.6s2.9-6.6,6.6-6.6c1.8,0,3.5,0.7,4.6,1.9
		l3.4-3.4c-2.1-2.1-4.9-3.3-8.1-3.3c-6.3,0-11.4,5.1-11.4,11.4c0,6.3,5.1,11.4,11.4,11.4c3.1,0,6-1.3,8.1-3.3l-3.4-3.4
		C258.8,64.7,257.1,65.4,255.3,65.4"/>
	<path clip-path="url(#SVGID_2_)" fill="#F0AB00" d="M264.9,55.9c-1.6,0-2.9,1.3-2.9,2.9s1.3,2.9,2.9,2.9c1.6,0,2.9-1.3,2.9-2.9
		S266.5,55.9,264.9,55.9"/>
	<path clip-path="url(#SVGID_2_)" fill="#F0AB00" d="M234.8,80.3h43.1V37.2h-43.1V80.3z M239.6,75.5V42h33.4v15.5V60v15.5H239.6z"/>
</g>
</svg>
