<?xml version="1.0" encoding="utf-8"?>
<!-- Generator: Adobe Illustrator 16.0.4, SVG Export Plug-In . SVG Version: 6.00 Build 0)  -->
<!DOCTYPE svg PUBLIC "-//W3C//DTD SVG 1.1//EN" "http://www.w3.org/Graphics/SVG/1.1/DTD/svg11.dtd">
<svg version="1.1" id="Ebene_1" xmlns="http://www.w3.org/2000/svg" xmlns:xlink="http://www.w3.org/1999/xlink" x="0px" y="0px"
	 width="465.8px" height="127.6px" viewBox="0 0 465.8 127.6" enable-background="new 0 0 465.8 127.6" xml:space="preserve">
<g>
	<defs>
		<rect id="SVGID_1_" width="465.8" height="127.6"/>
	</defs>
	<clipPath id="SVGID_2_">
		<use xlink:href="#SVGID_1_"  overflow="visible"/>
	</clipPath>
	<path clip-path="url(#SVGID_2_)" fill="#FFFFFF" d="M56,77.5l4-2.4c1.3,2.6,3.7,4.1,6.5,4.1c2.4,0,4.2-0.9,4.2-2.7
		c0-1.8-1.7-2.6-4.8-3.5c-4.3-1.2-8.7-2.3-8.7-7.3c0-4.5,3.5-7.1,8.6-7.1c4.9,0,7.8,2.4,9.5,4.9l-3.7,2.8c-1.3-2-3.6-3.4-5.9-3.4
		c-2.2,0-3.5,1-3.5,2.4c0,1.9,1.8,2.6,4.9,3.5c4.2,1.1,8.7,2.5,8.7,7.4c0,3.8-2.9,7.3-9.6,7.3C61,83.4,57.8,80.9,56,77.5 M76.7,82.9
		l8.5-24h5l8.5,24h-5.3l-1.8-5.3h-8.1l-1.8,5.3H76.7z M84.7,73.8h5.6l-2.7-8.1h-0.1L84.7,73.8z M101.3,82.9V59h8.7
		c5.1,0,9.8,1.4,9.8,7.7c0,6.4-5,7.8-9.8,7.8h-3.4v8.5H101.3z M106.5,70.4h3.6c3.3,0,4.5-1.3,4.5-3.6c0-2.2-1.2-3.5-4.5-3.5h-3.6
		V70.4z"/>
	<g clip-path="url(#SVGID_2_)">
		<path fill="#FFFFFF" d="M131.1,82.9V58.8h7.4c1.8,0,3.5,0.2,5.1,0.6c1.6,0.4,2.9,1.1,4.1,2c1.1,0.9,2,2.2,2.7,3.7
			c0.7,1.5,1,3.4,1,5.6c0,2.3-0.3,4.2-1,5.7s-1.6,2.8-2.7,3.8c-1.2,1-2.5,1.6-4.1,2.1c-1.6,0.4-3.2,0.6-5.1,0.6H131.1z M136.4,78.6
			h2.5c1.3,0,2.4-0.2,3.3-0.5c0.9-0.3,1.7-0.8,2.3-1.4c0.6-0.6,1-1.4,1.3-2.4c0.3-1,0.4-2.2,0.4-3.5c0-2.6-0.6-4.5-1.7-5.7
			s-3-1.9-5.6-1.9h-2.4V78.6z"/>
		<path fill="#FFFFFF" d="M154.7,63.2V59h5.3v4.2H154.7z M154.7,82.9V65.5h5.2v17.3H154.7z"/>
		<path fill="#FFFFFF" d="M161.7,85.5c0-0.8,0.3-1.6,0.9-2.1s1.3-1,2.1-1.3c-0.8-0.5-1.2-1.2-1.2-2.1c0-0.7,0.2-1.4,0.7-2
			c0.5-0.6,1.1-1.1,1.8-1.6c-0.9-0.6-1.7-1.3-2.1-2.1c-0.5-0.9-0.7-1.8-0.7-2.9c0-0.9,0.2-1.7,0.5-2.4s0.8-1.4,1.5-2
			c0.7-0.6,1.5-1,2.4-1.3s2.1-0.5,3.3-0.5c1.3,0,2.4,0.2,3.4,0.5c1,0.3,1.8,0.8,2.4,1.4c0.6-0.5,1.3-0.9,2.1-1.2
			c0.8-0.3,1.6-0.5,2.3-0.6v3.9c-0.3,0-0.7,0-1.2,0.1c-0.5,0-1.1,0.2-1.7,0.3c0.2,0.5,0.3,1.1,0.3,1.7c0,0.9-0.2,1.7-0.5,2.5
			c-0.3,0.8-0.8,1.4-1.5,2c-0.7,0.6-1.5,1-2.4,1.3c-1,0.3-2.1,0.5-3.3,0.5c-0.5,0-1,0-1.4-0.1c-0.4-0.1-0.9-0.1-1.2-0.2
			c-0.2,0.1-0.3,0.3-0.4,0.4c-0.1,0.1-0.2,0.3-0.2,0.4c0,0.3,0.2,0.5,0.5,0.6c0.3,0.1,0.8,0.2,1.4,0.2l2.6,0.2
			c3,0.1,5.1,0.5,6.4,1.3s2,2,2,3.6c0,0.9-0.3,1.7-0.8,2.3c-0.5,0.7-1.2,1.2-2.1,1.7c-0.9,0.4-1.9,0.8-3.2,1c-1.2,0.2-2.6,0.3-4,0.3
			c-1.7,0-3.1-0.1-4.3-0.3c-1.1-0.2-2.1-0.4-2.8-0.8c-0.7-0.3-1.2-0.8-1.5-1.2C161.9,86.6,161.7,86.1,161.7,85.5z M166.6,84.5
			c0,0.8,0.4,1.3,1.1,1.7c0.8,0.4,2,0.5,3.8,0.5c1.3,0,2.4-0.2,3.3-0.5s1.3-0.8,1.3-1.3c0-0.3-0.1-0.5-0.2-0.7
			c-0.1-0.2-0.3-0.4-0.6-0.5c-0.3-0.1-0.8-0.3-1.4-0.3c-0.6-0.1-1.4-0.2-2.4-0.2l-2.7-0.1l-1.1-0.1
			C166.9,83.4,166.6,83.9,166.6,84.5z M168.1,71.6c0,0.9,0.3,1.7,0.8,2.2c0.5,0.6,1.2,0.9,2.2,0.9c1,0,1.7-0.3,2.2-0.9
			c0.5-0.6,0.7-1.3,0.7-2.2c0-0.9-0.2-1.6-0.7-2.2c-0.5-0.6-1.2-0.9-2.2-0.9c-1,0-1.7,0.3-2.2,0.9C168.3,69.9,168.1,70.7,168.1,71.6
			z"/>
		<path fill="#FFFFFF" d="M183.8,63.2V59h5.3v4.2H183.8z M183.9,82.9V65.5h5.2v17.3H183.9z"/>
		<path fill="#FFFFFF" d="M191.6,69.4v-3.8h2.9v-5.9h5.2v5.9h4.4v3.8h-4.4v7.5c0,0.9,0.2,1.6,0.5,1.9c0.3,0.3,1,0.5,1.9,0.5
			c0.3,0,0.6,0,1,0c0.3,0,0.6-0.1,0.8-0.2v3.8c-0.1,0-0.3,0-0.6,0.1s-0.6,0.1-0.9,0.1c-0.3,0-0.7,0-1,0.1c-0.4,0-0.7,0-1,0
			c-1.3,0-2.3-0.1-3.1-0.3s-1.4-0.6-1.8-1c-0.4-0.4-0.7-1-0.8-1.6c-0.1-0.6-0.2-1.4-0.2-2.2v-8.7H191.6z"/>
		<path fill="#FFFFFF" d="M205.6,78.5c0-2,0.9-3.5,2.6-4.7c1.8-1.1,4.5-1.8,8.4-2.2v-0.4c0-0.6-0.2-1.1-0.5-1.5
			c-0.4-0.4-1-0.6-1.8-0.6c-1.1,0-2.1,0.2-3.1,0.6c-0.9,0.4-1.8,0.9-2.6,1.6l-2.2-3c0.4-0.4,0.9-0.8,1.5-1.1c0.6-0.4,1.2-0.7,1.9-1
			s1.5-0.5,2.4-0.7s1.9-0.3,2.9-0.3c2.4,0,4.1,0.6,5.1,1.7c1,1.1,1.6,2.8,1.6,5.1v6.7c0,1,0,1.9,0.1,2.6c0.1,0.7,0.2,1.2,0.4,1.7
			h-5.2c-0.1-0.4-0.2-0.8-0.3-1.2c-0.1-0.4-0.1-0.9-0.1-1.4c-0.8,0.9-1.7,1.6-2.6,2.1c-1,0.5-2.1,0.7-3.4,0.7
			c-0.7,0-1.3-0.1-1.9-0.3c-0.6-0.2-1.1-0.5-1.6-0.9c-0.5-0.4-0.8-0.9-1.1-1.5S205.6,79.2,205.6,78.5z M210.7,77.6
			c0,0.6,0.2,1,0.5,1.3c0.4,0.3,0.8,0.4,1.4,0.4c0.9,0,1.7-0.1,2.3-0.4c0.7-0.3,1.2-0.6,1.6-1.1v-3.2c-2.1,0.2-3.6,0.6-4.5,1.1
			C211.1,76.1,210.7,76.7,210.7,77.6z"/>
		<path fill="#FFFFFF" d="M225.5,82.9V58.8h5.2v24.1H225.5z"/>
		<path fill="#FFFFFF" d="M243.7,82.9V58.8h9.6c1.1,0,2.2,0.1,3.2,0.2s2,0.5,2.8,0.9s1.4,1.1,1.9,1.8s0.7,1.8,0.7,3
			c0,0.8-0.1,1.6-0.4,2.2c-0.3,0.6-0.6,1.2-1,1.6c-0.4,0.4-0.9,0.8-1.5,1.1c-0.6,0.3-1.1,0.5-1.8,0.6v0.1c0.7,0.1,1.4,0.3,2,0.6
			c0.6,0.3,1.2,0.6,1.7,1.1c0.5,0.5,0.9,1.1,1.1,1.7c0.3,0.7,0.4,1.5,0.4,2.5c0,1.2-0.2,2.2-0.7,3.1s-1.1,1.5-1.9,2
			s-1.7,0.9-2.8,1.1c-1.1,0.2-2.1,0.4-3.3,0.4H243.7z M248.9,68.7h3.9c1.4,0,2.4-0.2,3.1-0.7c0.7-0.5,1-1.2,1-2.1
			c0-0.9-0.3-1.7-0.9-2.1c-0.6-0.5-1.6-0.7-3.1-0.7h-4V68.7z M248.9,79h4.3c1.5,0,2.5-0.3,3.2-0.8c0.7-0.6,1-1.4,1-2.4
			c0-2.1-1.5-3.2-4.5-3.2h-4V79z"/>
		<path fill="#FFFFFF" d="M264.9,74.2c0-1.7,0.3-3.1,0.8-4.3c0.5-1.2,1.2-2.1,2.1-2.8s1.8-1.2,2.8-1.5c1-0.3,2.1-0.5,3.2-0.5
			c1,0,2.1,0.2,3.1,0.5c1.1,0.3,2,0.8,2.8,1.5s1.5,1.6,2.1,2.8s0.8,2.6,0.8,4.3c0,1.7-0.3,3.1-0.8,4.3c-0.5,1.2-1.2,2.1-2.1,2.8
			c-0.8,0.7-1.8,1.2-2.8,1.5c-1.1,0.3-2.1,0.5-3.1,0.5c-1,0-2.1-0.2-3.2-0.5s-2-0.8-2.9-1.5c-0.8-0.7-1.5-1.6-2.1-2.8
			C265.2,77.3,264.9,75.9,264.9,74.2z M270.1,74.2c0,0.7,0.1,1.4,0.2,2c0.1,0.6,0.3,1.2,0.6,1.7c0.3,0.5,0.7,0.9,1.1,1.1
			c0.5,0.3,1,0.4,1.7,0.4c1.2,0,2.1-0.5,2.7-1.5c0.6-1,0.9-2.2,0.9-3.8c0-0.7-0.1-1.4-0.2-2c-0.1-0.6-0.3-1.2-0.6-1.7
			c-0.3-0.5-0.7-0.8-1.1-1.1c-0.5-0.3-1-0.4-1.6-0.4c-1.3,0-2.2,0.5-2.8,1.4C270.4,71.4,270.1,72.7,270.1,74.2z"/>
		<path fill="#FFFFFF" d="M284,78.5c0-2,0.9-3.5,2.6-4.7c1.8-1.1,4.5-1.8,8.4-2.2v-0.4c0-0.6-0.2-1.1-0.5-1.5
			c-0.4-0.4-1-0.6-1.8-0.6c-1.1,0-2.1,0.2-3.1,0.6c-0.9,0.4-1.8,0.9-2.6,1.6l-2.2-3c0.4-0.4,0.9-0.8,1.5-1.1c0.6-0.4,1.2-0.7,1.9-1
			s1.5-0.5,2.4-0.7s1.9-0.3,2.9-0.3c2.4,0,4.1,0.6,5.1,1.7c1,1.1,1.6,2.8,1.6,5.1v6.7c0,1,0,1.9,0.1,2.6c0.1,0.7,0.2,1.2,0.4,1.7
			h-5.2c-0.1-0.4-0.2-0.8-0.3-1.2c-0.1-0.4-0.1-0.9-0.1-1.4c-0.8,0.9-1.7,1.6-2.6,2.1c-1,0.5-2.1,0.7-3.4,0.7
			c-0.7,0-1.3-0.1-1.9-0.3c-0.6-0.2-1.1-0.5-1.6-0.9c-0.5-0.4-0.8-0.9-1.1-1.5S284,79.2,284,78.5z M289.1,77.6c0,0.6,0.2,1,0.5,1.3
			c0.4,0.3,0.8,0.4,1.4,0.4c0.9,0,1.7-0.1,2.3-0.4c0.7-0.3,1.2-0.6,1.6-1.1v-3.2c-2.1,0.2-3.6,0.6-4.5,1.1
			C289.6,76.1,289.1,76.7,289.1,77.6z"/>
		<path fill="#FFFFFF" d="M303.7,82.9V65.5h5.2v2.8h0c0.2-0.4,0.5-0.7,0.9-1.1c0.3-0.4,0.7-0.7,1.2-1c0.5-0.3,1-0.6,1.6-0.8
			s1.3-0.3,2.2-0.3h0.2l-0.1,4.5c-0.1,0-0.3,0-0.6-0.1c-0.3,0-0.6,0-0.7,0c-1,0-1.9,0.2-2.7,0.7c-0.8,0.5-1.4,1-1.9,1.7v10.9H303.7z
			"/>
		<path fill="#FFFFFF" d="M315.6,74.3c0-1.5,0.2-2.8,0.5-3.9s0.8-2.1,1.4-2.9c0.6-0.8,1.3-1.4,2.1-1.8c0.8-0.4,1.7-0.6,2.7-0.6
			c1.2,0,2.2,0.2,3,0.6s1.6,1.1,2.2,1.9v-8.9h5.2v19.9c0,1,0,1.9,0.1,2.6c0.1,0.7,0.2,1.2,0.4,1.7H328c-0.1-0.1-0.1-0.3-0.2-0.5
			c0-0.2-0.1-0.4-0.1-0.7c0-0.2-0.1-0.5-0.1-0.8c0-0.3,0-0.5,0-0.7c-0.6,0.8-1.3,1.5-2.1,2c-0.9,0.6-1.9,0.8-3.2,0.8
			c-1,0-1.9-0.2-2.7-0.5c-0.8-0.4-1.5-0.9-2.1-1.6s-1-1.6-1.4-2.7S315.6,75.8,315.6,74.3z M320.8,74.3c0,1.5,0.3,2.7,0.8,3.6
			c0.5,0.9,1.4,1.4,2.6,1.4c0.7,0,1.3-0.2,1.9-0.5c0.6-0.3,1.1-0.7,1.5-1.2v-6.4c-0.6-0.6-1.1-1-1.6-1.2c-0.5-0.3-1.1-0.4-1.8-0.4
			C321.9,69.5,320.8,71.1,320.8,74.3z"/>
		<path fill="#FFFFFF" d="M336.6,82.9V65.5h5.2v2.8h0c0.2-0.4,0.5-0.7,0.9-1.1c0.3-0.4,0.7-0.7,1.2-1c0.5-0.3,1-0.6,1.6-0.8
			s1.3-0.3,2.2-0.3h0.2l-0.1,4.5c-0.1,0-0.3,0-0.6-0.1c-0.3,0-0.6,0-0.7,0c-1,0-1.9,0.2-2.7,0.7c-0.8,0.5-1.4,1-1.9,1.7v10.9H336.6z
			"/>
		<path fill="#FFFFFF" d="M348.7,74.2c0-1.7,0.3-3.1,0.8-4.3c0.5-1.2,1.2-2.1,2.1-2.8s1.8-1.2,2.8-1.5c1-0.3,2.1-0.5,3.2-0.5
			c1,0,2.1,0.2,3.1,0.5c1.1,0.3,2,0.8,2.8,1.5s1.5,1.6,2.1,2.8s0.8,2.6,0.8,4.3c0,1.7-0.3,3.1-0.8,4.3c-0.5,1.2-1.2,2.1-2.1,2.8
			c-0.8,0.7-1.8,1.2-2.8,1.5c-1.1,0.3-2.1,0.5-3.1,0.5c-1,0-2.1-0.2-3.2-0.5s-2-0.8-2.9-1.5c-0.8-0.7-1.5-1.6-2.1-2.8
			C349,77.3,348.7,75.9,348.7,74.2z M354,74.2c0,0.7,0.1,1.4,0.2,2c0.1,0.6,0.3,1.2,0.6,1.7c0.3,0.5,0.7,0.9,1.1,1.1
			c0.5,0.3,1,0.4,1.7,0.4c1.2,0,2.1-0.5,2.7-1.5c0.6-1,0.9-2.2,0.9-3.8c0-0.7-0.1-1.4-0.2-2c-0.1-0.6-0.3-1.2-0.6-1.7
			c-0.3-0.5-0.7-0.8-1.1-1.1c-0.5-0.3-1-0.4-1.6-0.4c-1.3,0-2.2,0.5-2.8,1.4C354.3,71.4,354,72.7,354,74.2z"/>
		<path fill="#FFFFFF" d="M368.4,74.2c0-1.7,0.3-3.1,0.8-4.3c0.5-1.2,1.2-2.1,2.1-2.8s1.8-1.2,2.8-1.5c1-0.3,2.1-0.5,3.2-0.5
			c1,0,2.1,0.2,3.1,0.5c1.1,0.3,2,0.8,2.8,1.5s1.5,1.6,2.1,2.8s0.8,2.6,0.8,4.3c0,1.7-0.3,3.1-0.8,4.3c-0.5,1.2-1.2,2.1-2.1,2.8
			c-0.8,0.7-1.8,1.2-2.8,1.5c-1.1,0.3-2.1,0.5-3.1,0.5c-1,0-2.1-0.2-3.2-0.5s-2-0.8-2.9-1.5c-0.8-0.7-1.5-1.6-2.1-2.8
			C368.6,77.3,368.4,75.9,368.4,74.2z M373.6,74.2c0,0.7,0.1,1.4,0.2,2c0.1,0.6,0.3,1.2,0.6,1.7c0.3,0.5,0.7,0.9,1.1,1.1
			c0.5,0.3,1,0.4,1.7,0.4c1.2,0,2.1-0.5,2.7-1.5c0.6-1,0.9-2.2,0.9-3.8c0-0.7-0.1-1.4-0.2-2c-0.1-0.6-0.3-1.2-0.6-1.7
			c-0.3-0.5-0.7-0.8-1.1-1.1c-0.5-0.3-1-0.4-1.6-0.4c-1.3,0-2.2,0.5-2.8,1.4C373.9,71.4,373.6,72.7,373.6,74.2z"/>
		<path fill="#FFFFFF" d="M388.9,82.9V65.5h5.2v2.7c0.3-0.3,0.6-0.7,0.9-1s0.8-0.7,1.3-1s1-0.5,1.6-0.7s1.2-0.3,1.9-0.3
			c1.5,0,2.6,0.3,3.3,0.8s1.2,1.3,1.5,2.2c0.3-0.3,0.6-0.7,0.9-1c0.4-0.4,0.8-0.7,1.3-1s1-0.5,1.6-0.7s1.2-0.3,1.9-0.3
			c0.9,0,1.6,0.1,2.2,0.4s1.2,0.6,1.6,1.1c0.4,0.5,0.7,1,0.9,1.7c0.2,0.6,0.3,1.4,0.3,2.1v12.4h-5.2v-11c0-0.8-0.1-1.4-0.4-1.8
			s-0.8-0.6-1.5-0.6c-0.6,0-1.2,0.2-1.8,0.5s-1.1,0.7-1.7,1.2v11.7h-5.2v-11c0-0.8-0.1-1.4-0.4-1.8s-0.8-0.6-1.5-0.6
			c-0.7,0-1.3,0.2-1.8,0.5c-0.6,0.3-1.1,0.7-1.7,1.2v11.7H388.9z"/>
	</g>
</g>
</svg>
