<?xml version="1.0" encoding="utf-8"?>
<!-- Generator: Adobe Illustrator 16.0.4, SVG Export Plug-In . SVG Version: 6.00 Build 0)  -->
<!DOCTYPE svg PUBLIC "-//W3C//DTD SVG 1.1//EN" "http://www.w3.org/Graphics/SVG/1.1/DTD/svg11.dtd">
<svg version="1.1" xmlns="http://www.w3.org/2000/svg" xmlns:xlink="http://www.w3.org/1999/xlink" x="0px" y="0px" width="293.3px"
	 height="49.5px" viewBox="0 0 293.3 49.5" enable-background="new 0 0 293.3 49.5" xml:space="preserve">
<g id="anvil_x2F_tagline">
	<g>
		<g>
			<linearGradient id="SVGID_1_" gradientUnits="userSpaceOnUse" x1="50" y1="0" x2="50" y2="49.4697">
				<stop  offset="0" style="stop-color:#00B8F1"/>
				<stop  offset="1.644576e-02" style="stop-color:#01B6F0"/>
				<stop  offset="0.3079" style="stop-color:#0D90D9"/>
				<stop  offset="0.5782" style="stop-color:#1775C8"/>
				<stop  offset="0.8173" style="stop-color:#1C65BF"/>
				<stop  offset="1" style="stop-color:#1E5FBB"/>
			</linearGradient>
			<polyline fill-rule="evenodd" clip-rule="evenodd" fill="url(#SVGID_1_)" points="0,49.5 50.5,49.5 100,0 0,0 0,49.5 			"/>
			<path fill-rule="evenodd" clip-rule="evenodd" fill="#FFFFFF" d="M59.3,9.3l-9.8,0v23.4L40.9,9.3h-8.5L25,28.9
				c-0.8-4.9-5.9-6.6-9.9-7.9c-2.7-0.9-5.5-2.1-5.4-3.5c0-1.1,1.5-2.2,4.5-2c2,0.1,3.7,0.3,7.2,1.9l3.4-6c-3.2-1.6-7.6-2.6-11.2-2.6
				h0c-4.2,0-7.7,1.4-9.8,3.6c-1.5,1.6-2.3,3.5-2.4,5.7c-0.1,3,1.1,5.2,3.4,6.9c2,1.4,4.5,2.4,6.7,3.1c2.7,0.8,5,1.6,4.9,3.2
				c0,0.6-0.2,1.1-0.6,1.5c-0.7,0.7-1.7,1-3.2,1c-2.8,0.1-4.9-0.4-8.2-2.3l-3,6c3.3,1.9,7.2,3,11.1,3l0.5,0c3.5-0.1,6.2-1,8.5-2.8
				c0.1-0.1,0.2-0.2,0.4-0.3l-1,2.6h8.9l1.5-4.6c1.6,0.5,3.4,0.8,5.3,0.8c1.8,0,3.6-0.3,5.1-0.8l1.4,4.5h14.6v-9.5h3.2
				c7.7,0,12.2-3.9,12.2-10.5C73.2,12.7,68.8,9.3,59.3,9.3z M36.6,29.3c-1.1,0-2.2-0.2-3.2-0.6l3.1-9.8h0.1l3.1,9.9
				C38.8,29.1,37.7,29.3,36.6,29.3z M59.9,23.7h-2.2v-7.9h2.2c2.9,0,5.2,1,5.2,3.9C65.1,22.7,62.8,23.7,59.9,23.7"/>
		</g>
	</g>
	<g>
		<path fill="#FFFFFF" d="M93.4,32.7l5.1-3c1.7,3.4,4.8,5.2,8.3,5.2c3.1,0,5.4-1.2,5.4-3.5c0-2.3-2.2-3.3-6.2-4.4
			c-5.5-1.5-11.2-2.9-11.2-9.4c0-5.7,4.5-9.2,11.1-9.2c6.3,0,10,3,12.2,6.3l-4.7,3.6c-1.6-2.6-4.6-4.4-7.6-4.4
			c-2.9,0-4.4,1.2-4.4,3.1c0,2.4,2.3,3.3,6.3,4.4c5.4,1.5,11.1,3.2,11.1,9.5c0,4.9-3.7,9.3-12.3,9.3C99.8,40.2,95.7,37.1,93.4,32.7z
			 M120.7,39.6l17.8-30.7h6.8l-17.8,30.7H120.7z M158.5,39.6v-6h-14.9v-4.9l14-19.8h7.4v19.4h5.2v5.3H165v6H158.5z M150.5,28.3h7.9
			V17h-0.1L150.5,28.3z M173.8,39.6V8.9h6.8v11.9h12.1V8.9h6.8v30.7h-6.8V26.5h-12.1v13.1H173.8z M203.3,39.6l10.9-30.8h6.4
			l10.9,30.8h-6.8l-2.3-6.8h-10.5l-2.4,6.8H203.3z M213.5,27.9h7.2l-3.5-10.5h-0.1L213.5,27.9z M235.3,39.6V8.9h6.8L255,28.5h0.1
			V8.9h6.2v30.7H255l-13.4-19.8h-0.1v19.8H235.3z M265.1,39.6L276,8.8h6.4l10.9,30.8h-6.8l-2.3-6.8h-10.5l-2.4,6.8H265.1z
			 M275.4,27.9h7.2L279,17.4H279L275.4,27.9z"/>
	</g>
</g>
<g id="_xAE_">
	<path fill="#1E5FBB" d="M62.5,46.2c0-1.5,1.1-2.7,2.6-2.7c1.4,0,2.6,1.2,2.6,2.7c0,1.5-1.1,2.7-2.6,2.7
		C63.7,48.9,62.5,47.8,62.5,46.2z M65.1,49.4c1.7,0,3.2-1.4,3.2-3.2c0-1.8-1.5-3.2-3.2-3.2c-1.8,0-3.3,1.4-3.3,3.2
		C61.9,48.1,63.4,49.4,65.1,49.4z M64.5,46.5h0.6l1,1.6h0.6l-1.1-1.6c0.5-0.1,1-0.4,1-1c0-0.7-0.4-1-1.3-1h-1.4v3.7h0.6V46.5z
		 M64.5,46v-1.1h0.8c0.4,0,0.8,0.1,0.8,0.5c0,0.6-0.4,0.6-0.9,0.6H64.5z"/>
</g>
<g id="guides" display="none">
</g>
</svg>
