<?xml version="1.0" encoding="utf-8"?>
<!-- Generator: Adobe Illustrator 16.0.4, SVG Export Plug-In . SVG Version: 6.00 Build 0)  -->
<!DOCTYPE svg PUBLIC "-//W3C//DTD SVG 1.1//EN" "http://www.w3.org/Graphics/SVG/1.1/DTD/svg11.dtd">
<svg version="1.1" id="Ebene_1" xmlns="http://www.w3.org/2000/svg" xmlns:xlink="http://www.w3.org/1999/xlink" x="0px" y="0px"
	 width="60px" height="60px" viewBox="0 0 60 60" enable-background="new 0 0 60 60" xml:space="preserve">
<g>
	<g>
		<path fill="#FFFFFF" d="M12.6,37c0-0.5-0.4-0.8-0.8-0.8c-0.5,0-0.8,0.4-0.8,0.8c0,0.5,0.4,0.8,0.8,0.8
			C12.3,37.8,12.6,37.5,12.6,37"/>
		<path fill="#FFFFFF" d="M19.4,37c0-0.5-0.4-0.8-0.8-0.8c-0.5,0-0.8,0.4-0.8,0.8c0,0.5,0.4,0.8,0.8,0.8
			C19.1,37.8,19.4,37.5,19.4,37"/>
		<path fill="#FFFFFF" d="M26.3,37c0-0.5-0.4-0.8-0.8-0.8c-0.5,0-0.8,0.4-0.8,0.8c0,0.5,0.4,0.8,0.8,0.8
			C25.9,37.8,26.3,37.5,26.3,37"/>
		<path fill="#FFFFFF" d="M33.1,37c0-0.5-0.4-0.8-0.8-0.8c-0.5,0-0.8,0.4-0.8,0.8c0,0.5,0.4,0.8,0.8,0.8
			C32.7,37.8,33.1,37.5,33.1,37"/>
		<path fill="#FFFFFF" d="M12.6,30.2c0-0.5-0.4-0.8-0.8-0.8c-0.5,0-0.8,0.4-0.8,0.8c0,0.5,0.4,0.8,0.8,0.8
			C12.3,31,12.6,30.7,12.6,30.2"/>
		<path fill="#FFFFFF" d="M19.4,30.2c0-0.5-0.4-0.8-0.8-0.8c-0.5,0-0.8,0.4-0.8,0.8c0,0.5,0.4,0.8,0.8,0.8
			C19.1,31,19.4,30.7,19.4,30.2"/>
		<path fill="#FFFFFF" d="M26.3,30.2c0-0.5-0.4-0.8-0.8-0.8c-0.5,0-0.8,0.4-0.8,0.8c0,0.5,0.4,0.8,0.8,0.8
			C25.9,31,26.3,30.7,26.3,30.2"/>
		<path fill="#FFFFFF" d="M33.1,30.2c0-0.5-0.4-0.8-0.8-0.8c-0.5,0-0.8,0.4-0.8,0.8c0,0.5,0.4,0.8,0.8,0.8
			C32.7,31,33.1,30.7,33.1,30.2"/>
		<path fill="#FFFFFF" d="M12.6,43.8c0-0.4-0.4-0.8-0.8-0.8c-0.5,0-0.8,0.4-0.8,0.8c0,0.5,0.4,0.8,0.8,0.8
			C12.3,44.6,12.6,44.3,12.6,43.8"/>
		<path fill="#FFFFFF" d="M19.4,43.8c0-0.4-0.4-0.8-0.8-0.8c-0.5,0-0.8,0.4-0.8,0.8c0,0.5,0.4,0.8,0.8,0.8
			C19.1,44.6,19.4,44.3,19.4,43.8"/>
		<path fill="#FFFFFF" d="M26.3,43.8c0-0.4-0.4-0.8-0.8-0.8c-0.5,0-0.8,0.4-0.8,0.8c0,0.5,0.4,0.8,0.8,0.8
			C25.9,44.6,26.3,44.3,26.3,43.8"/>
		<path fill="#FFFFFF" d="M33.1,43.8c0-0.4-0.4-0.8-0.8-0.8c-0.5,0-0.8,0.4-0.8,0.8c0,0.5,0.4,0.8,0.8,0.8
			C32.7,44.6,33.1,44.3,33.1,43.8"/>
		<path fill="#FFFFFF" d="M12.6,50.6c0-0.5-0.4-0.8-0.8-0.8c-0.5,0-0.8,0.4-0.8,0.8c0,0.5,0.4,0.8,0.8,0.8
			C12.3,51.4,12.6,51.1,12.6,50.6"/>
		<path fill="#FFFFFF" d="M19.4,50.6c0-0.5-0.4-0.8-0.8-0.8c-0.5,0-0.8,0.4-0.8,0.8c0,0.5,0.4,0.8,0.8,0.8
			C19.1,51.4,19.4,51.1,19.4,50.6"/>
		<path fill="#FFFFFF" d="M26.3,50.6c0-0.5-0.4-0.8-0.8-0.8c-0.5,0-0.8,0.4-0.8,0.8c0,0.5,0.4,0.8,0.8,0.8
			C25.9,51.4,26.3,51.1,26.3,50.6"/>
		<path fill="#FFFFFF" d="M33.1,50.6c0-0.5-0.4-0.8-0.8-0.8c-0.5,0-0.8,0.4-0.8,0.8c0,0.5,0.4,0.8,0.8,0.8
			C32.7,51.4,33.1,51.1,33.1,50.6"/>
		<path fill="#FFFFFF" d="M39.9,37c0-0.5-0.4-0.8-0.8-0.8c-0.4,0-0.8,0.4-0.8,0.8c0,0.5,0.4,0.8,0.8,0.8
			C39.5,37.8,39.9,37.5,39.9,37"/>
		<path fill="#FFFFFF" d="M46.7,37c0-0.5-0.4-0.8-0.8-0.8c-0.5,0-0.8,0.4-0.8,0.8c0,0.5,0.4,0.8,0.8,0.8
			C46.3,37.8,46.7,37.5,46.7,37"/>
		<path fill="#FFFFFF" d="M39.9,30.2c0-0.5-0.4-0.8-0.8-0.8c-0.4,0-0.8,0.4-0.8,0.8c0,0.5,0.4,0.8,0.8,0.8
			C39.5,31,39.9,30.7,39.9,30.2"/>
		<path fill="#FFFFFF" d="M46.7,30.2c0-0.5-0.4-0.8-0.8-0.8c-0.5,0-0.8,0.4-0.8,0.8c0,0.5,0.4,0.8,0.8,0.8
			C46.3,31,46.7,30.7,46.7,30.2"/>
		<path fill="#FFFFFF" d="M39.9,43.8c0-0.4-0.4-0.8-0.8-0.8c-0.4,0-0.8,0.4-0.8,0.8c0,0.5,0.4,0.8,0.8,0.8
			C39.5,44.6,39.9,44.3,39.9,43.8"/>
		<path fill="#FFFFFF" d="M46.7,43.8c0-0.4-0.4-0.8-0.8-0.8c-0.5,0-0.8,0.4-0.8,0.8c0,0.5,0.4,0.8,0.8,0.8
			C46.3,44.6,46.7,44.3,46.7,43.8"/>
		<path fill="#FFFFFF" d="M39.9,50.6c0-0.5-0.4-0.8-0.8-0.8c-0.4,0-0.8,0.4-0.8,0.8c0,0.5,0.4,0.8,0.8,0.8
			C39.5,51.4,39.9,51.1,39.9,50.6"/>
		<path fill="none" stroke="#FFFFFF" stroke-width="0.85" stroke-linecap="round" stroke-miterlimit="10" d="M13.7,16.2
			c0,1.3,1,2.3,2.3,2.3c1.3,0,2.3-1,2.3-2.3"/>
		
			<line fill="none" stroke="#FFFFFF" stroke-width="0.85" stroke-linecap="round" stroke-miterlimit="10" x1="16" y1="16.2" x2="16" y2="6.3"/>
		<path fill="none" stroke="#FFFFFF" stroke-width="0.85" stroke-linecap="round" stroke-miterlimit="10" d="M39.8,16.2
			c0,1.3,1,2.3,2.3,2.3c1.3,0,2.3-1,2.3-2.3"/>
		
			<line fill="none" stroke="#FFFFFF" stroke-width="0.85" stroke-linecap="round" stroke-miterlimit="10" x1="42.1" y1="16.2" x2="42.1" y2="6.3"/>
		<path fill="none" stroke="#FFFFFF" stroke-width="0.85" stroke-linecap="round" stroke-miterlimit="10" d="M3.8,58
			c0,0.9,0.7,1.6,1.6,1.6h47.5c0.9,0,1.6-0.7,1.6-1.6V22H3.8V58z"/>
	</g>
	<g>
		<defs>
			<path id="SVGID_1_" d="M6.1,7C5.2,7,4.5,7.8,4.5,8.6v46.6c0,0.9,0.7,1.6,1.6,1.6h48.5c0.9,0,1.6-0.7,1.6-1.6V8.6
				c0-0.9-0.7-1.6-1.6-1.6H6.1z"/>
		</defs>
		<clipPath id="SVGID_2_">
			<use xlink:href="#SVGID_1_"  overflow="visible"/>
		</clipPath>
		<rect x="4.3" y="6.9" clip-path="url(#SVGID_2_)" fill="#E35710" width="52.2" height="11.7"/>
		<rect x="43.5" y="6.9" clip-path="url(#SVGID_2_)" fill="#F0AC06" width="13.1" height="11.7"/>
		<g opacity="0.7" clip-path="url(#SVGID_2_)">
			<g>
				<defs>
					<rect id="SVGID_3_" x="30.4" y="6.9" width="13.1" height="11.7"/>
				</defs>
				<clipPath id="SVGID_4_">
					<use xlink:href="#SVGID_3_"  overflow="visible"/>
				</clipPath>
				<rect x="30.4" y="6.9" clip-path="url(#SVGID_4_)" fill="#F0AC06" width="13.1" height="11.7"/>
			</g>
		</g>
		<g opacity="0.4" clip-path="url(#SVGID_2_)">
			<g>
				<defs>
					<rect id="SVGID_5_" x="17.4" y="6.9" width="13.1" height="11.7"/>
				</defs>
				<clipPath id="SVGID_6_">
					<use xlink:href="#SVGID_5_"  overflow="visible"/>
				</clipPath>
				<rect x="17.4" y="6.9" clip-path="url(#SVGID_6_)" fill="#F0AC06" width="13.1" height="11.7"/>
			</g>
		</g>
	</g>
	<g>
		<path fill="#FFFFFF" d="M13.9,33.8c0-0.5-0.4-0.8-0.8-0.8c-0.5,0-0.8,0.4-0.8,0.8c0,0.5,0.4,0.8,0.8,0.8
			C13.6,34.6,13.9,34.2,13.9,33.8"/>
		<path fill="#FFFFFF" d="M20.7,33.8c0-0.5-0.4-0.8-0.8-0.8c-0.5,0-0.8,0.4-0.8,0.8c0,0.5,0.4,0.8,0.8,0.8
			C20.4,34.6,20.7,34.2,20.7,33.8"/>
		<path fill="#FFFFFF" d="M27.5,33.8c0-0.5-0.4-0.8-0.8-0.8c-0.5,0-0.8,0.4-0.8,0.8c0,0.5,0.4,0.8,0.8,0.8
			C27.2,34.6,27.5,34.2,27.5,33.8"/>
		<path fill="#FFFFFF" d="M34.4,33.8c0-0.5-0.4-0.8-0.8-0.8c-0.5,0-0.8,0.4-0.8,0.8c0,0.5,0.4,0.8,0.8,0.8
			C34,34.6,34.4,34.2,34.4,33.8"/>
		<path fill="#FFFFFF" d="M13.9,26.9c0-0.5-0.4-0.8-0.8-0.8c-0.5,0-0.8,0.4-0.8,0.8c0,0.5,0.4,0.8,0.8,0.8
			C13.6,27.8,13.9,27.4,13.9,26.9"/>
		<path fill="#FFFFFF" d="M20.7,26.9c0-0.5-0.4-0.8-0.8-0.8c-0.5,0-0.8,0.4-0.8,0.8c0,0.5,0.4,0.8,0.8,0.8
			C20.4,27.8,20.7,27.4,20.7,26.9"/>
		<path fill="#FFFFFF" d="M27.5,26.9c0-0.5-0.4-0.8-0.8-0.8c-0.5,0-0.8,0.4-0.8,0.8c0,0.5,0.4,0.8,0.8,0.8
			C27.2,27.8,27.5,27.4,27.5,26.9"/>
		<path fill="#FFFFFF" d="M34.4,26.9c0-0.5-0.4-0.8-0.8-0.8c-0.5,0-0.8,0.4-0.8,0.8c0,0.5,0.4,0.8,0.8,0.8
			C34,27.8,34.4,27.4,34.4,26.9"/>
		<path fill="#FFFFFF" d="M13.9,40.6c0-0.5-0.4-0.8-0.8-0.8c-0.5,0-0.8,0.4-0.8,0.8s0.4,0.8,0.8,0.8C13.6,41.4,13.9,41,13.9,40.6"/>
		<path fill="#FFFFFF" d="M20.7,40.6c0-0.5-0.4-0.8-0.8-0.8c-0.5,0-0.8,0.4-0.8,0.8s0.4,0.8,0.8,0.8C20.4,41.4,20.7,41,20.7,40.6"/>
		<path fill="#FFFFFF" d="M27.5,40.6c0-0.5-0.4-0.8-0.8-0.8c-0.5,0-0.8,0.4-0.8,0.8s0.4,0.8,0.8,0.8C27.2,41.4,27.5,41,27.5,40.6"/>
		<path fill="#FFFFFF" d="M34.4,40.6c0-0.5-0.4-0.8-0.8-0.8c-0.5,0-0.8,0.4-0.8,0.8s0.4,0.8,0.8,0.8C34,41.4,34.4,41,34.4,40.6"/>
		<path fill="#FFFFFF" d="M13.9,47.4c0-0.4-0.4-0.8-0.8-0.8c-0.5,0-0.8,0.4-0.8,0.8c0,0.5,0.4,0.8,0.8,0.8
			C13.6,48.2,13.9,47.8,13.9,47.4"/>
		<path fill="#FFFFFF" d="M20.7,47.4c0-0.4-0.4-0.8-0.8-0.8c-0.5,0-0.8,0.4-0.8,0.8c0,0.5,0.4,0.8,0.8,0.8
			C20.4,48.2,20.7,47.8,20.7,47.4"/>
		<path fill="#FFFFFF" d="M27.5,47.4c0-0.4-0.4-0.8-0.8-0.8c-0.5,0-0.8,0.4-0.8,0.8c0,0.5,0.4,0.8,0.8,0.8
			C27.2,48.2,27.5,47.8,27.5,47.4"/>
		<path fill="#FFFFFF" d="M34.4,47.4c0-0.4-0.4-0.8-0.8-0.8c-0.5,0-0.8,0.4-0.8,0.8c0,0.5,0.4,0.8,0.8,0.8
			C34,48.2,34.4,47.8,34.4,47.4"/>
		<path fill="#FFFFFF" d="M41.2,33.8c0-0.5-0.4-0.8-0.8-0.8c-0.4,0-0.8,0.4-0.8,0.8c0,0.5,0.4,0.8,0.8,0.8
			C40.8,34.6,41.2,34.2,41.2,33.8"/>
		<path fill="#FFFFFF" d="M48,33.8c0-0.5-0.4-0.8-0.8-0.8s-0.8,0.4-0.8,0.8c0,0.5,0.4,0.8,0.8,0.8S48,34.2,48,33.8"/>
		<path fill="#FFFFFF" d="M41.2,26.9c0-0.5-0.4-0.8-0.8-0.8c-0.4,0-0.8,0.4-0.8,0.8c0,0.5,0.4,0.8,0.8,0.8
			C40.8,27.8,41.2,27.4,41.2,26.9"/>
		<path fill="#FFFFFF" d="M48,26.9c0-0.5-0.4-0.8-0.8-0.8s-0.8,0.4-0.8,0.8c0,0.5,0.4,0.8,0.8,0.8S48,27.4,48,26.9"/>
		<path fill="#FFFFFF" d="M41.2,40.6c0-0.5-0.4-0.8-0.8-0.8c-0.4,0-0.8,0.4-0.8,0.8s0.4,0.8,0.8,0.8C40.8,41.4,41.2,41,41.2,40.6"/>
		<path fill="#FFFFFF" d="M48,40.6c0-0.5-0.4-0.8-0.8-0.8s-0.8,0.4-0.8,0.8s0.4,0.8,0.8,0.8S48,41,48,40.6"/>
		<path fill="#FFFFFF" d="M41.2,47.4c0-0.4-0.4-0.8-0.8-0.8c-0.4,0-0.8,0.4-0.8,0.8c0,0.5,0.4,0.8,0.8,0.8
			C40.8,48.2,41.2,47.8,41.2,47.4"/>
		<path fill="none" stroke="#FFFFFF" stroke-width="0.85" stroke-linecap="round" stroke-miterlimit="10" d="M15,12.9
			c0,1.3,1,2.3,2.3,2.3c1.3,0,2.3-1,2.3-2.3"/>
		
			<line fill="none" stroke="#FFFFFF" stroke-width="0.85" stroke-linecap="round" stroke-miterlimit="10" x1="17.3" y1="12.9" x2="17.3" y2="3"/>
		<path fill="none" stroke="#FFFFFF" stroke-width="0.85" stroke-linecap="round" stroke-miterlimit="10" d="M41.1,12.9
			c0,1.3,1,2.3,2.3,2.3c1.3,0,2.3-1,2.3-2.3"/>
		
			<line fill="none" stroke="#FFFFFF" stroke-width="0.85" stroke-linecap="round" stroke-miterlimit="10" x1="43.4" y1="12.9" x2="43.4" y2="3"/>
		<path fill="none" stroke="#FFFFFF" stroke-width="0.85" stroke-linecap="round" stroke-miterlimit="10" d="M5.1,54.7
			c0,0.9,0.7,1.6,1.6,1.6h47.5c0.9,0,1.6-0.7,1.6-1.6v-36H5.1V54.7z"/>
	</g>
</g>
</svg>
