<?xml version="1.0" encoding="utf-8"?>
<!-- Generator: Adobe Illustrator 16.0.0, SVG Export Plug-In . SVG Version: 6.00 Build 0)  -->
<!DOCTYPE svg PUBLIC "-//W3C//DTD SVG 1.1//EN" "http://www.w3.org/Graphics/SVG/1.1/DTD/svg11.dtd">
<svg version="1.1" id="Ebene_1" xmlns="http://www.w3.org/2000/svg" xmlns:xlink="http://www.w3.org/1999/xlink" x="0px" y="0px"
	 width="1022px" height="500.003px" viewBox="0 0 1022 500.003" enable-background="new 0 0 1022 500.003" xml:space="preserve">
<path d="M1056.832,163.167c0,0-43.271-4.501-64.302-8.917C917.413,131.858,819.186,38.736,807.042,26.494
	c-6.103-5.695-13.226-9.949-22.926-13.202c-0.691-0.232-1.398-0.46-2.117-0.683c-3.601-1.112-7.541-2.101-11.896-2.985
	c-0.871-0.178-1.762-0.35-2.664-0.519c-1.811-0.337-3.688-0.66-5.641-0.966c-8.777-1.383-19.034-2.471-31.184-3.38
	c-3.809-0.285-7.832-0.554-12.098-0.809c-1.422-0.084-2.869-0.168-4.346-0.25c-4.426-0.244-9.098-0.475-14.033-0.689
	c-2.467-0.108-5-0.212-7.604-0.312c-0.867-0.034-1.742-0.066-2.625-0.1c-1.764-0.065-3.562-0.129-5.387-0.191
	c-1.828-0.062-3.688-0.123-5.578-0.182c-1.893-0.06-3.812-0.117-5.771-0.174c-5.867-0.167-12.027-0.322-18.504-0.463
	c-2.158-0.047-4.354-0.092-6.58-0.137c-2.229-0.044-4.494-0.086-6.795-0.127s-4.637-0.081-7.01-0.119
	c-2.375-0.039-4.785-0.075-7.232-0.11c-4.896-0.07-9.941-0.134-15.146-0.194c-1.301-0.015-2.61-0.029-3.933-0.043
	c-3.961-0.042-8.01-0.081-12.148-0.117c-8.279-0.072-16.923-0.131-25.947-0.178c-3.01-0.016-6.062-0.03-9.154-0.043
	C545.258,0.457,528.711,0.425,511,0.425c-113.35,0-179.027,1.296-219.614,4.334c-12.146,0.909-22.405,1.997-31.185,3.38
	c-1.951,0.307-3.829,0.629-5.639,0.966c-0.904,0.169-1.793,0.341-2.664,0.519c-4.354,0.885-8.296,1.873-11.896,2.985
	c-0.72,0.223-1.426,0.45-2.119,0.683c-9.7,3.253-16.824,7.507-22.926,13.202C202.816,38.736,104.588,131.858,29.471,154.25
	l-59.972,8.25l0.667,374.667l1088.667,4L1056.832,163.167z M879.475,227.758c-6,26.667-14.666,56.667-21.332,78.667
	c-6.668,22-20,43.332-82.668,43.332c-12.213,0-29.463,0-49.324,0h-0.002l-0.002-0.026L296.833,350.5
	c-19.861,0-38.092-0.742-50.307-0.742c-62.666,0-76-21.332-82.666-43.332c-6.667-22-15.334-52-21.334-78.667
	c-5.999-26.666-3.999-45.333,6-60.666c10.001-15.334,73.334-106,86.904-118.667c13.571-12.667,49.763-18,275.571-18
	c225.808,0,262.002,5.333,275.572,18c13.569,12.667,76.901,103.333,86.901,118.667C883.475,182.425,885.475,201.092,879.475,227.758
	z"/>
<path fill="none" stroke="#FFFFFF" stroke-width="0.85" stroke-linecap="round" stroke-miterlimit="10" d="M992.53,154.25
	C917.413,131.858,819.186,38.736,807.042,26.494l0,0c-6.103-5.695-13.226-9.949-22.926-13.202c-0.691-0.232-1.398-0.46-2.117-0.683
	c-3.601-1.112-7.541-2.101-11.896-2.985c-0.871-0.178-1.762-0.35-2.664-0.519c-1.811-0.337-3.688-0.66-5.641-0.966
	c-8.777-1.383-19.034-2.471-31.184-3.38c-3.809-0.285-7.832-0.554-12.098-0.809c-1.422-0.084-2.869-0.168-4.346-0.25
	c-4.426-0.244-9.098-0.475-14.033-0.689c-2.467-0.108-5-0.212-7.604-0.312c-0.867-0.034-1.742-0.066-2.625-0.1
	c-1.764-0.065-3.562-0.129-5.387-0.191c-1.828-0.062-3.688-0.123-5.578-0.182c-1.893-0.06-3.812-0.117-5.771-0.174
	c-5.867-0.167-12.027-0.322-18.504-0.463c-2.158-0.047-4.354-0.092-6.58-0.137c-2.229-0.044-4.494-0.086-6.795-0.127
	s-4.637-0.081-7.01-0.119c-2.375-0.039-4.785-0.075-7.232-0.11c-4.896-0.07-9.941-0.134-15.146-0.194
	c-1.301-0.015-2.61-0.029-3.933-0.043c-3.961-0.042-8.01-0.081-12.148-0.117c-8.279-0.072-16.923-0.131-25.947-0.178
	c-3.01-0.016-6.062-0.03-9.154-0.043C545.258,0.457,528.711,0.425,511,0.425c-113.35,0-179.027,1.296-219.614,4.334
	c-12.146,0.909-22.405,1.997-31.185,3.38c-1.951,0.307-3.829,0.629-5.639,0.966c-0.904,0.169-1.793,0.341-2.664,0.519
	c-4.354,0.885-8.296,1.873-11.896,2.985c-0.72,0.223-1.426,0.45-2.119,0.683c-9.7,3.253-16.824,7.507-22.926,13.202l0,0
	C202.816,38.736,104.588,131.858,29.471,154.25"/>
<path fill="#FFFFFF" d="M992.53,154.25c10.355,3.088,20.278,4.842,29.471,4.842L992.53,154.25z"/>
<path fill="#FFFFFF" d="M29.471,154.25L0,159.092C9.192,159.092,19.114,157.337,29.471,154.25z"/>
<path fill="none" stroke="#FFFFFF" stroke-width="0.85" stroke-linecap="round" stroke-miterlimit="10" d="M726.146,349.772
	c0,0,37.114-0.015,49.328-0.015c62.668,0,76-21.332,82.668-43.332c6.666-22,15.331-52,21.332-78.667c6-26.666,4-45.333-6-60.666
	c-10-15.334-73.332-106-86.901-118.667c-13.57-12.667-49.765-18-275.572-18c-225.808,0-262,5.333-275.571,18
	c-13.57,12.667-76.903,103.333-86.904,118.667c-9.999,15.333-11.999,34-6,60.666c6,26.667,14.667,56.667,21.334,78.667
	c6.666,22,20,43.332,82.666,43.332c12.214,0,49.327,0,49.327,0l430.315-0.006"/>
</svg>
