<?xml version="1.0" encoding="utf-8"?>
<!-- Generator: Adobe Illustrator 20.1.0, SVG Export Plug-In . SVG Version: 6.00 Build 0)  -->
<svg version="1.1" id="Ebene_1" xmlns="http://www.w3.org/2000/svg" xmlns:xlink="http://www.w3.org/1999/xlink" x="0px" y="0px"
	 viewBox="0 0 1022 500" style="enable-background:new 0 0 1022 500;" xml:space="preserve">
<style type="text/css">
	.st0{fill:none;stroke:#FFFFFF;stroke-width:0.85;stroke-linecap:round;stroke-miterlimit:10;}
</style>
<path d="M1056.8,163.2c0,0-43.3-4.5-64.3-8.9C917.4,131.9,819.2,38.7,807,26.5c-6.1-5.7-13.2-9.9-22.9-13.2
	c-0.7-0.2-1.4-0.5-2.1-0.7c-3.6-1.1-7.5-2.1-11.9-3c-0.9-0.2-1.8-0.4-2.7-0.5c-1.8-0.3-3.7-0.7-5.6-1c-8.8-1.4-19-2.5-31.2-3.4
	c-3.8-0.3-7.8-0.6-12.1-0.8c-1.4-0.1-2.9-0.2-4.3-0.2c-4.4-0.2-9.1-0.5-14-0.7c-2.5-0.1-5-0.2-7.6-0.3c-0.9,0-1.7-0.1-2.6-0.1
	c-1.8-0.1-3.6-0.1-5.4-0.2c-1.8-0.1-3.7-0.1-5.6-0.2c-1.9-0.1-3.8-0.1-5.8-0.2c-5.9-0.2-12-0.3-18.5-0.5c-2.2,0-4.4-0.1-6.6-0.1
	c-2.2,0-4.5-0.1-6.8-0.1s-4.6-0.1-7-0.1c-2.4,0-4.8-0.1-7.2-0.1c-4.9-0.1-9.9-0.1-15.1-0.2c-1.3,0-2.6,0-3.9,0c-4,0-8-0.1-12.1-0.1
	c-8.3-0.1-16.9-0.1-25.9-0.2c-3,0-6.1,0-9.2,0c-15.5-0.1-32-0.1-49.7-0.1c-113.4,0-179,1.3-219.6,4.3c-12.1,0.9-22.4,2-31.2,3.4
	c-2,0.3-3.8,0.6-5.6,1c-0.9,0.2-1.8,0.3-2.7,0.5c-4.4,0.9-8.3,1.9-11.9,3c-0.7,0.2-1.4,0.4-2.1,0.7c-9.7,3.3-16.8,7.5-22.9,13.2
	C202.8,38.7,104.6,131.9,29.5,154.2l-16,3.1l-15.3,1.3l-29.7,4.9l1.7,373.7l1088.7,4L1056.8,163.2z M879.5,227.8
	c-6,26.7-14.7,56.7-21.3,78.7c-6.7,22-20,43.3-82.7,43.3c-12.2,0-29.5,0-49.3,0h0l0,0l-429.3,0.8c-19.9,0-38.1-0.7-50.3-0.7
	c-62.7,0-76-21.3-82.7-43.3c-6.7-22-15.3-52-21.3-78.7c-6-26.7-4-45.3,6-60.7c10-15.3,73.3-106,86.9-118.7
	c13.6-12.7,49.8-18,275.6-18s262,5.3,275.6,18c13.6,12.7,76.9,103.3,86.9,118.7C883.5,182.4,885.5,201.1,879.5,227.8z"/>
<path class="st0" d="M1033.9,160.5c0,0-32-3.4-41.3-6.3C917.4,131.9,819.2,38.7,807,26.5l0,0c-6.1-5.7-13.2-9.9-22.9-13.2
	c-0.7-0.2-1.4-0.5-2.1-0.7c-3.6-1.1-7.5-2.1-11.9-3c-0.9-0.2-1.8-0.4-2.7-0.5c-1.8-0.3-3.7-0.7-5.6-1c-8.8-1.4-19-2.5-31.2-3.4
	c-3.8-0.3-7.8-0.6-12.1-0.8c-1.4-0.1-2.9-0.2-4.3-0.2c-4.4-0.2-9.1-0.5-14-0.7c-2.5-0.1-5-0.2-7.6-0.3c-0.9,0-1.7-0.1-2.6-0.1
	c-1.8-0.1-3.6-0.1-5.4-0.2c-1.8-0.1-3.7-0.1-5.6-0.2c-1.9-0.1-3.8-0.1-5.8-0.2c-5.9-0.2-12-0.3-18.5-0.5c-2.2,0-4.4-0.1-6.6-0.1
	c-2.2,0-4.5-0.1-6.8-0.1s-4.6-0.1-7-0.1c-2.4,0-4.8-0.1-7.2-0.1c-4.9-0.1-9.9-0.1-15.1-0.2c-1.3,0-2.6,0-3.9,0c-4,0-8-0.1-12.1-0.1
	c-8.3-0.1-16.9-0.1-25.9-0.2c-3,0-6.1,0-9.2,0c-15.5-0.1-32-0.1-49.7-0.1c-113.4,0-179,1.3-219.6,4.3c-12.1,0.9-22.4,2-31.2,3.4
	c-2,0.3-3.8,0.6-5.6,1c-0.9,0.2-1.8,0.3-2.7,0.5c-4.4,0.9-8.3,1.9-11.9,3c-0.7,0.2-1.4,0.4-2.1,0.7c-9.7,3.3-16.8,7.5-22.9,13.2l0,0
	C202.8,38.7,104.6,131.9,29.5,154.2c0,0-16.8,4.4-31.9,4.4"/>
<path class="st0" d="M726.1,349.8c0,0,37.1,0,49.3,0c62.7,0,76-21.3,82.7-43.3c6.7-22,15.3-52,21.3-78.7c6-26.7,4-45.3-6-60.7
	c-10-15.3-73.3-106-86.9-118.7c-13.6-12.7-49.8-18-275.6-18c-225.8,0-262,5.3-275.6,18c-13.6,12.7-76.9,103.3-86.9,118.7
	c-10,15.3-12,34-6,60.7c6,26.7,14.7,56.7,21.3,78.7c6.7,22,20,43.3,82.7,43.3c12.2,0,49.3,0,49.3,0L726.1,349.8"/>
</svg>
