<svg xmlns="http://www.w3.org/2000/svg" viewBox="0 0 92.27 92.27"><defs><style>.cls-1{fill:#010101;stroke:#7c7c7d;stroke-width:0.75px;}.cls-1,.cls-2{stroke-miterlimit:10;}.cls-2{fill:none;stroke:#fff;stroke-linecap:round;stroke-width:0.85px;}.cls-3{fill:#e35610;}.cls-4,.cls-5,.cls-6{fill:#f0ab04;}.cls-5{opacity:0.7;}.cls-6{opacity:0.4;}</style></defs><title>Car Icon</title><g id="Ebene_2" data-name="Ebene 2"><g id="Ebene_1-2" data-name="Ebene 1"><rect class="cls-1" x="0.38" y="0.38" width="91.52" height="91.52" rx="11.05" ry="11.05"/><path class="cls-2" d="M77.67,51.56v-.07l1.78,0c1,0,1.63-.67,1.63-1V45.92c0-.79,0-1.87-.51-2.33-.34-.31-1-.85-1.1-.94s-.18-.92-.27-1.39c-.15-.71-.52-1.29-2-2.1a66.06,66.06,0,0,0-7-3h0l-2.11,0c-8-5-12-6.77-15.16-7.92l-.12,0c-1.63-.59-1.36-1.27-11.12-1.11-13,.21-18.85,2-18.92,2.06l-.46.1c-.38.07-.63.12-.63.38s.45.58.62.7L17,35.41h0s-.14.34-.49,1.31a10.49,10.49,0,0,0-.38,2.76c-.84.31-1.18.68-1.18,1.27,0,.15,0,.45,0,.83,0,1.17-.06,2.94,0,3.49.1.72.71,3.78.92,4.61.16.65,1.72,1.57,2.28,1.88m17.44,0H59.79"/><circle class="cls-2" cx="26.66" cy="49.28" r="6.57"/><path class="cls-2" d="M35.58,51.57a9.21,9.21,0,0,0-8.92-11.5"/><path class="cls-2" d="M59.79,51.57a9.23,9.23,0,0,1,1.12-7.18"/><circle class="cls-2" cx="68.71" cy="49.28" r="6.57"/><path class="cls-2" d="M60.91,36.09s-27-.06-27.68-.36-.67-5.1,0-5.81,15.61-1.88,19.35,0"/><line class="cls-2" x1="42.08" y1="28.97" x2="43.93" y2="36"/><path class="cls-2" d="M22.36,36.89"/><path class="cls-2" d="M38.34,59.53"/><path class="cls-2" d="M48,59.53"/><path class="cls-2" d="M38.34,65.42"/><path class="cls-2" d="M48,65.42"/><circle class="cls-2" cx="22.36" cy="36.89" r="1.04"/><rect class="cls-3" x="14.04" y="58.51" width="67.96" height="5.87"/><rect class="cls-4" x="65.01" y="58.51" width="16.99" height="5.87"/><rect class="cls-5" x="48.02" y="58.51" width="16.99" height="5.87"/><rect class="cls-6" x="31.03" y="58.51" width="16.99" height="5.87"/></g></g></svg>