<svg xmlns="http://www.w3.org/2000/svg" viewBox="0 0 99.67 92.99"><defs><style>.cls-1{fill:#ea9100;stroke-miterlimit:10;}.cls-1,.cls-5,.cls-6{stroke:#fff;}.cls-1,.cls-5{stroke-width:1.5px;}.cls-2{fill:#e97705;}.cls-3{fill:#e15711;}.cls-4{fill:#efab02;}.cls-5,.cls-6{fill:none;stroke-linecap:round;stroke-linejoin:round;}</style></defs><title>Icon_Flower_Watch</title><g id="Ebene_2" data-name="Ebene 2"><g id="Isolationsmodus"><path class="cls-1" d="M59.9,50.25A10.4,10.4,0,1,1,49.5,39.86,10.39,10.39,0,0,1,59.9,50.25Z"/><path class="cls-2" d="M49.5,60.06a9.81,9.81,0,1,1,0-19.62"/><path class="cls-3" d="M43.69,58.16a9.81,9.81,0,0,1,.13-15.91"/><path class="cls-4" d="M55.33,58.16a9.81,9.81,0,0,0-.13-15.91"/><path class="cls-5" d="M43.35,41.87,34.73,31.42S31.61,10.08,49.5.75"/><path class="cls-5" d="M64.09,31.41s21.34-10.34,34.83,4.67"/><path class="cls-5" d="M59.16,54.09l13.49,4.45s16.88,16,6.16,33.09"/><path class="cls-5" d="M49.32,75S39.86,95.41,20.17,91"/><path class="cls-5" d="M39.75,53.86,26.16,58.54S4.11,55.61.75,35.71"/><path class="cls-5" d="M55.7,41.91l8.39-10.5S67.4,10.08,49.5.75"/><path class="cls-5" d="M34.73,31.42S14.24,20.7.75,35.71"/><path class="cls-5" d="M26.16,58.54S9.45,73.89,20.17,91"/><path class="cls-5" d="M49.25,60.64,49.32,75s9.8,21,29.49,16.58"/><path class="cls-5" d="M72.66,58.54S95.56,56,98.92,36.08"/><line class="cls-5" x1="49.5" y1="39.86" x2="49.5" y2="30.56"/><line class="cls-6" x1="59.46" y1="47.25" x2="70.77" y2="43.94"/><line class="cls-5" x1="55.05" y1="59.03" x2="61.85" y2="68.5"/><line class="cls-5" x1="43.26" y1="58.54" x2="37.29" y2="67.62"/><line class="cls-6" x1="39.11" y1="47.13" x2="29.06" y2="43.94"/></g></g></svg>