<svg xmlns="http://www.w3.org/2000/svg" viewBox="0 0 59.66 79.27"><defs><style>.cls-1{fill:none;stroke:#fff;stroke-miterlimit:10;}</style></defs><title>Element 2</title><g id="Ebene_2" data-name="Ebene 2"><g id="Ebene_3" data-name="Ebene 3"><path class="cls-1" d="M53.37,64s-1.49-10.51-2-13.14S52.42,29,46.86,25.94a76,76,0,0,0-9.17-4.42l-2.35,8,5,3.56-.13,4.42-2.82,2.7s-3.66-2.89-3.85-6.72-.9-9.85-4.42-11.46-5.5-.3-5.33,3.82S26.63,36.51,25,43.15c0,5.09,5.53,12.47,8.21,14.49S37.38,69.32,37.47,70,53.37,64,53.37,64Z"/><path class="cls-1" d="M27.11,50.36a6,6,0,0,1-5.42.69L5.54,46.32A7,7,0,0,1,.78,37.63l9.35-32A7,7,0,0,1,18.83.89L35,5.61a7,7,0,0,1,4.76,8.69l-6,20.52"/><polyline class="cls-1" points="11.42 48.04 24.63 2.86 17.3 0.63 4.11 45.73"/><polygon class="cls-1" points="35.05 71.03 55.78 63.44 58.99 71.03 37.1 78.62 35.05 71.03"/></g></g></svg>