<?xml version="1.0" encoding="utf-8"?>
<!-- Generator: Adobe Illustrator 21.1.0, SVG Export Plug-In . SVG Version: 6.00 Build 0)  -->
<svg version="1.1" id="Pictograms" xmlns="http://www.w3.org/2000/svg" xmlns:xlink="http://www.w3.org/1999/xlink" x="0px" y="0px"
	 viewBox="0 0 240 240" style="enable-background:new 0 0 240 240;" xml:space="preserve">
<style type="text/css">
	.st0{fill:#0095DB;}
	.st1{opacity:0.4;fill:#FBBA00;}
	.st2{opacity:0.7;fill:#FBBA00;}
	.st3{fill:#FBBA00;}
	.st4{fill:#FFFFFF;}
	.st5{fill:#AF1280;}
	.st6{fill:#EC6608;}
	.st7{fill:#76B82A;}
</style>
<g>
	<g>
		<rect x="88" y="74" class="st0" width="12" height="88"/>
		<g>
			<rect x="88" y="118" class="st1" width="12" height="22"/>
			<rect x="88" y="96" class="st2" width="12" height="22"/>
			<rect x="88" y="74" class="st3" width="12" height="22"/>
		</g>
	</g>
	<g>
		<rect x="140" y="74" class="st0" width="12" height="88"/>
		<g>
			<rect x="140" y="118" class="st1" width="12" height="22"/>
			<rect x="140" y="96" class="st2" width="12" height="22"/>
			<rect x="140" y="74" class="st3" width="12" height="22"/>
		</g>
	</g>
	<path class="st4" d="M96,62c0-0.9,0.3-4,4-4h40c0.9,0,4,0.3,4,4v8H96V62z M182,152c0,5.5-4.5,10-10,10H68c-5.5,0-10-4.5-10-10V84
		c0-5.5,4.5-10,10-10h104c5.5,0,10,4.5,10,10V152z M172,70h-24v-8c0-5.9-4.8-8-8-8h-40c-5.9,0-8,4.8-8,8v8H68c-7.7,0-14,6.3-14,14
		v68c0,7.7,6.3,14,14,14h104c7.7,0,14-6.3,14-14V84C186,76.3,179.7,70,172,70z M94,170c-4.4,0-8,3.6-8,8s3.6,8,8,8s8-3.6,8-8
		S98.4,170,94,170z M94,182c-2.2,0-4-1.8-4-4s1.8-4,4-4s4,1.8,4,4S96.2,182,94,182z M146,170c-4.4,0-8,3.6-8,8s3.6,8,8,8s8-3.6,8-8
		S150.4,170,146,170z M146,182c-2.2,0-4-1.8-4-4s1.8-4,4-4s4,1.8,4,4S148.2,182,146,182z"/>
</g>
<g>
	<g>
		<rect x="348" y="74" class="st5" width="12" height="88"/>
		<g>
			<rect x="348" y="118" class="st1" width="12" height="22"/>
			<rect x="348" y="96" class="st2" width="12" height="22"/>
			<rect x="348" y="74" class="st3" width="12" height="22"/>
		</g>
	</g>
	<g>
		<rect x="400" y="74" class="st5" width="12" height="88"/>
		<g>
			<rect x="400" y="118" class="st1" width="12" height="22"/>
			<rect x="400" y="96" class="st2" width="12" height="22"/>
			<rect x="400" y="74" class="st3" width="12" height="22"/>
		</g>
	</g>
	<path class="st4" d="M356,62c0-0.9,0.3-4,4-4h40c0.9,0,4,0.3,4,4v8h-48V62z M442,152c0,5.5-4.5,10-10,10H328c-5.5,0-10-4.5-10-10
		V84c0-5.5,4.5-10,10-10h104c5.5,0,10,4.5,10,10V152z M432,70h-24v-8c0-5.9-4.8-8-8-8h-40c-5.9,0-8,4.8-8,8v8h-24
		c-7.7,0-14,6.3-14,14v68c0,7.7,6.3,14,14,14h104c7.7,0,14-6.3,14-14V84C446,76.3,439.7,70,432,70z M354,170c-4.4,0-8,3.6-8,8
		s3.6,8,8,8s8-3.6,8-8S358.4,170,354,170z M354,182c-2.2,0-4-1.8-4-4s1.8-4,4-4s4,1.8,4,4S356.2,182,354,182z M406,170
		c-4.4,0-8,3.6-8,8s3.6,8,8,8s8-3.6,8-8S410.4,170,406,170z M406,182c-2.2,0-4-1.8-4-4s1.8-4,4-4s4,1.8,4,4S408.2,182,406,182z"/>
</g>
<g>
	<g>
		<rect x="608" y="74" class="st6" width="12" height="88"/>
		<g>
			<rect x="608" y="118" class="st1" width="12" height="22"/>
			<rect x="608" y="96" class="st2" width="12" height="22"/>
			<rect x="608" y="74" class="st3" width="12" height="22"/>
		</g>
	</g>
	<g>
		<rect x="660" y="74" class="st6" width="12" height="88"/>
		<g>
			<rect x="660" y="118" class="st1" width="12" height="22"/>
			<rect x="660" y="96" class="st2" width="12" height="22"/>
			<rect x="660" y="74" class="st3" width="12" height="22"/>
		</g>
	</g>
	<path class="st4" d="M616,62c0-0.9,0.3-4,4-4h40c0.9,0,4,0.3,4,4v8h-48V62z M702,152c0,5.5-4.5,10-10,10H588c-5.5,0-10-4.5-10-10
		V84c0-5.5,4.5-10,10-10h104c5.5,0,10,4.5,10,10V152z M692,70h-24v-8c0-5.9-4.8-8-8-8h-40c-5.9,0-8,4.8-8,8v8h-24
		c-7.7,0-14,6.3-14,14v68c0,7.7,6.3,14,14,14h104c7.7,0,14-6.3,14-14V84C706,76.3,699.7,70,692,70z M614,170c-4.4,0-8,3.6-8,8
		s3.6,8,8,8s8-3.6,8-8S618.4,170,614,170z M614,182c-2.2,0-4-1.8-4-4s1.8-4,4-4s4,1.8,4,4S616.2,182,614,182z M666,170
		c-4.4,0-8,3.6-8,8s3.6,8,8,8s8-3.6,8-8S670.4,170,666,170z M666,182c-2.2,0-4-1.8-4-4s1.8-4,4-4s4,1.8,4,4S668.2,182,666,182z"/>
</g>
<g>
	<g>
		<rect x="868" y="74" class="st7" width="12" height="88"/>
		<g>
			<rect x="868" y="118" class="st1" width="12" height="22"/>
			<rect x="868" y="96" class="st2" width="12" height="22"/>
			<rect x="868" y="74" class="st3" width="12" height="22"/>
		</g>
	</g>
	<g>
		<rect x="920" y="74" class="st7" width="12" height="88"/>
		<g>
			<rect x="920" y="118" class="st1" width="12" height="22"/>
			<rect x="920" y="96" class="st2" width="12" height="22"/>
			<rect x="920" y="74" class="st3" width="12" height="22"/>
		</g>
	</g>
	<path class="st4" d="M876,62c0-0.9,0.3-4,4-4h40c0.9,0,4,0.3,4,4v8h-48V62z M962,152c0,5.5-4.5,10-10,10H848c-5.5,0-10-4.5-10-10
		V84c0-5.5,4.5-10,10-10h104c5.5,0,10,4.5,10,10V152z M952,70h-24v-8c0-5.9-4.8-8-8-8h-40c-5.9,0-8,4.8-8,8v8h-24
		c-7.7,0-14,6.3-14,14v68c0,7.7,6.3,14,14,14h104c7.7,0,14-6.3,14-14V84C966,76.3,959.7,70,952,70z M874,170c-4.4,0-8,3.6-8,8
		s3.6,8,8,8s8-3.6,8-8S878.4,170,874,170z M874,182c-2.2,0-4-1.8-4-4s1.8-4,4-4s4,1.8,4,4S876.2,182,874,182z M926,170
		c-4.4,0-8,3.6-8,8s3.6,8,8,8s8-3.6,8-8S930.4,170,926,170z M926,182c-2.2,0-4-1.8-4-4s1.8-4,4-4s4,1.8,4,4S928.2,182,926,182z"/>
</g>
</svg>
