<?xml version="1.0" encoding="utf-8"?>
<!-- Generator: Adobe Illustrator 21.0.2, SVG Export Plug-In . SVG Version: 6.00 Build 0)  -->
<svg version="1.1" id="Ebene_1" xmlns="http://www.w3.org/2000/svg" xmlns:xlink="http://www.w3.org/1999/xlink" x="0px" y="0px"
	 viewBox="0 0 120 120" style="enable-background:new 0 0 120 120;" xml:space="preserve">
<style type="text/css">
	.st0{fill:#008FD3;}
	.st1{opacity:0.4;fill:#F0AB00;}
	.st2{opacity:0.7;fill:#F0AB00;}
	.st3{fill:#F0AB00;}
	.st4{fill:#FFFFFF;}
	.st5{fill:#970A82;}
	.st6{fill:#E35500;}
</style>
<g>
	<g>
		<path class="st0" d="M-68.4,27h-7.4h-14.8h-14.8h-7.4c-4.1,0-7.4,3.3-7.4,7.4v59c0,4.1,3.3,7.4,7.4,7.4h7.4h14.8h14.8h7.4
			c4.1,0,7.4-3.3,7.4-7.4v-59C-61,30.3-64.3,27-68.4,27z"/>
		<g>
			<rect x="-105.2" y="27" class="st1" width="14.8" height="73.8"/>
			<rect x="-90.5" y="27" class="st2" width="14.8" height="73.8"/>
			<path class="st3" d="M-68.4,27h-7.4v73.8h7.4c4.1,0,7.4-3.3,7.4-7.4v-59C-61,30.3-64.3,27-68.4,27z"/>
		</g>
	</g>
	<path class="st4" d="M-104,113c-2.7,0-4.9-2.2-4.9-4.9c0-2.7,2.2-4.9,4.9-4.9c2.7,0,4.9,2.2,4.9,4.9C-99.1,110.8-101.3,113-104,113
		z M-104,105.6c-1.4,0-2.5,1.1-2.5,2.5s1.1,2.5,2.5,2.5s2.5-1.1,2.5-2.5S-102.7,105.6-104,105.6z M-77,113c-2.7,0-4.9-2.2-4.9-4.9
		c0-2.7,2.2-4.9,4.9-4.9c2.7,0,4.9,2.2,4.9,4.9C-72.1,110.8-74.3,113-77,113z M-77,105.6c-1.4,0-2.5,1.1-2.5,2.5s1.1,2.5,2.5,2.5
		s2.5-1.1,2.5-2.5S-75.6,105.6-77,105.6z M-102.8,36.8h-2.5v54.1h2.5V36.8z M-75.8,36.8h-2.5v54.1h2.5V36.8z M-105.2,12.2v4.9h6.1
		V27h2.5v-9.8h12.3V27h2.5v-9.8h6.1v-4.9H-105.2z"/>
</g>
<g>
	<path class="st5" d="M84.7,49.8l0-23.9l-24-5.7l-24,5.7l0,23.9l24,9.9L84.7,49.8z"/>
	<g>
		<polygon class="st3" points="36.6,39.6 46.4,43.3 46.4,30.2 36.6,27.1 		"/>
		<polygon class="st3" points="36.6,49.8 46.4,53.9 46.4,45.3 36.6,41.6 		"/>
		<polygon class="st3" points="38.2,25.6 47.1,28.5 57.1,25.8 47.7,23.4 		"/>
		<polygon class="st3" points="60.7,20.3 51.4,22.5 60.6,24.9 69.9,22.5 		"/>
	</g>
	<g>
		<polygon class="st2" points="48.2,44 59.7,48.3 59.7,34.4 48.2,30.8 		"/>
		<polygon class="st2" points="60.7,26.8 50.3,29.5 60.5,32.8 60.6,32.8 71,29.5 		"/>
		<polygon class="st2" points="48.2,54.6 59.7,59.3 59.7,50.3 48.2,46 		"/>
	</g>
	<g>
		<polygon class="st1" points="61.6,34.4 61.6,48.3 73.1,44 73.1,30.8 		"/>
		<polygon class="st1" points="61.6,59.3 73.1,54.6 73.1,46 61.6,50.3 		"/>
	</g>
	<path class="st4" d="M95.8,46.7l14.4-11.3l-21.9-5.6v1.9l17.9,4.5L93.7,46l-5.4-1.6v1.9l2.8,0.8l-16.3,6.7v-8.6l9.8-3.7v-1.9
		l-9.8,3.7V30.2l9.8-3.1V26l-1.6-0.4l-8.9,2.9l-10-2.6l9.4-2.5l-3.7-0.9l-9.3,2.4l-9.3-2.4l-3.7,0.9l9.4,2.5l-10,2.6l-8.9-2.9
		L36.6,26v1.1l9.8,3.1v13.1l-9.8-3.7v1.9l9.8,3.7v8.6l-16.3-6.7l2.8-0.8v-1.9L27.6,46l-12.5-9.8L33,31.7v-1.9L11,35.4l14.4,11.3
		L5.3,52.6l21.2,10.9v26L60.6,105l34.1-15.5v-26L116,52.6L95.8,46.7z M61.6,48.3V34.4l11.5-3.7V44L61.6,48.3z M73.1,46v8.7
		l-11.5,4.7v-9.1L73.1,46z M60.7,26.8L71,29.5l-10.3,3.3l-0.2,0l-10.2-3.3L60.7,26.8z M48.2,30.8l11.5,3.7v13.9L48.2,44V30.8z
		 M48.2,46l11.5,4.3v9.1l-11.5-4.7V46z M10.1,53.1l17.1-5l0,0l0.1,0l30.9,12.7l-18.6,7.5L10.1,53.1z M28.3,88.4V64.4l11.3,5.8
		L59.7,62v40.6L28.3,88.4z M93,88.4l-31.4,14.2V62l20.1,8.2L93,64.4V88.4z M81.6,68.2L63,60.7L93.9,48l0.1,0l0,0l17.1,5L81.6,68.2z"
		/>
</g>
<g>
	<g>
		
			<rect x="195.5" y="7.2" transform="matrix(6.123234e-17 -1 1 6.123234e-17 173.162 227.8383)" class="st0" width="10.1" height="40.2"/>
		<g>
			
				<rect x="190.4" y="22.3" transform="matrix(6.123234e-17 -1 1 6.123234e-17 168.135 222.8113)" class="st1" width="10.1" height="10.1"/>
			
				<rect x="210.6" y="22.3" transform="matrix(6.123234e-17 -1 1 6.123234e-17 188.2431 242.9193)" class="st3" width="10.1" height="10.1"/>
			
				<rect x="200.5" y="22.3" transform="matrix(6.123234e-17 -1 1 6.123234e-17 178.1891 232.8653)" class="st2" width="10.1" height="10.1"/>
		</g>
	</g>
	<path class="st4" d="M223.1,19.8h-45.2v15.1h45.2V19.8z M220.6,32.4h-40.2V22.3h40.2V32.4z M201.5,58.6l-1-1.3l-1,1.3
		c-0.8,1-7.8,10.3-7.8,14.8c0,4.9,3.9,8.8,8.8,8.8s8.8-3.9,8.8-8.8C209.3,68.9,202.3,59.7,201.5,58.6z M200.5,79.7
		c-3.5,0-6.3-2.8-6.3-6.3c0-2.4,3.5-8.1,6.3-11.9c2.8,3.8,6.3,9.5,6.3,11.9C206.8,76.9,204,79.7,200.5,79.7z M239.1,31.5l-1.8,1.8
		l6.7,6.7h-7v13.8h7.5v32.7c0,1.2-0.3,3.1-2.5,3.1s-2.5-2-2.5-3.1V66.3c0-3.7-3-5-5-5h-3.8V19.8c0-4.2-3.4-7.5-7.5-7.5h-45.2
		c-4.2,0-7.5,3.4-7.5,7.5v81.7H159v2.5H242v-2.5h-11.3V63.8h3.8c0.6,0,2.5,0.2,2.5,2.5v20.1c0,3.4,2,5.7,5,5.7s5-2.2,5-5.7V53.7
		V42.4v-2.5v-0.5L239.1,31.5z M177.9,14.8h45.2c2.8,0,5,2.3,5,5v20.1h-55.3V19.8C172.9,17,175.1,14.8,177.9,14.8z M172.9,101.5V42.4
		h55.3v59.1H172.9z M244.5,51.2h-5v-8.8h5V51.2z"/>
</g>
<g>
	<path class="st4" d="M396.4,66.1l-29.7,3.2V46l9.1-1.1l8.7-8.2l12.2-1.6l-0.3-1.9l-12.8,1.7l-8.6,8.2l-8.2,1v-20V23L333,19l-31.6,4
		v73l31.6-4l33.7,4V71.3l29.9-3.3L396.4,66.1z M351.3,69.2l13.5,1.6V79l-13.5-1.5V69.2z M351.3,67.3v-23l13.5,1.6v23L351.3,67.3z
		 M332.1,90.2l-11.5,1.4v-23l11.5-1.5V90.2z M349.4,42.1l-15.4-1.8V21.1l9.6,1.1v9.9l5.8,5.8V42.1z M332.1,65.2l-11.5,1.5v-7.4
		c1.8-0.3,3.1-1.9,3.1-3.8c0-2.1-1.7-3.8-3.8-3.8c-2.1,0-3.8,1.7-3.8,3.8c0,1.7,1.1,3.1,2.6,3.6v8.3l-15.4,15.1V33.1l11.2,11.3
		l17.6-2.2V65.2z M319.9,57.4c-1.1,0-1.9-0.9-1.9-1.9c0-1.1,0.9-1.9,1.9-1.9s1.9,0.9,1.9,1.9C321.8,56.6,320.9,57.4,319.9,57.4z
		 M334.1,42.2l15.4,1.8v23l-15.4-1.8V42.2z M364.8,43.9l-13.5-1.6v-5.2l-5.8-5.8v-8.9l19.2,2.3V43.9z M332.1,21v19.2l-16.9,2.1
		l-11.9-12v-5.7L332.1,21z M303.3,85.1L303.3,85.1l15.4-15v21.8l-15.4,1.9V85.1z M334.1,90.2v-23l15.4,1.8v10.2l15.4,1.7v12.9
		L334.1,90.2z"/>
	<g>
		<polygon class="st6" points="397.5,92 366.7,95.9 366.7,22.9 397.5,19.2 		"/>
		<g>
			<polygon class="st1" points="397.5,55.6 366.7,59.2 366.7,41 397.5,37.4 			"/>
			<polygon class="st2" points="397.5,73.8 366.7,77.4 366.7,59.2 397.5,55.6 			"/>
			<polygon class="st3" points="397.5,92 366.7,95.9 366.7,77.4 397.5,73.8 			"/>
		</g>
	</g>
</g>
</svg>
