<?xml version="1.0" encoding="utf-8"?>
<!-- Generator: Adobe Illustrator 21.0.2, SVG Export Plug-In . SVG Version: 6.00 Build 0)  -->
<svg version="1.1" id="Ebene_1" xmlns="http://www.w3.org/2000/svg" xmlns:xlink="http://www.w3.org/1999/xlink" x="0px" y="0px"
	 viewBox="0 0 120 120" style="enable-background:new 0 0 120 120;" xml:space="preserve">
<style type="text/css">
	.st0{fill:#008FD3;}
	.st1{opacity:0.4;fill:#F0AB00;}
	.st2{opacity:0.7;fill:#F0AB00;}
	.st3{fill:#F0AB00;}
	.st4{fill:#FFFFFF;}
	.st5{fill:#970A82;}
	.st6{fill:#E35500;}
</style>
<g>
	<g>
		<path class="st0" d="M-210.4,29h-7.4h-14.8h-14.8h-7.4c-4.1,0-7.4,3.3-7.4,7.4v59c0,4.1,3.3,7.4,7.4,7.4h7.4h14.8h14.8h7.4
			c4.1,0,7.4-3.3,7.4-7.4v-59C-203,32.3-206.3,29-210.4,29z"/>
		<g>
			<rect x="-247.2" y="29" class="st1" width="14.8" height="73.8"/>
			<rect x="-232.5" y="29" class="st2" width="14.8" height="73.8"/>
			<path class="st3" d="M-210.4,29h-7.4v73.8h7.4c4.1,0,7.4-3.3,7.4-7.4v-59C-203,32.3-206.3,29-210.4,29z"/>
		</g>
	</g>
	<path class="st4" d="M-246,115c-2.7,0-4.9-2.2-4.9-4.9c0-2.7,2.2-4.9,4.9-4.9c2.7,0,4.9,2.2,4.9,4.9
		C-241.1,112.8-243.3,115-246,115z M-246,107.6c-1.4,0-2.5,1.1-2.5,2.5s1.1,2.5,2.5,2.5s2.5-1.1,2.5-2.5S-244.7,107.6-246,107.6z
		 M-219,115c-2.7,0-4.9-2.2-4.9-4.9c0-2.7,2.2-4.9,4.9-4.9c2.7,0,4.9,2.2,4.9,4.9C-214.1,112.8-216.3,115-219,115z M-219,107.6
		c-1.4,0-2.5,1.1-2.5,2.5s1.1,2.5,2.5,2.5s2.5-1.1,2.5-2.5S-217.6,107.6-219,107.6z M-244.8,38.8h-2.5v54.1h2.5V38.8z M-217.8,38.8
		h-2.5v54.1h2.5V38.8z M-247.2,14.2v4.9h6.1V29h2.5v-9.8h12.3V29h2.5v-9.8h6.1v-4.9H-247.2z"/>
</g>
<g>
	<path class="st5" d="M-57.3,51.8l0-23.9l-24-5.7l-24,5.7l0,23.9l24,9.9L-57.3,51.8z"/>
	<g>
		<polygon class="st3" points="-105.4,41.6 -95.6,45.3 -95.6,32.2 -105.4,29.1 		"/>
		<polygon class="st3" points="-105.4,51.8 -95.6,55.9 -95.6,47.3 -105.4,43.6 		"/>
		<polygon class="st3" points="-103.8,27.6 -94.9,30.5 -84.9,27.8 -94.3,25.4 		"/>
		<polygon class="st3" points="-81.3,22.3 -90.6,24.5 -81.4,26.9 -72.1,24.5 		"/>
	</g>
	<g>
		<polygon class="st2" points="-93.8,46 -82.3,50.3 -82.3,36.4 -93.8,32.8 		"/>
		<polygon class="st2" points="-81.3,28.8 -91.7,31.5 -81.5,34.8 -81.4,34.8 -71,31.5 		"/>
		<polygon class="st2" points="-93.8,56.6 -82.3,61.3 -82.3,52.3 -93.8,48 		"/>
	</g>
	<g>
		<polygon class="st1" points="-80.4,36.4 -80.4,50.3 -68.9,46 -68.9,32.8 		"/>
		<polygon class="st1" points="-80.4,61.3 -68.9,56.6 -68.9,48 -80.4,52.3 		"/>
	</g>
	<path class="st4" d="M-46.2,48.7l14.4-11.3l-21.9-5.6v1.9l17.9,4.5L-48.3,48l-5.4-1.6v1.9l2.8,0.8l-16.3,6.7v-8.6l9.8-3.7v-1.9
		l-9.8,3.7V32.2l9.8-3.1V28l-1.6-0.4l-8.9,2.9l-10-2.6l9.4-2.5l-3.7-0.9l-9.3,2.4l-9.3-2.4l-3.7,0.9l9.4,2.5l-10,2.6l-8.9-2.9
		l-1.6,0.4v1.1l9.8,3.1v13.1l-9.8-3.7v1.9l9.8,3.7v8.6l-16.3-6.7l2.8-0.8v-1.9l-5.4,1.6l-12.5-9.8l17.9-4.5v-1.9l-21.9,5.6
		l14.4,11.3l-20.2,5.9l21.2,10.9v26l34.1,15.5l34.1-15.5v-26L-26,54.6L-46.2,48.7z M-80.4,50.3V36.4l11.5-3.7V46L-80.4,50.3z
		 M-68.9,48v8.7l-11.5,4.7v-9.1L-68.9,48z M-81.3,28.8l10.3,2.7l-10.3,3.3l-0.2,0l-10.2-3.3L-81.3,28.8z M-93.8,32.8l11.5,3.7v13.9
		L-93.8,46V32.8z M-93.8,48l11.5,4.3v9.1l-11.5-4.7V48z M-131.9,55.1l17.1-5l0,0l0.1,0l30.9,12.7l-18.6,7.5L-131.9,55.1z
		 M-113.7,90.4V66.4l11.3,5.8l20.1-8.2v40.6L-113.7,90.4z M-49,90.4l-31.4,14.2V64l20.1,8.2l11.3-5.8V90.4z M-60.4,70.2L-79,62.7
		L-48.1,50l0.1,0l0,0l17.1,5L-60.4,70.2z"/>
</g>
<g>
	<g>
		
			<rect x="53.5" y="9.2" transform="matrix(6.123234e-17 -1 1 6.123234e-17 29.162 87.8383)" class="st0" width="10.1" height="40.2"/>
		<g>
			
				<rect x="48.4" y="24.3" transform="matrix(6.123234e-17 -1 1 6.123234e-17 24.135 82.8113)" class="st1" width="10.1" height="10.1"/>
			
				<rect x="68.6" y="24.3" transform="matrix(6.123234e-17 -1 1 6.123234e-17 44.2431 102.9193)" class="st3" width="10.1" height="10.1"/>
			
				<rect x="58.5" y="24.3" transform="matrix(6.123234e-17 -1 1 6.123234e-17 34.1891 92.8653)" class="st2" width="10.1" height="10.1"/>
		</g>
	</g>
	<path class="st4" d="M81.1,21.8H35.9v15.1h45.2V21.8z M78.6,34.4H38.4V24.3h40.2V34.4z M59.5,60.6l-1-1.3l-1,1.3
		c-0.8,1-7.8,10.3-7.8,14.8c0,4.9,3.9,8.8,8.8,8.8s8.8-3.9,8.8-8.8C67.3,70.9,60.3,61.7,59.5,60.6z M58.5,81.7
		c-3.5,0-6.3-2.8-6.3-6.3c0-2.4,3.5-8.1,6.3-11.9c2.8,3.8,6.3,9.5,6.3,11.9C64.8,78.9,62,81.7,58.5,81.7z M97.1,33.5l-1.8,1.8
		l6.7,6.7h-7v13.8h7.5v32.7c0,1.2-0.3,3.1-2.5,3.1s-2.5-2-2.5-3.1V68.3c0-3.7-3-5-5-5h-3.8V21.8c0-4.2-3.4-7.5-7.5-7.5H35.9
		c-4.2,0-7.5,3.4-7.5,7.5v81.7H17v2.5H100v-2.5H88.7V65.8h3.8c0.6,0,2.5,0.2,2.5,2.5v20.1c0,3.4,2,5.7,5,5.7c3.1,0,5-2.2,5-5.7V55.7
		V44.4v-2.5v-0.5L97.1,33.5z M35.9,16.8h45.2c2.8,0,5,2.3,5,5v20.1H30.9V21.8C30.9,19,33.1,16.8,35.9,16.8z M30.9,103.5V44.4h55.3
		v59.1H30.9z M102.5,53.2h-5v-8.8h5V53.2z"/>
</g>
<g>
	<path class="st4" d="M254.4,68.1l-29.7,3.2V48l9.1-1.1l8.7-8.2l12.2-1.6l-0.3-1.9l-12.8,1.7l-8.6,8.2l-8.2,1v-20V25L191,21l-31.6,4
		v73l31.6-4l33.7,4V73.3l29.9-3.3L254.4,68.1z M209.3,71.2l13.5,1.6V81l-13.5-1.5V71.2z M209.3,69.3v-23l13.5,1.6v23L209.3,69.3z
		 M190.1,92.2l-11.5,1.4v-23l11.5-1.5V92.2z M207.4,44.1l-15.4-1.8V23.1l9.6,1.1v9.9l5.8,5.8V44.1z M190.1,67.2l-11.5,1.5v-7.4
		c1.8-0.3,3.1-1.9,3.1-3.8c0-2.1-1.7-3.8-3.8-3.8c-2.1,0-3.8,1.7-3.8,3.8c0,1.7,1.1,3.1,2.6,3.6v8.3l-15.4,15.1V35.1l11.2,11.3
		l17.6-2.2V67.2z M177.9,59.4c-1.1,0-1.9-0.9-1.9-1.9c0-1.1,0.9-1.9,1.9-1.9c1.1,0,1.9,0.9,1.9,1.9
		C179.8,58.6,178.9,59.4,177.9,59.4z M192.1,44.2l15.4,1.8v23l-15.4-1.8V44.2z M222.8,45.9l-13.5-1.6v-5.2l-5.8-5.8v-8.9l19.2,2.3
		V45.9z M190.1,23v19.2l-16.9,2.1l-11.9-12v-5.7L190.1,23z M161.3,87.1L161.3,87.1l15.4-15v21.8l-15.4,1.9V87.1z M192.1,92.2v-23
		l15.4,1.8v10.2l15.4,1.7v12.9L192.1,92.2z"/>
	<g>
		<polygon class="st6" points="255.5,94 224.7,97.9 224.7,24.9 255.5,21.2 		"/>
		<g>
			<polygon class="st1" points="255.5,57.6 224.7,61.2 224.7,43 255.5,39.4 			"/>
			<polygon class="st2" points="255.5,75.8 224.7,79.4 224.7,61.2 255.5,57.6 			"/>
			<polygon class="st3" points="255.5,94 224.7,97.9 224.7,79.4 255.5,75.8 			"/>
		</g>
	</g>
</g>
</svg>
