<?xml version="1.0" encoding="utf-8"?>
<!-- Generator: Adobe Illustrator 21.0.2, SVG Export Plug-In . SVG Version: 6.00 Build 0)  -->
<svg version="1.1" id="Ebene_1" xmlns="http://www.w3.org/2000/svg" xmlns:xlink="http://www.w3.org/1999/xlink" x="0px" y="0px"
	 viewBox="0 0 120 120" style="enable-background:new 0 0 120 120;" xml:space="preserve">
<style type="text/css">
	.st0{fill:#008FD3;}
	.st1{opacity:0.4;fill:#F0AB00;}
	.st2{opacity:0.7;fill:#F0AB00;}
	.st3{fill:#F0AB00;}
	.st4{fill:#FFFFFF;}
	.st5{fill:#970A82;}
	.st6{fill:#E35500;}
</style>
<g>
	<g>
		<path class="st0" d="M-356.4,30h-7.4h-14.8h-14.8h-7.4c-4.1,0-7.4,3.3-7.4,7.4v59c0,4.1,3.3,7.4,7.4,7.4h7.4h14.8h14.8h7.4
			c4.1,0,7.4-3.3,7.4-7.4v-59C-349,33.3-352.3,30-356.4,30z"/>
		<g>
			<rect x="-393.2" y="30" class="st1" width="14.8" height="73.8"/>
			<rect x="-378.5" y="30" class="st2" width="14.8" height="73.8"/>
			<path class="st3" d="M-356.4,30h-7.4v73.8h7.4c4.1,0,7.4-3.3,7.4-7.4v-59C-349,33.3-352.3,30-356.4,30z"/>
		</g>
	</g>
	<path class="st4" d="M-392,116c-2.7,0-4.9-2.2-4.9-4.9c0-2.7,2.2-4.9,4.9-4.9c2.7,0,4.9,2.2,4.9,4.9
		C-387.1,113.8-389.3,116-392,116z M-392,108.6c-1.4,0-2.5,1.1-2.5,2.5s1.1,2.5,2.5,2.5s2.5-1.1,2.5-2.5S-390.7,108.6-392,108.6z
		 M-365,116c-2.7,0-4.9-2.2-4.9-4.9c0-2.7,2.2-4.9,4.9-4.9c2.7,0,4.9,2.2,4.9,4.9C-360.1,113.8-362.3,116-365,116z M-365,108.6
		c-1.4,0-2.5,1.1-2.5,2.5s1.1,2.5,2.5,2.5s2.5-1.1,2.5-2.5S-363.6,108.6-365,108.6z M-390.8,39.8h-2.5v54.1h2.5V39.8z M-363.8,39.8
		h-2.5v54.1h2.5V39.8z M-393.2,15.2v4.9h6.1V30h2.5v-9.8h12.3V30h2.5v-9.8h6.1v-4.9H-393.2z"/>
</g>
<g>
	<path class="st5" d="M-203.3,52.8l0-23.9l-24-5.7l-24,5.7l0,23.9l24,9.9L-203.3,52.8z"/>
	<g>
		<polygon class="st3" points="-251.4,42.6 -241.6,46.3 -241.6,33.2 -251.4,30.1 		"/>
		<polygon class="st3" points="-251.4,52.8 -241.6,56.9 -241.6,48.3 -251.4,44.6 		"/>
		<polygon class="st3" points="-249.8,28.6 -240.9,31.5 -230.9,28.8 -240.3,26.4 		"/>
		<polygon class="st3" points="-227.3,23.3 -236.6,25.5 -227.4,27.9 -218.1,25.5 		"/>
	</g>
	<g>
		<polygon class="st2" points="-239.8,47 -228.3,51.3 -228.3,37.4 -239.8,33.8 		"/>
		<polygon class="st2" points="-227.3,29.8 -237.7,32.5 -227.5,35.8 -227.4,35.8 -217,32.5 		"/>
		<polygon class="st2" points="-239.8,57.6 -228.3,62.3 -228.3,53.3 -239.8,49 		"/>
	</g>
	<g>
		<polygon class="st1" points="-226.4,37.4 -226.4,51.3 -214.9,47 -214.9,33.8 		"/>
		<polygon class="st1" points="-226.4,62.3 -214.9,57.6 -214.9,49 -226.4,53.3 		"/>
	</g>
	<path class="st4" d="M-192.2,49.7l14.4-11.3l-21.9-5.6v1.9l17.9,4.5l-12.5,9.8l-5.4-1.6v1.9l2.8,0.8l-16.3,6.7v-8.6l9.8-3.7v-1.9
		l-9.8,3.7V33.2l9.8-3.1V29l-1.6-0.4l-8.9,2.9l-10-2.6l9.4-2.5l-3.7-0.9l-9.3,2.4l-9.3-2.4l-3.7,0.9l9.4,2.5l-10,2.6l-8.9-2.9
		l-1.6,0.4v1.1l9.8,3.1v13.1l-9.8-3.7v1.9l9.8,3.7v8.6l-16.3-6.7l2.8-0.8v-1.9l-5.4,1.6l-12.5-9.8l17.9-4.5v-1.9l-21.9,5.6
		l14.4,11.3l-20.2,5.9l21.2,10.9v26l34.1,15.5l34.1-15.5v-26l21.2-10.9L-192.2,49.7z M-226.4,51.3V37.4l11.5-3.7V47L-226.4,51.3z
		 M-214.9,49v8.7l-11.5,4.7v-9.1L-214.9,49z M-227.3,29.8l10.3,2.7l-10.3,3.3l-0.2,0l-10.2-3.3L-227.3,29.8z M-239.8,33.8l11.5,3.7
		v13.9l-11.5-4.3V33.8z M-239.8,49l11.5,4.3v9.1l-11.5-4.7V49z M-277.9,56.1l17.1-5l0,0l0.1,0l30.9,12.7l-18.6,7.5L-277.9,56.1z
		 M-259.7,91.4V67.4l11.3,5.8l20.1-8.2v40.6L-259.7,91.4z M-195,91.4l-31.4,14.2V65l20.1,8.2l11.3-5.8V91.4z M-206.4,71.2l-18.6-7.5
		l30.9-12.7l0.1,0l0,0l17.1,5L-206.4,71.2z"/>
</g>
<g>
	<g>
		
			<rect x="-92.5" y="10.2" transform="matrix(6.123234e-17 -1 1 6.123234e-17 -117.838 -57.1617)" class="st0" width="10.1" height="40.2"/>
		<g>
			
				<rect x="-97.6" y="25.3" transform="matrix(6.123234e-17 -1 1 6.123234e-17 -122.865 -62.1887)" class="st1" width="10.1" height="10.1"/>
			
				<rect x="-77.4" y="25.3" transform="matrix(6.123234e-17 -1 1 6.123234e-17 -102.7569 -42.0807)" class="st3" width="10.1" height="10.1"/>
			
				<rect x="-87.5" y="25.3" transform="matrix(6.123234e-17 -1 1 6.123234e-17 -112.8109 -52.1347)" class="st2" width="10.1" height="10.1"/>
		</g>
	</g>
	<path class="st4" d="M-64.9,22.8h-45.2v15.1h45.2V22.8z M-67.4,35.4h-40.2V25.3h40.2V35.4z M-86.5,61.6l-1-1.3l-1,1.3
		c-0.8,1-7.8,10.3-7.8,14.8c0,4.9,3.9,8.8,8.8,8.8c4.9,0,8.8-3.9,8.8-8.8C-78.7,71.9-85.7,62.7-86.5,61.6z M-87.5,82.7
		c-3.5,0-6.3-2.8-6.3-6.3c0-2.4,3.5-8.1,6.3-11.9c2.8,3.8,6.3,9.5,6.3,11.9C-81.2,79.9-84,82.7-87.5,82.7z M-48.9,34.5l-1.8,1.8
		l6.7,6.7h-7v13.8h7.5v32.7c0,1.2-0.3,3.1-2.5,3.1s-2.5-2-2.5-3.1V69.3c0-3.7-3-5-5-5h-3.8V22.8c0-4.2-3.4-7.5-7.5-7.5h-45.2
		c-4.2,0-7.5,3.4-7.5,7.5v81.7H-129v2.5H-46v-2.5h-11.3V66.8h3.8c0.6,0,2.5,0.2,2.5,2.5v20.1c0,3.4,2,5.7,5,5.7c3.1,0,5-2.2,5-5.7
		V56.7V45.4v-2.5v-0.5L-48.9,34.5z M-110.1,17.8h45.2c2.8,0,5,2.3,5,5v20.1h-55.3V22.8C-115.1,20-112.9,17.8-110.1,17.8z
		 M-115.1,104.5V45.4h55.3v59.1H-115.1z M-43.5,54.2h-5v-8.8h5V54.2z"/>
</g>
<g>
	<path class="st4" d="M108.4,69.1l-29.7,3.2V49l9.1-1.1l8.7-8.2l12.2-1.6l-0.3-1.9l-12.8,1.7l-8.6,8.2l-8.2,1v-20V26L45,22l-31.6,4
		v73L45,95l33.7,4V74.3l29.9-3.3L108.4,69.1z M63.3,72.2l13.5,1.6V82l-13.5-1.5V72.2z M63.3,70.3v-23l13.5,1.6v23L63.3,70.3z
		 M44.1,93.2l-11.5,1.4v-23l11.5-1.5V93.2z M61.4,45.1l-15.4-1.8V24.1l9.6,1.1v9.9l5.8,5.8V45.1z M44.1,68.2l-11.5,1.5v-7.4
		c1.8-0.3,3.1-1.9,3.1-3.8c0-2.1-1.7-3.8-3.8-3.8c-2.1,0-3.8,1.7-3.8,3.8c0,1.7,1.1,3.1,2.6,3.6v8.3L15.3,85.5V36.1l11.2,11.3
		l17.6-2.2V68.2z M31.9,60.4c-1.1,0-1.9-0.9-1.9-1.9c0-1.1,0.9-1.9,1.9-1.9c1.1,0,1.9,0.9,1.9,1.9C33.8,59.6,32.9,60.4,31.9,60.4z
		 M46.1,45.2L61.4,47v23l-15.4-1.8V45.2z M76.8,46.9l-13.5-1.6v-5.2l-5.8-5.8v-8.9l19.2,2.3V46.9z M44.1,24v19.2l-16.9,2.1l-11.9-12
		v-5.7L44.1,24z M15.3,88.1L15.3,88.1l15.4-15v21.8l-15.4,1.9V88.1z M46.1,93.2v-23L61.4,72v10.2l15.4,1.7v12.9L46.1,93.2z"/>
	<g>
		<polygon class="st6" points="109.5,95 78.7,98.9 78.7,25.9 109.5,22.2 		"/>
		<g>
			<polygon class="st1" points="109.5,58.6 78.7,62.2 78.7,44 109.5,40.4 			"/>
			<polygon class="st2" points="109.5,76.8 78.7,80.4 78.7,62.2 109.5,58.6 			"/>
			<polygon class="st3" points="109.5,95 78.7,98.9 78.7,80.4 109.5,76.8 			"/>
		</g>
	</g>
</g>
</svg>
