<?xml version="1.0" encoding="utf-8"?>
<!-- Generator: Adobe Illustrator 21.0.2, SVG Export Plug-In . SVG Version: 6.00 Build 0)  -->
<svg version="1.1" id="Ebene_1" xmlns="http://www.w3.org/2000/svg" xmlns:xlink="http://www.w3.org/1999/xlink" x="0px" y="0px"
	 viewBox="0 0 120 120" style="enable-background:new 0 0 120 120;" xml:space="preserve">
<style type="text/css">
	.st0{fill:#008FD3;}
	.st1{opacity:0.4;fill:#F0AB00;}
	.st2{opacity:0.7;fill:#F0AB00;}
	.st3{fill:#F0AB00;}
	.st4{fill:#FFFFFF;}
	.st5{fill:#970A82;}
	.st6{fill:#E35500;}
	.st7{fill:#4FB81C;}
</style>
<g>
	<g>
		<path class="st0" d="M-70.4-120h-7.4h-14.8h-14.8h-7.4c-4.1,0-7.4,3.3-7.4,7.4v59c0,4.1,3.3,7.4,7.4,7.4h7.4h14.8h14.8h7.4
			c4.1,0,7.4-3.3,7.4-7.4v-59C-63-116.7-66.3-120-70.4-120z"/>
		<g>
			<rect x="-107.2" y="-120" class="st1" width="14.8" height="73.8"/>
			<rect x="-92.5" y="-120" class="st2" width="14.8" height="73.8"/>
			<path class="st3" d="M-70.4-120h-7.4v73.8h7.4c4.1,0,7.4-3.3,7.4-7.4v-59C-63-116.7-66.3-120-70.4-120z"/>
		</g>
	</g>
	<path class="st4" d="M-106-34c-2.7,0-4.9-2.2-4.9-4.9c0-2.7,2.2-4.9,4.9-4.9c2.7,0,4.9,2.2,4.9,4.9C-101.1-36.2-103.3-34-106-34z
		 M-106-41.4c-1.4,0-2.5,1.1-2.5,2.5s1.1,2.5,2.5,2.5s2.5-1.1,2.5-2.5S-104.7-41.4-106-41.4z M-79-34c-2.7,0-4.9-2.2-4.9-4.9
		c0-2.7,2.2-4.9,4.9-4.9c2.7,0,4.9,2.2,4.9,4.9C-74.1-36.2-76.3-34-79-34z M-79-41.4c-1.4,0-2.5,1.1-2.5,2.5s1.1,2.5,2.5,2.5
		s2.5-1.1,2.5-2.5S-77.6-41.4-79-41.4z M-104.8-110.2h-2.5v54.1h2.5V-110.2z M-77.8-110.2h-2.5v54.1h2.5V-110.2z M-107.2-134.8v4.9
		h6.1v9.8h2.5v-9.8h12.3v9.8h2.5v-9.8h6.1v-4.9H-107.2z"/>
</g>
<g>
	<path class="st5" d="M82.7-97.2l0-23.9l-24-5.7l-24,5.7l0,23.9l24,9.9L82.7-97.2z"/>
	<g>
		<polygon class="st3" points="34.6,-107.4 44.4,-103.7 44.4,-116.8 34.6,-119.9 		"/>
		<polygon class="st3" points="34.6,-97.2 44.4,-93.1 44.4,-101.7 34.6,-105.4 		"/>
		<polygon class="st3" points="36.2,-121.4 45.1,-118.5 55.1,-121.2 45.7,-123.6 		"/>
		<polygon class="st3" points="58.7,-126.7 49.4,-124.5 58.6,-122.1 67.9,-124.5 		"/>
	</g>
	<g>
		<polygon class="st2" points="46.2,-103 57.7,-98.7 57.7,-112.6 46.2,-116.2 		"/>
		<polygon class="st2" points="58.7,-120.2 48.3,-117.5 58.5,-114.2 58.6,-114.2 69,-117.5 		"/>
		<polygon class="st2" points="46.2,-92.4 57.7,-87.7 57.7,-96.7 46.2,-101 		"/>
	</g>
	<g>
		<polygon class="st1" points="59.6,-112.6 59.6,-98.7 71.1,-103 71.1,-116.2 		"/>
		<polygon class="st1" points="59.6,-87.7 71.1,-92.4 71.1,-101 59.6,-96.7 		"/>
	</g>
	<path class="st4" d="M93.8-100.3l14.4-11.3l-21.9-5.6v1.9l17.9,4.5L91.7-101l-5.4-1.6v1.9l2.8,0.8l-16.3,6.7v-8.6l9.8-3.7v-1.9
		l-9.8,3.7v-13.1l9.8-3.1v-1.1l-1.6-0.4l-8.9,2.9l-10-2.6l9.4-2.5l-3.7-0.9l-9.3,2.4l-9.3-2.4l-3.7,0.9l9.4,2.5l-10,2.6l-8.9-2.9
		l-1.6,0.4v1.1l9.8,3.1v13.1l-9.8-3.7v1.9l9.8,3.7v8.6l-16.3-6.7l2.8-0.8v-1.9l-5.4,1.6l-12.5-9.8l17.9-4.5v-1.9L9-111.6l14.4,11.3
		L3.3-94.4l21.2,10.9v26L58.6-42l34.1-15.5v-26L114-94.4L93.8-100.3z M59.6-98.7v-13.9l11.5-3.7v13.2L59.6-98.7z M71.1-101v8.7
		l-11.5,4.7v-9.1L71.1-101z M58.7-120.2l10.3,2.7l-10.3,3.3l-0.2,0l-10.2-3.3L58.7-120.2z M46.2-116.2l11.5,3.7v13.9L46.2-103
		V-116.2z M46.2-101l11.5,4.3v9.1l-11.5-4.7V-101z M8.1-93.9l17.1-5l0,0l0.1,0l30.9,12.7l-18.6,7.5L8.1-93.9z M26.3-58.6v-23.9
		l11.3,5.8L57.7-85v40.6L26.3-58.6z M91-58.6L59.6-44.4V-85l20.1,8.2L91-82.6V-58.6z M79.6-78.8L61-86.3L91.9-99l0.1,0l0,0l17.1,5
		L79.6-78.8z"/>
</g>
<g>
	<g>
		
			<rect x="193.5" y="-139.8" transform="matrix(6.123234e-17 -1 1 6.123234e-17 318.162 78.8383)" class="st0" width="10.1" height="40.2"/>
		<g>
			
				<rect x="188.4" y="-124.7" transform="matrix(6.123234e-17 -1 1 6.123234e-17 313.135 73.8113)" class="st1" width="10.1" height="10.1"/>
			
				<rect x="208.6" y="-124.7" transform="matrix(6.123234e-17 -1 1 6.123234e-17 333.2431 93.9193)" class="st3" width="10.1" height="10.1"/>
			
				<rect x="198.5" y="-124.7" transform="matrix(6.123234e-17 -1 1 6.123234e-17 323.1891 83.8653)" class="st2" width="10.1" height="10.1"/>
		</g>
	</g>
	<path class="st4" d="M221.1-127.2h-45.2v15.1h45.2V-127.2z M218.6-114.6h-40.2v-10.1h40.2V-114.6z M199.5-88.4l-1-1.3l-1,1.3
		c-0.8,1-7.8,10.3-7.8,14.8c0,4.9,3.9,8.8,8.8,8.8s8.8-3.9,8.8-8.8C207.3-78.1,200.3-87.3,199.5-88.4z M198.5-67.3
		c-3.5,0-6.3-2.8-6.3-6.3c0-2.4,3.5-8.1,6.3-11.9c2.8,3.8,6.3,9.5,6.3,11.9C204.8-70.1,202-67.3,198.5-67.3z M237.1-115.5l-1.8,1.8
		l6.7,6.7h-7v13.8h7.5v32.7c0,1.2-0.3,3.1-2.5,3.1s-2.5-2-2.5-3.1v-20.1c0-3.7-3-5-5-5h-3.8v-41.5c0-4.2-3.4-7.5-7.5-7.5h-45.2
		c-4.2,0-7.5,3.4-7.5,7.5v81.7H157v2.5H240v-2.5h-11.3v-37.7h3.8c0.6,0,2.5,0.2,2.5,2.5v20.1c0,3.4,2,5.7,5,5.7s5-2.2,5-5.7v-32.7
		v-11.3v-2.5v-0.5L237.1-115.5z M175.9-132.2h45.2c2.8,0,5,2.3,5,5v20.1h-55.3v-20.1C170.9-130,173.1-132.2,175.9-132.2z
		 M170.9-45.5v-59.1h55.3v59.1H170.9z M242.5-95.8h-5v-8.8h5V-95.8z"/>
</g>
<g>
	<path class="st4" d="M394.4-80.9l-29.7,3.2V-101l9.1-1.1l8.7-8.2l12.2-1.6l-0.3-1.9l-12.8,1.7l-8.6,8.2l-8.2,1v-20v-1.1l-33.8-4
		l-31.6,4v73l31.6-4l33.7,4v-24.7l29.9-3.3L394.4-80.9z M349.3-77.8l13.5,1.6v8.2l-13.5-1.5V-77.8z M349.3-79.7v-23l13.5,1.6v23
		L349.3-79.7z M330.1-56.8l-11.5,1.4v-23l11.5-1.5V-56.8z M347.4-104.9l-15.4-1.8v-19.2l9.6,1.1v9.9l5.8,5.8V-104.9z M330.1-81.8
		l-11.5,1.5v-7.4c1.8-0.3,3.1-1.9,3.1-3.8c0-2.1-1.7-3.8-3.8-3.8c-2.1,0-3.8,1.7-3.8,3.8c0,1.7,1.1,3.1,2.6,3.6v8.3l-15.4,15.1
		v-49.4l11.2,11.3l17.6-2.2V-81.8z M317.9-89.6c-1.1,0-1.9-0.9-1.9-1.9c0-1.1,0.9-1.9,1.9-1.9s1.9,0.9,1.9,1.9
		C319.8-90.4,318.9-89.6,317.9-89.6z M332.1-104.8l15.4,1.8v23l-15.4-1.8V-104.8z M362.8-103.1l-13.5-1.6v-5.2l-5.8-5.8v-8.9
		l19.2,2.3V-103.1z M330.1-126v19.2l-16.9,2.1l-11.9-12v-5.7L330.1-126z M301.3-61.9L301.3-61.9l15.4-15v21.8l-15.4,1.9V-61.9z
		 M332.1-56.8v-23l15.4,1.8v10.2l15.4,1.7v12.9L332.1-56.8z"/>
	<g>
		<polygon class="st6" points="395.5,-55 364.7,-51.1 364.7,-124.1 395.5,-127.8 		"/>
		<g>
			<polygon class="st1" points="395.5,-91.4 364.7,-87.8 364.7,-106 395.5,-109.6 			"/>
			<polygon class="st2" points="395.5,-73.2 364.7,-69.6 364.7,-87.8 395.5,-91.4 			"/>
			<polygon class="st3" points="395.5,-55 364.7,-51.1 364.7,-69.6 395.5,-73.2 			"/>
		</g>
	</g>
</g>
<g>
	<path class="st4" d="M98.5,52.7l-43.9-5.3V31.8h12.6c5.6,0,19.8,10.9,21.4,12.2c0,0,4.2,3.3,7.9,6.9L98.5,52.7z M56.4,45.9
		l36.8,4.4c-3-2.7-5.7-4.8-5.8-4.9c-4.2-3.3-16.1-11.8-20.3-11.8H56.4V45.9z M51,47l-17-2l0.5-1.1c3.5-7.5,8.4-12,11.1-12H51V47z
		 M36.8,43.5L49.2,45V33.6h-3.6C44.3,33.6,40.2,36.6,36.8,43.5z M89.2,87.5c-6.4,0-11.6-5.2-11.6-11.6c0-6.4,5.2-11.6,11.6-11.6
		s11.6,5.2,11.6,11.6C100.8,82.3,95.6,87.5,89.2,87.5z M89.2,66.1c-5.4,0-9.8,4.4-9.8,9.8c0,5.4,4.4,9.8,9.8,9.8
		c5.4,0,9.8-4.4,9.8-9.8C99,70.5,94.6,66.1,89.2,66.1z M72.1,75.6l0,2.1l-20.4,0l0-2.7h0c-0.2-3.6-1.5-6.8-3.5-9.5v3.3
		c1.1,2.1,1.7,4.5,1.7,7.1l0,1.8h0v1.8l24.1,0v-1.8h0l0-1.8c0-8.4,6.8-15.2,15.2-15.2c3.5,0,6.8,1.2,9.3,3.2v-2.2
		c-2.7-1.8-5.9-2.8-9.3-2.8C79.9,58.9,72.3,66.3,72.1,75.6z M76,94.7h-7.2v1.8H76V94.7z M76,87.3h-7.2v1.8H76V87.3z M94,41
		c-0.8-0.6-19-14.7-25.8-14.7H36.9c-3.9,0-11.8,7.8-16.1,21.9c-0.8,2.7-1.4,5.3-1.9,7.6c-4.9,3.8-8.1,9.8-8.1,16.5
		c0,11.4,9.3,20.7,20.7,20.7v0h20.3c0-0.3-0.1-0.7-0.1-1.1c0-0.3,0-0.5,0-0.7H31.6v0c-10.4,0-18.9-8.5-18.9-18.9
		c0-5.3,2.2-10.2,5.8-13.6c-0.9,5.4-0.9,9.1-0.9,10.7v7.1c0,1.7,1.4,3.1,3.1,3.1c1.1,0,2.2,0,2.9,0c1.5,4.6,5.9,8,11,8
		c6.4,0,11.6-5.2,11.6-11.6c0-6.4-5.2-11.6-11.6-11.6S23,69.5,23,75.9c0,0.6,0,1.2,0.1,1.8c-0.6,0-1.5,0-2.4,0
		c-0.7,0-1.3-0.6-1.3-1.3v-7.1c0-1.8,0-6.2,1.2-12.5c3.1-2.2,6.9-3.5,11-3.5v0h0.5c0.4,1.1,1.4,1.8,2.6,1.8c1.5,0,2.7-1.2,2.7-2.7
		s-1.2-2.7-2.7-2.7c-1.2,0-2.2,0.8-2.6,1.8h-0.5v0c-3.8,0-7.4,1-10.4,2.8c0.4-1.7,0.9-3.6,1.5-5.6c4.3-14.3,12.1-20.6,14.3-20.6
		h31.2c5.1,0,19.6,10.3,24.7,14.3c5.9,4.9,15.3,13.8,15.3,16.7v17.2c0,0.8-0.7,1.3-1.3,1.3h-2.4v1.8h2.4c1.5,0,3.1-1.2,3.1-3.1V59.2
		C110,54.6,96.7,43.3,94,41z M34.6,66.1c5.4,0,9.8,4.4,9.8,9.8c0,5.4-4.4,9.8-9.8,9.8s-9.8-4.4-9.8-9.8
		C24.8,70.5,29.2,66.1,34.6,66.1z M75.1,91h-6.3v1.8h6.3c0.5,0,0.9-0.4,0.9-0.9S75.6,91,75.1,91z"/>
	<g>
		<path class="st7" d="M68.8,98l-12.6,0c-2.5,0-4.4-2.7-4.4-6.1s1.9-6.1,4.4-6.1l12.6,0V98z"/>
	</g>
	<path class="st3" d="M56,98V85.8c-2.4,0.1-4.2,2.8-4.2,6.1C51.8,95.2,53.6,97.9,56,98z"/>
	<path class="st2" d="M56.2,98h4.1V85.8h-4.1c-0.1,0-0.1,0-0.2,0V98C56.1,98,56.2,98,56.2,98z"/>
	<rect x="60.3" y="85.8" class="st1" width="4.2" height="12.2"/>
</g>
</svg>
