<svg xmlns="http://www.w3.org/2000/svg" viewBox="0 0 178.69 140.15"><defs><style>.cls-1{fill:#fff;}.cls-2{fill:#008fd3;}.cls-3{fill:#f0ab00;}.cls-4{opacity:0.7;}.cls-5{opacity:0.4;}.cls-6{fill:none;}</style></defs><title>Asset 1</title><g id="Layer_2" data-name="Layer 2"><g id="Pictograms"><path class="cls-1" d="M89.34,335.35a10.89,10.89,0,1,0,10.89,10.89A10.91,10.91,0,0,0,89.34,335.35Zm0,17.78a6.89,6.89,0,1,1,6.89-6.89A6.9,6.9,0,0,1,89.34,353.14Zm25.72-29.76H97.69V312.55h-4v10.83H85V312.55H81v10.83H63.62c-3.84,0-5.55,1.71-5.55,5.55v34.63c0,3.84,1.71,5.55,5.55,5.55h51.45c3.84,0,5.55-1.71,5.55-5.55V328.93C120.62,325.09,118.91,323.38,115.07,323.38Zm1.55,40.18a3.43,3.43,0,0,1-.16,1.37h0a2.94,2.94,0,0,1-1.39.18H63.62a3.46,3.46,0,0,1-1.37-.16,3,3,0,0,1-.18-1.39V328.93a3.46,3.46,0,0,1,.16-1.37,2.94,2.94,0,0,1,1.39-.18h51.45a3.51,3.51,0,0,1,1.37.16,2.94,2.94,0,0,1,.18,1.39Zm25.87-58.73L155.2,386.1l-4,.62-12.8-81.88Zm-12.45,0,12.71,81.27-4,.62L126,304.83Zm-89.79,0-12.8,81.88-4-.62L36.2,304.83Zm8.4,0h4l-12.8,81.88-4-.62ZM26.72,263H43v-2.19C48.55,262,54.5,263,59.24,263a15.54,15.54,0,0,0,7-1.29,6,6,0,0,0,3.47-5.61c0-3.15-1.81-6.9-10.46-6.9-4.85,0-11,1.12-16.7,2.3a8.38,8.38,0,0,0-7.71-5,8.26,8.26,0,0,0-7.69,5c-5.87-1.22-11.85-2.3-16.72-2.3C1.81,249.22,0,253,0,256.11S1.82,263,10.5,263c4.74,0,10.69-1.06,16.23-2.19Zm14.71-7.17c6-1.27,12.81-2.63,17.84-2.63,6.46,0,6.46,2.1,6.46,2.9a2.05,2.05,0,0,1-1.29,2,12.08,12.08,0,0,1-5.21.85c-5.05,0-11.84-1.35-17.81-2.61l-1.33-.28Zm-10.71-2c0-1.71,2-3.32,4.15-3.32,2,0,4.15,1.42,4.15,3.32V259H30.72ZM10.5,259C4,259,4,256.91,4,256.11s0-2.9,6.46-2.9c5,0,11.85,1.36,17.85,2.63l1.32.28-1.32.28C22.34,257.66,15.55,259,10.5,259Zm157.73-9.8c-4.87,0-10.85,1.09-16.72,2.3a8.26,8.26,0,0,0-7.69-5,8.38,8.38,0,0,0-7.71,5c-5.68-1.18-11.85-2.3-16.7-2.3-8.64,0-10.46,3.75-10.46,6.9s1.82,6.9,10.5,6.9c4.74,0,10.69-1.06,16.22-2.19V263H152v-2.19C157.5,262,163.45,263,168.19,263h0c6,0,8.69-1.77,9.81-3.9a6.39,6.39,0,0,0,.69-3C178.69,253,176.87,249.22,168.23,249.22Zm-31,7.19c-6,1.26-12.75,2.61-17.81,2.61-6.5,0-6.5-2.11-6.5-2.9s0-2.9,6.46-2.9c5,0,11.85,1.36,17.84,2.63l1.33.28ZM148,259h-8.29v-5.13c0-1.9,2.19-3.32,4.15-3.32,2.13,0,4.15,1.61,4.15,3.32Zm1.09-2.89,1.32-.28c6-1.27,12.82-2.63,17.85-2.63,6.46,0,6.46,2.1,6.46,2.9s0,2.9-6.5,2.9c-5,0-11.84-1.35-17.81-2.61Z" transform="translate(0 -246.56)"/><path class="cls-2" d="M160,282.13h-8V271h-16.3v11.13H43V271H26.72v11.13h-8a7.35,7.35,0,1,0,0,14.69h47l10,15.73H103l10-15.73h47a7.35,7.35,0,1,0,0-14.69Z" transform="translate(0 -246.56)"/><path class="cls-3" d="M135.67,271v11.13h-7.29v14.69H160a7.35,7.35,0,1,0,0-14.69h-8V271Z" transform="translate(0 -246.56)"/><g class="cls-4"><polygon class="cls-3" points="89.34 65.99 103.01 65.99 113.01 50.26 128.38 50.26 128.38 35.56 89.34 35.56 89.34 65.99"/></g><g class="cls-5"><polygon class="cls-3" points="50.31 50.26 65.68 50.26 75.68 65.99 89.34 65.99 89.34 35.56 50.31 35.56 50.31 50.26"/></g><path class="cls-6" d="M26.72,271v11.13h-8a7.35,7.35,0,1,0,0,14.69H50.31V282.13H43V271Z" transform="translate(0 -246.56)"/></g></g></svg>