<svg xmlns="http://www.w3.org/2000/svg" viewBox="0 0 288.81 332.15"><defs><style>.cls-1,.cls-2,.cls-3,.cls-4,.cls-5,.cls-6{fill:none;stroke:#fff;stroke-miterlimit:10;}.cls-2,.cls-4{stroke-width:1px;}.cls-3{stroke-width:1.27px;}.cls-4,.cls-5,.cls-6{stroke-linecap:round;}.cls-5{stroke-width:1.06px;}.cls-6{stroke-width:0.75px;}</style></defs><title>Discokugel</title><g id="Ebene_2" data-name="Ebene 2"><g id="Shop"><circle class="cls-1" cx="124.27" cy="146" r="55.4"/><path class="cls-2" d="M70.48,132.73S83.84,118.65,124,118.65s54.09,14.08,54.09,14.08"/><path class="cls-2" d="M178.11,159S164.75,173,124.57,173,70.48,159,70.48,159"/><path class="cls-3" d="M73.86,123.13S86.36,98.75,124,98.75s50.63,24.38,50.63,24.38"/><path class="cls-3" d="M174.61,168.56s-12.51,24.38-50.12,24.38-50.63-24.38-50.63-24.38"/><line class="cls-1" x1="124.27" y1="90.6" x2="124.27"/><line class="cls-2" x1="68.87" y1="146" x2="179.66" y2="146"/><path class="cls-2" d="M137.38,92.06s14.08,13.36,14.08,53.54-14.08,54.09-14.08,54.09"/><path class="cls-2" d="M111.15,199.69s-14.08-13.36-14.08-53.54,14.08-54.09,14.08-54.09"/><path class="cls-3" d="M147,95.44s24.38,12.51,24.38,50.12S147,196.19,147,196.19"/><path class="cls-3" d="M101.55,196.19s-24.38-12.51-24.38-50.12,24.38-50.63,24.38-50.63"/><line class="cls-2" x1="124.12" y1="90.45" x2="124.12" y2="201.24"/><line class="cls-4" x1="123.89" y1="145.42" x2="159.07" y2="168.87"/><line class="cls-4" x1="165.01" y1="172.83" x2="183.19" y2="184.95"/><line class="cls-4" x1="187.06" y1="187.53" x2="194.47" y2="192.47"/><line class="cls-4" x1="222.46" y1="211.13" x2="227.09" y2="214.22"/><line class="cls-4" x1="235.98" y1="220.15" x2="247.44" y2="227.79"/><line class="cls-4" x1="259.2" y1="235.62" x2="266.54" y2="240.52"/><line class="cls-4" x1="284.64" y1="252.59" x2="288.31" y2="255.03"/><line class="cls-4" x1="197.73" y1="194.65" x2="217.01" y2="207.5"/><line class="cls-4" x1="123.79" y1="145.57" x2="145.17" y2="175.83"/><line class="cls-4" x1="147.86" y1="179.62" x2="153.01" y2="186.9"/><line class="cls-4" x1="178.65" y1="223.13" x2="181.87" y2="227.68"/><line class="cls-4" x1="204.17" y1="259.16" x2="209.27" y2="266.36"/><line class="cls-4" x1="221.85" y1="284.11" x2="224.4" y2="287.71"/><line class="cls-4" x1="161.47" y1="198.89" x2="174.86" y2="217.79"/><line class="cls-5" x1="124.44" y1="145.26" x2="97.93" y2="185.13"/><line class="cls-5" x1="93.45" y1="191.86" x2="79.75" y2="212.47"/><line class="cls-5" x1="76.84" y1="216.85" x2="71.25" y2="225.26"/><line class="cls-5" x1="50.16" y1="256.98" x2="46.66" y2="262.23"/><line class="cls-5" x1="39.97" y1="272.31" x2="31.33" y2="285.29"/><line class="cls-5" x1="22.47" y1="298.62" x2="16.94" y2="306.94"/><line class="cls-6" x1="159.98" y1="46.19" x2="157.23" y2="53.97"/><line class="cls-6" x1="151.96" y1="68.9" x2="145.17" y2="88.14"/><line class="cls-6" x1="138.2" y1="107.89" x2="124.53" y2="146.61"/><line class="cls-5" x1="3.3" y1="327.46" x2="0.53" y2="331.62"/><line class="cls-5" x1="68.79" y1="228.95" x2="54.26" y2="250.8"/></g></g></svg>