<svg xmlns="http://www.w3.org/2000/svg" xmlns:xlink="http://www.w3.org/1999/xlink" viewBox="0 0 258.23 346.69"><defs><style>.cls-1,.cls-10,.cls-7,.cls-8,.cls-9{fill:none;}.cls-2{clip-path:url(#clip-path);}.cls-3{fill:#e35400;}.cls-4{fill:#e87701;}.cls-5{fill:#ec9100;}.cls-6{fill:#f0ab01;}.cls-10,.cls-7,.cls-8,.cls-9{stroke:#fff;stroke-miterlimit:10;}.cls-8{stroke-width:0.64px;}.cls-9{stroke-width:0.35px;}.cls-10{stroke-width:0.71px;}</style><clipPath id="clip-path"><path class="cls-1" d="M202.39,46.94l16.23,48.2S227,124.41,224.89,135a57.77,57.77,0,0,1-12.43,25.79c-5.21,6.07-11.51,13.13-13.82,18.4s-1.32,13.23-.8,15.93,13.31,77.12,14.31,83.8,6.05,11.83,19.8,10.51,21.59-2,24.06-1.49,2.66,1.53-2,2.66l-80.64,15.24c-4.71.64-4.9-.35-2.8-1.76s9.67-3.61,22.95-7.39,16.09-10.42,14.6-17-16.75-80.54-17.26-83.24S188.4,186,184.33,181.9s-12.51-8.32-19.58-12.07a57.65,57.65,0,0,1-21-19.44C138,141.3,135,110.94,135,110.94l-2.48-50.8Z"/></clipPath></defs><title>Glasses</title><g id="Ebene_2" data-name="Ebene 2"><g id="Shop"><g class="cls-2"><rect class="cls-3" x="140.26" y="139.48" width="83.77" height="9.73"/><rect class="cls-4" x="140.26" y="148.44" width="83.77" height="9.73"/><rect class="cls-5" x="140.26" y="157.4" width="83.77" height="9.73"/><polygon class="cls-6" points="188.4 176.09 140.26 176.09 140.26 166.37 208.19 166.37 197.85 173.35 188.4 176.09"/></g><path class="cls-7" d="M127.64,100.65l-2.92,50.78s-3.19,30.27-9.06,39.3A57.77,57.77,0,0,1,94.52,210c-7.1,3.69-15.58,7.89-19.69,11.92s-6.16,11.79-6.69,14.48-16.43,76.52-18,83.09,1.2,13.24,14.45,17.13,20.79,6.16,22.88,7.59,1.9,2.42-2.81,1.74L4.17,330c-4.61-1.17-4.42-2.15-1.94-2.68s10.32.26,24,1.7,18.82-3.66,19.89-10.33,14.5-81,15-83.67,1.6-10.64-.67-15.93S52,206.73,46.87,200.61a57.65,57.65,0,0,1-12.21-25.86c-2-10.59,6.62-39.85,6.62-39.85L57.93,86.84Z"/><path class="cls-7" d="M202.39,46.94l16.23,48.2S227,124.41,224.89,135a57.77,57.77,0,0,1-12.43,25.79c-5.21,6.07-11.51,13.13-13.82,18.4s-1.32,13.23-.8,15.93,13.31,77.12,14.31,83.8,6.05,11.83,19.8,10.51,21.59-2,24.06-1.49,2.66,1.53-2,2.66l-80.64,15.24c-4.71.64-4.9-.35-2.8-1.76s9.67-3.61,22.95-7.39,16.09-10.42,14.6-17-16.75-80.54-17.26-83.24S188.4,186,184.33,181.9s-12.51-8.32-19.58-12.07a57.65,57.65,0,0,1-21-19.44C138,141.3,135,110.94,135,110.94l-2.48-50.8Z"/><line class="cls-7" x1="34.53" y1="167.2" x2="122.69" y2="167.2"/><circle class="cls-7" cx="59.32" cy="172.62" r="2.5"/><circle class="cls-7" cx="65.8" cy="193.28" r="1.25"/><circle class="cls-8" cx="72.07" cy="184.18" r="1.44"/><circle class="cls-9" cx="70.34" cy="209.38" r="1.22"/><circle class="cls-6" cx="77.32" cy="154" r="1.88"/><circle class="cls-5" cx="73.51" cy="130.9" r="2.27"/><circle class="cls-4" cx="89.32" cy="117.31" r="2.25"/><circle class="cls-3" cx="77.97" cy="102.27" r="2.48"/><circle class="cls-7" cx="168.07" cy="74.88" r="1.13"/><circle class="cls-7" cx="182.74" cy="92.62" r="0.81"/><circle class="cls-7" cx="181.55" cy="116.13" r="1.19"/><circle class="cls-10" cx="181.82" cy="144.98" r="2.05"/><circle class="cls-7" cx="178.53" cy="157.96" r="1"/><circle class="cls-7" cx="190.19" cy="166.16" r="1.04"/><circle class="cls-7" cx="163.45" cy="2.13" r="1.63"/><circle class="cls-7" cx="161.69" cy="44.5" r="0.88"/><circle class="cls-7" cx="83.59" cy="81.25" r="1.63"/><circle class="cls-7" cx="106.44" cy="61.63" r="1.75"/><circle class="cls-7" cx="85.21" cy="29.16" r="1.81"/><path class="cls-7" d="M172,173.67s9.43,4.2,19.77,1.84,16.94-10.39,16.94-10.39"/><path class="cls-7" d="M51.14,205.67s6.79,7.78,17.17,10,19.74-2.31,19.74-2.31"/><line class="cls-7" x1="121.74" y1="171.31" x2="94.49" y2="171.31"/><line class="cls-7" x1="120.74" y1="175.41" x2="98.82" y2="175.41"/><line class="cls-7" x1="119.66" y1="179.88" x2="102.82" y2="179.88"/><line class="cls-7" x1="118.81" y1="184.18" x2="106.69" y2="184.18"/><line class="cls-7" x1="222.39" y1="143.76" x2="193.99" y2="143.76"/><line class="cls-7" x1="220.67" y1="147.86" x2="198.32" y2="147.86"/><line class="cls-7" x1="218.37" y1="152.33" x2="202.32" y2="152.33"/><line class="cls-7" x1="215.65" y1="156.63" x2="206.19" y2="156.63"/></g></g></svg>