<?xml version="1.0" encoding="UTF-8"?>
<svg width="66px" height="32px" viewBox="0 0 66 32" version="1.1" xmlns="http://www.w3.org/2000/svg" xmlns:xlink="http://www.w3.org/1999/xlink">
    <!-- Generator: Sketch 46.2 (44496) - http://www.bohemiancoding.com/sketch -->
    <title>SAP Logo</title>
    <desc>Created with Sketch.</desc>
    <defs>
        <polygon id="path-1" points="0 32 0 0 66 0 66 32"></polygon>
        <linearGradient x1="50%" y1="0%" x2="50%" y2="100%" id="linearGradient-3">
            <stop stop-color="#00B8F1" offset="0%"></stop>
            <stop stop-color="#1E5FBB" offset="100%"></stop>
        </linearGradient>
    </defs>
    <g id="Home" stroke="none" stroke-width="1" fill="none" fill-rule="evenodd">
        <g id="01-Idle-Screen" transform="translate(-8.000000, -9.000000)">
            <g id="Header">
                <g id="SAP-Logo" transform="translate(8.000000, 9.000000)">
                    <mask id="mask-2" fill="white">
                        <use xlink:href="#path-1"></use>
                    </mask>
                    <g id="Clip-2"></g>
                    <polyline id="Fill-1" fill="url(#linearGradient-3)" mask="url(#mask-2)" points="0 32 33.3556667 32 66 0 0 0 0 32"></polyline>
                    <path d="M39.3253042,15.8886986 L37.904684,15.8886986 L37.904684,10.6230242 L39.3253042,10.6230242 C41.218858,10.6230242 42.7295175,11.2610643 42.7295175,13.2212856 C42.7295175,15.2497366 41.218858,15.8886986 39.3253042,15.8886986 L39.3253042,15.8886986 Z M24.0486354,19.643177 C23.2964889,19.643177 22.5916358,19.5104057 21.9840978,19.2780558 L24.0268077,12.7427555 L24.0650062,12.7427555 L26.0731556,19.2955743 C25.4692556,19.5131718 24.7807732,19.643177 24.0486354,19.643177 Z M38.9469572,6.34852476 L32.5005067,6.34483667 L32.5005067,21.8818493 L26.869867,6.34483667 L21.2865206,6.34483667 L16.4789674,19.3389094 C15.9669257,16.062039 12.6236481,14.9307165 9.99340902,14.0824552 C8.25719657,13.517255 6.41366454,12.6855901 6.4318543,11.766333 C6.44549662,11.012118 7.41955819,10.3113804 9.34949157,10.416491 C10.6464214,10.4865648 11.7905572,10.5925975 14.0670054,11.7054795 L16.3061647,7.75276607 C14.2279848,6.68045311 11.3576409,6.00276607 9.00479564,6 L8.99024384,6 C6.24722825,6 3.9607756,6.90173867 2.54379341,8.38711802 C1.55608952,9.4243941 1.0231296,10.7410432 1.00130189,12.1987619 C0.96492237,14.2032403 1.69069374,15.625922 3.21408601,16.7609326 C4.50101143,17.7170706 6.14718458,18.3375922 7.59781782,18.7930717 C9.38678057,19.3555058 10.8474182,19.8432561 10.8310474,20.8860643 C10.8174051,21.2650158 10.675525,21.6190727 10.4063165,21.9058219 C9.96066746,22.3723656 9.27491356,22.5475501 8.32904611,22.5659905 C6.50370385,22.6047155 5.14856683,22.3152002 2.99217096,21.0225237 L1.00130189,25.0314805 C3.15224083,26.2725237 5.69971652,27 8.29812353,27 L8.63281508,26.9963119 C10.8947116,26.9548209 12.7209633,26.3011064 14.1788725,25.1107745 C14.2625454,25.0434668 14.3380328,24.973393 14.4153393,24.9042413 L13.7686934,26.6551633 L19.6239767,26.6551633 L20.6071331,23.6244731 C21.635764,23.9812961 22.8053654,24.177687 24.0486354,24.177687 C25.2591639,24.177687 26.3987522,23.9905163 27.4082838,23.6548999 L28.3550608,26.6551633 L37.904684,26.6551633 L37.904684,20.3817176 L39.9865019,20.3817176 C45.0223365,20.3817176 48,17.7825342 48,13.4268967 C48,8.57521075 45.1060094,6.34852476 38.9469572,6.34852476 L38.9469572,6.34852476 Z" id="Fill-3" fill="#FFFFFE" mask="url(#mask-2)"></path>
                    <path d="M42.5881723,29.8559653 L42.5881723,29.1427332 L43.0587101,29.1427332 C43.2961217,29.1427332 43.550675,29.1930586 43.550675,29.4793926 C43.550675,29.8394794 43.2918363,29.8559653 43.0029998,29.8559653 L42.5881723,29.8559653 Z M42.5881723,30.1535792 L42.9850011,30.1535792 L43.582387,31.1505423 L43.9723591,31.1505423 L43.32012,30.1362256 C43.6578102,30.0980477 43.9149346,29.9149675 43.9149346,29.5002169 C43.9149346,29.0490239 43.6483823,28.8468547 43.1127062,28.8468547 L42.2453396,28.8468547 L42.2453396,31.1505423 L42.5881723,31.1505423 L42.5881723,30.1535792 Z M43.0064281,32 C44.0812085,32 45,31.1505423 45,29.9947939 C45,28.8468547 44.0812085,28 43.0064281,28 C41.9205057,28 41,28.8468547 41,29.9947939 C41,31.1505423 41.9205057,32 43.0064281,32 Z M41.398543,29.9947939 C41.398543,29.0490239 42.1030641,28.3288503 43.0064281,28.3288503 C43.9003643,28.3288503 44.6040283,29.0490239 44.6040283,29.9947939 C44.6040283,30.9579176 43.9003643,31.667679 43.0064281,31.667679 C42.1030641,31.667679 41.398543,30.9579176 41.398543,29.9947939 L41.398543,29.9947939 Z" id="Fill-4" fill="#2F5796" mask="url(#mask-2)"></path>
                </g>
            </g>
        </g>
    </g>
</svg>